<svg width="240" height="141" viewBox="0 0 240 141" fill="none" xmlns="http://www.w3.org/2000/svg">
<path d="M16.2 11.3401C16.14 11.3401 16.14 11.3401 16.14 11.2801H16.02C15.9 11.3401 15.72 11.4601 15.54 11.5801C15.3 11.7601 15.12 11.9401 15 12.0601C14.82 12.3001 14.7 12.4801 14.64 12.6001L14.46 12.9601L14.22 13.0201C13.98 13.0201 13.98 13.2001 14.1 13.5601C14.04 13.6801 14.04 13.7401 14.16 13.8001C14.16 13.9201 14.22 14.0401 14.22 14.1001C14.16 14.3401 14.16 14.4601 14.16 14.5201C14.1 14.6401 14.1 14.8201 14.16 15.0601L14.34 15.4201L14.28 15.8401C14.4 16.4401 14.52 16.9801 14.58 17.4001C14.58 17.8801 14.64 18.3001 14.7 18.6601C14.7 19.0801 14.7 19.5001 14.76 19.9201C14.76 20.4001 14.76 21.0001 14.88 21.6601C14.76 21.7801 14.76 21.8401 14.82 21.9001C14.82 22.0201 14.88 22.1401 14.88 22.2001C14.94 22.4401 15 22.6201 15 22.8001C15 23.0401 15 23.2801 15.06 23.4001C15.12 24.0001 15.12 24.4801 15 24.7801C14.82 25.1401 14.76 25.3801 14.88 25.6201C14.88 25.7401 14.88 25.8601 15 25.9801C15.06 26.2201 15.12 26.4601 15.24 26.7001V27.1801C15.18 27.4201 15.18 27.7801 15.24 28.2601C15.24 28.5001 15.3 28.6201 15.48 28.7401C15.6 28.8601 15.72 28.9801 15.78 29.1001C15.84 29.2201 15.78 29.2801 15.66 29.3401C15.48 29.4601 15.42 29.5801 15.48 29.7001L15.72 31.3201L15.54 31.9801C15.54 32.1001 15.54 32.1601 15.66 32.1601C15.66 32.2801 15.72 32.3401 15.72 32.4001C15.72 32.5201 15.84 32.7601 15.96 33.2401C16.02 33.7201 16.08 34.2001 16.2 34.6201C16.2 34.9201 16.26 35.1001 16.26 35.1001C16.2 35.2201 16.14 35.2801 16.08 35.4001L16.26 35.8801L16.32 36.0601L16.44 36.2401C16.44 36.3601 16.44 36.4201 16.56 36.4801C16.62 36.6001 16.68 36.8401 16.8 37.0801L17.04 37.4401C17.28 37.6801 17.46 37.8001 17.58 37.8601C17.64 37.9801 17.88 37.9801 18.3 37.8601L19.44 37.0801C19.62 36.9601 19.92 36.7801 20.34 36.6001C20.7 36.4801 20.88 36.2401 20.88 35.8801C20.88 35.7001 20.88 35.4601 21 35.2201C21.06 34.9801 21.12 34.8601 21.24 34.7401L21.18 32.1001C21.18 31.8001 21.12 31.3801 21 30.7801C20.82 30.2401 20.7 29.7001 20.7 29.1001L19.98 24.7801V24.1801L19.92 23.7601L19.68 22.2601L19.56 21.8401C19.5 21.1801 19.44 20.4601 19.44 19.7401C19.32 19.0801 19.26 18.4801 19.14 17.8801L18.72 16.9201C18.66 16.5601 18.6 16.2601 18.6 15.9001C18.48 15.6601 18.42 15.3001 18.36 14.9401L18.12 14.6401L18.18 13.9201C17.94 13.0801 17.64 12.5401 17.34 12.2401C16.98 12.0001 16.62 11.7001 16.2 11.3401ZM32.22 37.2001C32.1 36.9601 32.04 36.7201 31.98 36.4801C31.86 36.2401 31.8 36.0001 31.74 35.7601V35.4601L31.62 35.1001C31.62 34.9801 31.56 34.8601 31.5 34.7401C31.38 34.6201 31.32 34.5001 31.2 34.2601L31.02 33.8401L30.84 33.6001C30.9 33.3601 30.9 33.1201 30.9 32.9401C30.78 32.8201 30.78 32.5801 30.84 32.2801L30.72 31.8601C30.54 31.3801 30.36 30.9001 30.24 30.3001C30.06 29.8201 29.94 29.2801 29.82 28.7401C29.7 28.2601 29.58 27.8401 29.52 27.3601C29.4 26.9401 29.28 26.5801 29.22 26.3401L29.28 25.6801L29.1 25.3801C28.8 24.1201 28.56 22.9801 28.38 21.9001C28.14 20.9401 28.02 20.1601 27.96 19.5601C27.78 20.0401 27.66 20.5201 27.54 20.9401C27.42 21.4201 27.24 21.8401 27.06 22.2601L26.88 23.0401L26.76 23.4601L26.52 23.6401V23.9401C26.4 24.1801 26.34 24.3601 26.28 24.6001C26.16 24.8401 26.1 25.1401 25.98 25.4401C25.86 25.8001 25.68 26.2201 25.5 26.7001C25.26 27.1801 25.08 27.7801 24.84 28.5001L24.66 29.1001L24.6 29.2201C24.54 29.2201 24.48 29.2801 24.42 29.3401C24.3 29.5801 24.18 29.8201 24.06 30.1801C23.88 30.5401 23.76 30.8401 23.7 31.0201C23.58 31.2601 23.46 31.3801 23.46 31.4401C23.34 31.5601 23.28 31.7401 23.28 32.0401C23.28 32.1601 23.22 32.1601 23.16 32.1001H22.86C22.68 32.2801 22.56 32.3401 22.5 32.2201C21.96 31.9801 21.78 31.5001 21.9 30.7801C21.9 30.6001 21.96 30.3001 22.14 29.9401C22.26 29.5801 22.32 29.3401 22.44 29.1001C22.44 28.9801 22.5 28.8001 22.56 28.6201C22.56 28.5001 22.62 28.3201 22.68 28.1401C23.1 27.3601 23.4 26.6401 23.64 25.9801C23.76 25.3801 23.88 24.9601 24 24.7201C24.06 24.6001 24.12 24.3601 24.24 24.0601C24.3 23.8201 24.36 23.6401 24.48 23.4001L24.66 22.8001L24.9 22.2601L24.96 21.8401C25.02 21.6001 25.14 21.3001 25.32 20.8201C25.44 20.4001 25.56 20.1001 25.62 19.9801L25.68 19.3201C26.1 18.2401 26.4 17.2201 26.52 16.2001L26.76 15.7201L26.82 14.9401C26.82 14.7001 26.94 14.4601 27.12 14.1001C27.24 13.8001 27.36 13.5601 27.48 13.3201C27.54 13.2601 27.6 13.2001 27.72 13.2001C27.72 13.2601 27.78 13.2601 27.9 13.2601C28.08 13.3201 28.32 13.3201 28.56 13.2601C28.74 13.2601 28.92 13.2001 29.16 13.2001C29.46 13.3201 29.64 13.4401 29.76 13.5601C29.82 13.7401 29.88 13.9201 29.88 14.1001C30.36 14.8201 30.66 15.4801 30.78 16.0801C30.96 16.5601 31.08 16.8601 31.14 17.1001C31.14 17.4001 31.26 17.6401 31.44 17.8801C31.56 18.1201 31.62 18.3001 31.68 18.5401C31.68 18.8401 31.74 19.0801 31.86 19.3201C32.04 19.9801 32.22 20.5801 32.4 21.0601C32.52 21.6001 32.58 22.0201 32.7 22.3201L32.58 22.7401L33.36 24.3001C33.48 24.6001 33.54 24.9601 33.66 25.4401C33.66 25.9201 33.84 26.5201 34.14 27.1801C34.14 27.4201 34.26 27.7201 34.38 28.1401C34.44 28.6201 34.56 29.1001 34.68 29.5801C34.8 30.1201 34.92 30.6601 35.1 31.1401C35.22 31.7401 35.34 32.2201 35.46 32.5801L35.88 31.5601L36.12 31.3201L36.42 30.6001L37.02 28.9801C37.2 28.6201 37.32 28.3201 37.44 28.0801C37.5 27.8401 37.62 27.5401 37.86 27.0601L38.22 26.2801L38.64 24.4201L39.18 23.3401C39.24 23.1001 39.36 22.6801 39.6 22.0801C39.72 21.4801 39.9 20.7601 40.14 19.8601C40.26 19.3801 40.32 19.0201 40.44 18.6601C40.5 18.4201 40.56 18.1201 40.68 17.8801C40.68 17.7001 40.74 17.4601 40.86 17.2201C40.86 16.9801 40.92 16.6801 41.04 16.2601L41.64 14.4001C41.88 13.8601 42.12 13.0201 42.42 11.8201C42.66 10.6801 42.96 9.72008 43.2 8.88008C43.26 8.76008 43.38 8.58008 43.5 8.40008L43.8 8.10008L44.1 7.98008C44.22 7.92008 44.34 7.92008 44.52 7.98008C44.64 7.98008 44.82 8.10008 45 8.22008C45.12 8.40008 45.24 8.52008 45.36 8.64008C45.36 8.82008 45.3 9.00008 45.3 9.12008C45.24 9.36008 45.18 9.48008 45.18 9.54008C45.06 9.78008 45.06 9.84008 45.12 9.84008C45.12 9.90008 45.12 10.0201 45.06 10.2001C45 10.4401 44.94 10.6201 44.94 10.7401C44.82 10.9801 44.76 11.2201 44.7 11.4601C44.58 11.7001 44.52 11.9401 44.46 12.3001C44.34 12.6601 44.22 13.0201 44.16 13.3801C44.04 13.7401 43.92 14.1001 43.86 14.4001C43.74 14.7601 43.74 14.9401 43.74 15.0601C43.68 15.5401 43.62 15.8401 43.5 16.0801C43.32 16.3201 43.2 16.5001 43.14 16.5601L42.9 17.4001L42.84 18.2401C42.72 18.6001 42.6 19.0801 42.48 19.6801C42.3 20.4001 42.18 20.9401 42.06 21.3601L41.1 24.3601C40.74 25.3201 40.44 26.0401 40.32 26.4601L39.84 27.7801L39.54 28.3201L39.36 29.1001C39.24 29.7601 39 30.3601 38.76 30.9001L38.22 31.8001L37.8 32.7601C37.68 33.1201 37.56 33.4201 37.38 33.7201C37.14 34.0801 36.96 34.5001 36.78 34.8601L36.72 35.5201L36.48 35.7601C36.24 35.8801 36.06 36.0601 35.82 36.1801C35.52 36.4201 35.28 36.6001 35.04 36.7201C34.74 36.9601 34.5 37.0801 34.26 37.2001C34.02 37.3201 33.84 37.3801 33.72 37.3801L33.36 37.2001C33.18 37.2601 33.06 37.3201 33 37.3201C32.88 37.3801 32.7 37.3801 32.52 37.3201C32.46 37.3201 32.34 37.3201 32.22 37.2001ZM53.6129 28.3201C53.6129 28.8001 53.6129 29.2201 53.6729 29.5201V30.7201L53.7929 31.0801C53.7929 31.2601 53.7929 31.4401 53.9129 31.6201C53.9129 31.8601 53.9729 32.0401 54.0329 32.2201C54.0929 32.4601 54.2129 32.8801 54.4529 33.5401C54.6329 34.2601 55.0529 34.9201 55.7129 35.6401C55.8929 35.9401 56.2529 36.2401 56.8529 36.4801C57.3929 36.7801 57.9329 36.9001 58.5329 36.9001C58.9529 36.9001 59.1929 36.9001 59.3129 36.8401C59.5529 36.7801 59.7329 36.8401 59.7329 36.9601C59.7329 37.0801 59.7929 37.2601 59.7929 37.3801C59.7929 37.5601 59.7329 37.6801 59.7329 37.6801C59.6129 37.8001 59.4929 37.9201 59.4929 37.9801C59.4329 38.1001 59.3129 38.2201 59.1929 38.2801C58.9529 38.4001 58.7729 38.5201 58.6529 38.5801C58.5329 38.6401 58.2929 38.7001 58.0529 38.8201H57.8129C57.6929 38.7601 57.6329 38.7601 57.6329 38.7601C57.5129 38.7601 57.5129 38.7001 57.5129 38.7001C57.3929 38.7001 57.3329 38.7601 57.2129 38.9401C57.0929 39.0601 56.9129 39.1201 56.7929 39.1201C56.4329 39.1201 56.1929 39.0601 55.9529 39.0001L55.5929 39.1201L54.0929 38.4601C54.0929 38.4601 54.0329 38.4001 54.0329 38.3401C53.9729 38.3401 53.9129 38.2801 53.9129 38.1601L53.3129 38.2801C53.2529 38.2801 53.1929 38.1601 53.1329 38.0401C53.0129 37.9801 52.8929 37.8601 52.8329 37.7401L52.4129 37.3201C52.1729 37.2001 51.9329 36.9001 51.6329 36.4201C51.2729 36.0601 50.9729 35.7001 50.7329 35.3401C50.7329 34.9201 50.6129 34.5601 50.4329 34.2601C50.1929 34.0201 50.0729 33.6601 50.0729 33.3001L50.1929 32.6401L49.8929 32.1601V31.5001L49.8329 30.7201C49.8329 29.8801 49.8929 28.9801 50.0129 28.0201H49.9529C49.4129 28.0201 48.9929 28.0201 48.7529 27.9601C48.4529 27.9601 48.1529 27.9001 47.9129 27.9001C47.4329 27.9001 47.0729 27.9001 46.8929 27.8401C46.6529 27.8401 46.4129 27.7801 46.0529 27.5401C45.8129 27.4201 45.6329 27.3001 45.5129 27.0601C45.2729 26.9401 45.1529 26.7601 45.1529 26.5201C45.1529 25.9201 45.2729 25.5001 45.5729 25.3201L45.9329 25.1401H46.4729C46.5929 25.1401 46.7729 25.2001 47.0129 25.2001C47.1329 25.2601 47.3129 25.3201 47.5529 25.3801C48.3929 25.6201 49.3529 25.7401 50.4329 25.7401C50.4929 25.4401 50.5529 25.0801 50.6729 24.7201C50.7329 24.4201 50.7929 24.1201 50.9129 23.7601L51.3929 22.6801L51.9329 20.3401C52.1729 19.6801 52.4129 19.0801 52.6529 18.4801C52.8929 18.0001 53.0729 17.5201 53.3129 17.0401L53.4929 16.9201L53.6129 16.8001C53.6729 16.5001 53.7329 16.3801 53.8529 16.3801C53.8529 16.4401 53.9129 16.3801 54.0329 16.2001L54.1529 15.7801C54.1529 15.7201 54.2129 15.5401 54.4529 15.2401C54.6329 15.0001 54.8729 14.7601 55.1729 14.4001L55.9529 13.4401C56.1929 13.2001 56.3729 12.9601 56.5529 12.7801C57.0329 12.3001 57.5729 11.7601 58.1729 11.2801C58.3529 11.1601 58.5329 11.0401 58.6529 11.0401C58.7129 11.0401 58.8329 11.0401 59.0729 10.9201C59.1929 10.8601 59.4329 10.8001 59.7329 10.8001C59.8529 10.8001 60.0329 10.8601 60.2729 10.9201C60.3329 10.9801 60.3929 10.9801 60.4529 10.9201C60.4529 10.9201 60.4529 10.9801 60.5729 11.0401C60.6329 11.1601 60.7529 11.2201 60.8729 11.2801C60.9329 11.4001 60.9929 11.4601 61.1129 11.5201C61.2929 11.7601 61.4129 11.9401 61.5329 12.0601C61.5329 12.2401 61.6529 12.4201 61.8329 12.5401C61.9529 12.6601 62.0129 12.8401 62.1329 13.0801C62.1929 13.3201 62.2529 13.6201 62.3729 13.9201L62.4929 14.5201L62.5529 14.7001L62.7329 15.4801V15.9001L62.7929 16.3801L62.7329 17.1601L62.6729 17.7601C62.6129 18.2401 62.5529 18.6601 62.4329 19.0801C62.3129 19.5601 62.1329 19.9201 61.9529 20.2201L61.5329 20.6401C61.4129 20.8201 61.3529 21.0001 61.3529 21.1201C61.2329 21.4801 61.1129 21.6601 60.9929 21.7801C60.8129 21.9001 60.6329 22.2001 60.4529 22.6201C60.3329 22.7401 60.2129 22.8601 60.0329 22.9801C59.7929 23.2201 59.6129 23.4001 59.4929 23.5801L59.3129 23.6401L59.1929 23.7601C58.9529 23.8801 58.8329 24.0001 58.7729 24.1801C58.6529 24.4201 58.5329 24.4801 58.2929 24.4801L58.1129 24.6601L57.7529 25.1401L57.3929 25.3801C56.7929 25.8601 56.1929 26.2801 55.5929 26.5801C54.9329 26.9401 54.2729 27.1801 53.6129 27.3601V28.3201ZM59.1929 12.9601L58.7729 13.1401C58.6529 13.2601 58.5929 13.2601 58.5929 13.2601L58.4129 13.4401C58.0529 13.8001 57.6929 14.2201 57.3329 14.6401C56.9129 15.1201 56.6729 15.4201 56.5529 15.6001L56.4929 16.0201C56.3729 16.3201 56.1929 16.6201 56.0729 16.9201C55.8929 17.2801 55.7729 17.5801 55.6529 17.8201C55.5329 18.1801 55.4129 18.4201 55.3529 18.6001C55.2329 18.8401 55.2329 18.9001 55.2329 18.9001C55.0529 19.6201 54.8729 20.3401 54.6329 21.1201C54.3929 21.9601 54.1529 22.9201 53.9729 24.0601L53.5529 24.9001L53.7329 25.1401L53.9129 25.0801L54.9329 24.6001C55.2929 24.4201 55.7729 24.1201 56.3129 23.7601C56.7929 23.4601 57.3929 22.9801 57.9929 22.3201L58.5329 21.9001C58.5929 21.8401 58.7129 21.7201 58.8929 21.4801C59.0129 21.3001 59.1929 21.0001 59.5529 20.5201C59.6729 20.2801 59.8529 20.0401 60.0329 19.7401C60.1529 19.5001 60.2729 19.3201 60.2729 19.2001L60.1529 19.0201C60.2129 18.9001 60.2729 18.8401 60.3329 18.7201C60.3329 18.6601 60.3929 18.6001 60.4529 18.4801L60.6329 18.1201V17.7601L60.7529 16.9201C60.7529 16.1401 60.6929 15.4801 60.5729 14.8801C60.3929 14.3401 60.2129 13.8001 59.9729 13.2001C59.8529 13.0801 59.7329 12.9601 59.6129 12.9601H59.1929ZM75.8775 0.060077C75.9375 0.060077 76.0575 7.77245e-05 76.1775 7.77245e-05C76.2975 7.77245e-05 76.3575 0.120076 76.3575 0.300077C76.3575 0.480075 76.3575 0.600077 76.4175 0.720076V1.20008V1.50008L76.6575 1.86008L76.5975 2.10008C76.5975 2.52008 76.5975 2.82008 76.7175 3.00007C76.7775 3.24008 76.8375 3.54008 76.8375 3.78008C76.8375 4.62008 76.7775 5.16008 76.6575 5.52008C76.5375 5.88008 76.3575 6.24008 76.1175 6.54008V6.84008C76.1175 6.96008 76.1775 7.02008 76.1775 7.14008C76.1175 7.26008 76.1175 7.38008 76.1775 7.50008C76.0575 7.98008 75.9375 8.58008 75.8175 9.24008C75.5775 9.96008 75.4575 10.5001 75.3975 10.9201C75.1575 11.8801 74.9175 12.8401 74.7975 13.6801C74.5575 14.5801 74.4375 15.3001 74.3775 15.8401C74.3175 16.0801 74.3175 16.3801 74.3175 16.6201C74.2575 16.9201 74.1975 17.2201 74.1975 17.5801C74.1375 17.8801 74.0775 18.1801 74.0775 18.5401C74.0175 18.9601 74.0175 19.2001 74.0175 19.3201L73.8975 20.1001C73.8975 20.3401 73.8375 20.5801 73.8375 20.8801C73.7175 21.2401 73.7175 21.5401 73.7775 21.8401V26.6401C73.7775 26.8201 73.7775 27.0601 73.8375 27.3601C73.8375 27.7201 73.8375 28.1401 73.8975 28.5601C73.8975 29.0401 73.9575 29.4601 74.0775 29.8801C74.0775 30.3601 74.1375 30.7201 74.1975 31.0801C74.1975 31.3801 74.2575 31.6201 74.3175 31.8001C74.3175 32.0401 74.3775 32.2801 74.4375 32.4001C74.4375 32.5801 74.4975 32.7601 74.5575 32.8801V33.2401L74.7975 33.4801C74.8575 33.6601 74.9175 33.9001 74.9175 34.1401C74.9175 34.5601 74.7975 34.8601 74.5575 35.0401C74.3175 35.2801 74.1975 35.6401 74.1975 36.0001C74.1975 36.1801 73.9575 36.4201 73.5975 36.7801C73.1175 37.2001 72.5175 37.3801 71.7375 37.3801C71.2575 37.3801 70.9575 37.2001 70.7175 36.8401C70.4775 36.4801 70.2375 36.1201 70.0575 35.6401C69.8175 35.1601 69.6975 34.6201 69.5775 33.9001C69.5175 33.7801 69.5175 33.5401 69.5175 33.2401L69.3975 32.0401V31.5601C69.2775 31.3201 69.2775 31.0801 69.2775 30.7801C69.2175 30.5401 69.1575 30.3001 69.1575 30.0001C69.0375 30.2401 68.9175 30.4201 68.7975 30.5401C68.6775 30.7201 68.5575 30.8401 68.5575 30.8401L67.8975 31.6801L67.5375 32.1001L66.9375 32.6401C66.7575 32.8201 66.6375 32.9401 66.5775 33.0601C66.4575 33.2401 66.3375 33.3601 66.2175 33.4201C66.0975 33.5401 65.7975 33.6601 65.4375 33.7201C65.2575 33.7801 65.1375 33.8401 65.1375 33.8401C65.0175 33.9001 64.8975 33.9001 64.6575 33.9001C64.5375 33.9001 64.4775 33.9001 64.2375 33.7801C64.0575 33.7801 63.9375 33.6001 63.8775 33.3001C63.8775 32.9401 63.9975 32.5801 64.2975 32.2801L65.0775 31.6201L65.4975 31.1401C65.6175 30.9601 65.8575 30.7201 66.2175 30.3601C66.5175 30.1201 66.8175 29.7001 67.1775 29.2201C67.7175 28.3801 68.1375 27.6001 68.4375 26.8801C68.6775 26.1601 68.9775 25.5001 69.2175 24.9001V24.2401C69.2175 24.0601 69.2175 23.8801 69.2775 23.6401C69.2775 23.1601 69.3375 22.7401 69.3975 22.2601C69.3975 21.8401 69.3975 21.4201 69.5175 20.9401L69.8175 19.8601L69.6975 19.3201L69.8775 18.9001L70.1175 18.7201L69.9375 17.8201C70.0575 16.9201 70.2375 16.1401 70.3575 15.4801C70.4175 14.8801 70.5375 14.1601 70.7775 13.3201L70.9575 12.6601L71.0775 12.1801C71.2575 11.8801 71.3775 11.4601 71.3775 10.9201C71.3175 10.4401 71.4375 9.90008 71.6775 9.42008C71.8575 9.00008 72.0375 8.40008 72.2175 7.62008C72.3375 6.90008 72.4575 6.36008 72.6975 6.06007C72.8175 5.94008 72.9375 5.64008 73.0575 5.22007C73.1775 4.86008 73.2975 4.44008 73.4175 3.96008C73.4775 3.60008 73.5375 3.24008 73.6575 2.88008C73.7175 2.58008 73.7775 2.40008 73.7775 2.40008C73.7775 2.04008 73.9575 1.62007 74.4375 1.20008C74.7975 0.840078 75.0375 0.540078 75.0975 0.420076L75.2775 0.240075C75.3975 0.240075 75.5175 0.180075 75.6375 0.120076C75.6975 0.120076 75.7575 0.120076 75.8775 0.060077ZM97.1246 34.3201L96.5846 35.1001C96.3446 35.3401 96.1046 35.5201 95.8046 35.6401C94.9646 36.1201 94.1246 36.4201 93.4046 36.4801C92.5646 36.6001 91.8446 36.6601 91.1846 36.6601L90.6446 36.7801C90.4646 36.7801 90.3446 36.7801 90.2846 36.7201H89.6246H88.9646L87.2846 36.3001L86.9246 36.0001H86.2646C86.2046 36.0001 86.1446 36.0001 86.0846 35.9401C85.9646 35.9401 85.9046 35.8801 85.8446 35.8201C85.7246 35.8201 85.6646 35.7601 85.6046 35.6401C85.4246 35.6401 85.2446 35.6401 85.1246 35.5201C85.0046 35.5201 84.9446 35.4601 84.8846 35.3401L84.6446 35.1001C84.5246 35.0401 84.4646 34.9801 84.3446 34.8601C84.2246 34.8601 84.0446 34.8001 83.9246 34.6801C83.7446 34.5001 83.5646 34.3201 83.4446 34.1401C83.2646 34.0201 83.0846 33.9001 82.9646 33.7201C82.9646 33.5401 82.9046 33.4201 82.7846 33.3001C82.6046 33.2401 82.4246 33.1201 82.3046 33.0001C82.0646 32.8201 82.0046 32.5201 82.0046 32.1001C81.9446 31.7401 81.9446 31.2601 81.9446 30.7201L81.6446 30.0601C81.6446 29.8201 81.6446 29.5201 81.7046 29.2201C81.7046 28.9801 81.7646 28.7401 81.8246 28.4401C81.9446 27.5401 82.1246 26.7001 82.4246 25.9201C82.6646 25.2001 82.9046 24.5401 83.2646 23.8801C83.5646 23.2801 83.9246 22.6201 84.2846 22.0201C84.5846 21.4201 84.8846 20.8201 85.2446 20.1601C85.4246 19.9201 85.6046 19.7401 85.7846 19.5601C85.9046 19.4401 86.1446 19.2601 86.3846 19.0201C86.5646 18.7801 86.9246 18.3601 87.4046 17.8801C87.8846 17.4001 88.2446 17.1001 88.5446 16.8601L89.0846 16.5001C89.2046 16.5001 89.3246 16.3801 89.5646 16.2001C89.6846 16.0801 89.9246 15.9001 90.2246 15.7801C90.4646 15.6601 90.6446 15.6001 90.8846 15.4801C91.0046 15.4201 91.1846 15.3601 91.4246 15.3001C91.6046 15.3001 91.8446 15.3001 92.0846 15.1801C92.2046 15.1801 92.3846 15.1201 92.5046 15.0001C92.6246 15.0001 92.8046 14.9401 93.1646 14.9401C93.3446 14.9401 93.5246 15.0001 93.7046 15.0601C93.8246 15.1801 93.9446 15.2401 94.1846 15.2401C94.3046 15.3001 94.4246 15.3601 94.4846 15.4201C94.4846 15.5401 94.6046 15.7201 94.8446 15.9001C94.8446 15.9601 94.9046 16.0201 94.9646 16.0801C94.9646 16.2001 95.0246 16.2601 95.0846 16.2601C95.0846 16.3801 95.0846 16.4401 95.1446 16.5001C95.3246 16.9801 95.4446 17.4001 95.5046 17.8201V18.6601V19.6801C95.5046 19.9201 95.4446 20.2201 95.3846 20.4601C95.2646 20.8201 95.0846 21.0601 94.8446 21.3001C94.7246 21.4201 94.6046 21.4201 94.6046 21.4201C94.4846 21.4801 94.3646 21.4801 94.1846 21.4801C93.8846 21.4801 93.7046 21.3601 93.6446 21.1201C93.5246 20.9401 93.4646 20.7001 93.4646 20.4001C93.4646 20.0401 93.5246 19.6201 93.6446 19.1401C93.6446 19.0801 93.7046 18.9601 93.7646 18.8401C93.7646 18.7801 93.8246 18.6601 93.8246 18.5401V18.2401C93.6446 17.7001 93.4046 17.3401 93.1046 17.1601C92.7446 17.0401 92.3246 17.0401 91.8446 17.1001C91.3646 17.2201 91.0646 17.3401 90.8246 17.4601C90.5246 17.7001 90.3446 17.8201 90.2246 17.8801C89.8646 18.2401 89.6246 18.5401 89.5046 18.8401C89.3246 18.9601 89.2046 19.0801 89.1446 19.1401C89.0246 19.2601 88.9646 19.3801 88.9046 19.5001C88.7846 19.7401 88.7246 19.8601 88.6646 19.8601C88.5446 19.9201 88.5446 20.0401 88.5446 20.1601C88.3646 20.5201 88.1846 20.8201 88.0646 21.1201C87.8846 21.4801 87.7046 21.8401 87.5846 22.1401C87.4046 22.5001 87.2846 22.8001 87.2846 23.1601C87.2246 23.5201 87.1046 23.9401 86.9246 24.4201L86.4446 25.0201L86.6246 25.4401C86.6246 25.6801 86.5646 25.8601 86.4446 25.9801C86.3246 26.2201 86.2646 26.4601 86.2646 26.7601V27.7801C86.2646 28.1401 86.2646 28.3801 86.3246 28.5601C86.3246 28.8001 86.3846 28.9801 86.5046 29.2201L86.7446 30.0601L86.9246 30.3601C86.9846 30.6001 87.0446 30.7201 87.1046 30.8401C87.1046 31.0201 87.1646 31.2001 87.2846 31.3201C87.2846 31.3801 87.3446 31.4401 87.4646 31.5601C87.5246 31.6801 87.5846 31.7401 87.7046 31.8601C87.7046 32.0401 87.7646 32.2201 87.8846 32.3401C88.1246 32.8201 88.4246 33.1801 88.9046 33.4201C89.2646 33.7801 89.7446 34.0201 90.2246 34.1401C90.7046 34.3801 91.1846 34.5001 91.6646 34.5601C92.0846 34.6801 92.4446 34.6801 92.8046 34.6801C93.1646 34.6801 93.4046 34.6801 93.6446 34.6201C93.7646 34.6201 94.0646 34.5601 94.4846 34.4401C94.6646 34.4401 94.9046 34.3201 95.2646 34.2001C95.5646 34.0801 95.8646 33.9601 96.2246 33.8401C96.4646 33.7801 96.6446 33.7801 96.8246 33.9001C96.9446 34.0201 97.0646 34.1401 97.1246 34.3201ZM113.403 14.7001C113.883 15.0601 114.303 15.5401 114.663 16.1401C115.383 17.3401 115.743 19.0201 115.743 21.1801L115.563 22.0201V22.6201L115.503 23.3401L115.323 24.1201L115.023 24.7201L114.723 25.3801C114.243 26.5801 113.763 27.6601 113.283 28.5601L111.663 31.1401L111.243 31.9201L110.583 32.5201L109.743 33.6601L109.383 34.2001L108.843 34.5601C108.423 34.5601 108.183 34.6801 108.123 34.9201C108.003 35.2201 107.763 35.4001 107.523 35.4601C107.283 35.5801 107.043 35.6401 106.803 35.7001C106.503 35.8201 106.203 35.8801 105.963 35.8801C104.763 35.8801 103.803 35.5801 102.963 34.9801C102.723 34.8001 102.483 34.6201 102.243 34.3801C102.003 34.2601 101.763 34.0201 101.583 33.6601C101.463 33.5401 101.463 33.4201 101.463 33.1801C101.463 33.0601 101.403 32.8801 101.343 32.7601C101.223 32.6401 101.223 32.5201 101.223 32.3401C101.163 32.2201 101.103 32.1001 101.103 31.9801C100.983 31.7401 100.863 31.4401 100.863 31.0801C100.803 30.8401 100.743 30.4801 100.683 30.0001C100.623 29.8801 100.623 29.6401 100.683 29.4001C100.683 29.1601 100.743 28.9801 100.743 28.8001C100.743 28.6801 100.743 28.6201 100.803 28.5001C100.803 28.5001 100.863 28.3201 100.923 28.0201C100.923 27.9601 100.923 27.8401 100.983 27.7201C100.983 27.6601 101.043 27.6001 101.103 27.4801L101.223 27.0001L101.283 26.1001L101.403 25.5001C101.523 25.1401 101.643 24.8401 101.763 24.6001C101.763 24.4201 101.883 24.1201 102.063 23.7001L102.363 22.8001L102.603 22.2601C102.723 22.1401 102.783 21.9601 102.903 21.7801C102.963 21.6601 103.083 21.3001 103.263 20.7601C103.383 20.2201 103.563 19.6801 103.863 19.0801C104.103 18.5401 104.343 18.1801 104.703 17.9401L105.183 16.9201C105.303 16.6801 105.423 16.6201 105.543 16.6201C105.663 16.6801 105.783 16.6201 106.023 16.4401L106.803 15.8401L107.523 15.6001C107.763 15.5401 107.883 15.4801 108.003 15.4801C108.063 15.4801 108.183 15.4801 108.423 15.5401C108.543 15.6601 108.663 15.9001 108.663 16.2001V16.4401C108.603 16.5601 108.543 16.6801 108.423 16.7401C107.823 17.3401 107.283 18.0001 106.923 18.7201C106.503 19.5601 106.143 20.3401 105.903 21.0601C105.603 21.9001 105.363 22.6201 105.243 23.2801C105.063 24.0001 104.943 24.6001 104.883 25.0801C104.823 25.5001 104.823 25.8601 104.823 26.1601C104.763 26.5201 104.703 26.8801 104.703 27.3001L104.523 27.9601L104.703 28.2001C104.703 28.4401 104.703 28.6801 104.763 28.8601C104.763 29.1001 104.763 29.3401 104.883 29.5801C104.883 30.3001 105.003 31.0201 105.243 31.6801C105.423 32.4001 105.603 32.8801 105.843 33.1201L106.203 33.3001C106.803 33.3001 107.343 33.1801 107.703 32.8201L108.423 32.0401L109.083 31.0801C109.203 30.9001 109.323 30.7201 109.563 30.4801C109.743 30.3601 109.863 30.1801 109.983 30.0601L110.163 29.7001L110.643 28.9801C111.243 28.0801 111.843 27.0601 112.443 25.9201C112.923 24.8401 113.283 23.7601 113.523 22.6801C113.763 21.4801 113.823 20.2801 113.703 19.2001C113.523 18.1801 113.223 17.4001 112.803 16.8001C112.683 16.6801 112.503 16.5601 112.383 16.4401C112.143 16.3801 112.023 16.3201 111.963 16.3201C111.663 16.3201 111.423 16.3801 111.243 16.5601L110.703 17.1001C110.523 17.2801 110.403 17.4601 110.403 17.5801C110.283 17.8201 110.223 17.9401 110.103 17.9401C109.923 18.0601 109.743 18.0601 109.623 18.0601C109.503 18.0601 109.503 18.0601 109.503 17.9401C109.443 17.9401 109.383 17.8801 109.323 17.8201C109.203 17.7601 109.143 17.7001 109.083 17.6401C108.963 17.6401 108.963 17.5801 108.963 17.4601C108.903 17.3401 108.903 17.2201 108.963 17.1001V16.8001C108.963 16.2001 109.383 15.7201 110.223 15.2401C110.343 15.1801 110.643 15.0001 111.063 14.7001C111.423 14.4601 111.663 14.2801 111.903 14.2801H112.263C112.383 14.2801 112.443 14.3401 112.563 14.3401L113.403 14.7001ZM128.828 23.4601L129.188 22.7401C129.248 22.5601 129.308 22.4401 129.368 22.3201C129.548 21.8401 129.668 21.5401 129.728 21.4201C129.728 21.3601 129.848 21.1801 129.968 20.8801C130.028 20.7001 130.148 20.5201 130.328 20.3401C130.448 20.2201 130.508 20.1001 130.628 19.8601L130.868 19.3801C130.868 19.2601 130.988 19.0201 131.168 18.6601C131.288 18.3601 131.528 18.0001 131.768 17.6401C132.008 17.3401 132.188 17.0401 132.368 16.6801C132.488 16.3201 132.608 16.0201 132.848 15.7201C133.028 15.4801 133.268 15.2401 133.568 14.9401C133.808 14.6401 134.108 14.2801 134.468 13.8001C134.768 13.3801 135.248 13.1401 135.908 13.1401C136.328 13.1401 136.688 13.3201 136.988 13.6201C137.228 13.9801 137.528 14.4001 137.768 14.8201C137.888 15.0601 137.948 15.3601 138.008 15.6601C138.008 16.0201 138.068 16.3201 138.188 16.5601C138.248 16.9201 138.308 17.1001 138.428 17.2201C138.428 17.4001 138.488 17.5801 138.488 17.7001L138.428 18.1801L138.488 18.6001C138.548 18.9601 138.608 19.3801 138.608 19.7401V21.2401L138.488 21.6001L138.548 21.9001V22.5001C138.548 22.8601 138.608 23.2801 138.668 23.7601C138.668 24.3001 138.668 24.8401 138.728 25.3801V27.0001V28.2601L139.568 26.7601L140.108 25.6801L141.128 23.5201L141.308 23.2801C141.608 22.6801 141.848 22.2001 141.968 21.9001C142.088 21.6601 142.268 21.3001 142.508 20.7601C142.688 20.3401 142.988 19.7401 143.348 19.0201L144.128 17.2201C144.248 16.8601 144.428 16.5001 144.668 16.1401C144.788 15.7801 144.968 15.4201 145.148 15.0001C145.268 14.7601 145.388 14.5201 145.628 14.3401C145.808 14.2201 146.108 14.1001 146.528 14.1001C146.828 14.1001 147.068 14.2201 147.188 14.4601C147.248 14.7601 147.428 14.8801 147.728 14.8801L147.788 15.0001L147.968 15.1201C148.028 15.5401 148.148 15.9001 148.388 16.2001C148.568 16.5601 148.748 16.9801 148.868 17.3401L149.048 18.6001C149.168 19.0801 149.228 19.5601 149.348 19.9801C149.348 20.4601 149.408 20.9401 149.528 21.3601L149.408 22.6801L149.348 23.0401C149.348 23.2801 149.468 23.7001 149.588 24.4201C149.588 24.6601 149.648 25.0201 149.708 25.5001C149.708 26.0401 149.768 26.5801 149.828 27.1201C149.828 27.7201 149.828 28.2601 149.888 28.8001V30.1801C149.888 31.7401 149.828 32.8801 149.768 33.4801C149.648 34.2001 149.588 34.6801 149.528 34.9201L148.868 36.5401C148.508 36.8401 148.268 37.0201 148.148 37.0201C147.968 37.1401 147.788 37.1401 147.668 37.1401C147.308 37.1401 147.068 37.2001 146.888 37.3201C146.648 37.5001 146.528 37.5601 146.468 37.5001C146.228 37.5001 146.048 36.9001 145.928 35.7001C145.808 34.5601 145.628 33.1201 145.508 31.4401V30.9001C145.448 30.7801 145.448 30.6001 145.448 30.4201L145.508 29.7601L145.388 29.2201L145.328 28.5601C145.328 28.2601 145.268 28.0801 145.268 27.9601C145.208 27.9001 145.208 27.7201 145.208 27.3601C145.208 27.0601 145.208 26.8201 145.268 26.7001C145.268 26.6401 145.208 26.4601 145.148 26.2201C145.088 26.1001 145.088 25.9201 145.088 25.7401V25.4401V23.8201C145.028 23.2201 145.028 22.5601 145.028 21.9601V21.2401C145.028 20.8801 144.968 20.6401 144.968 20.5201L144.188 22.1401L143.828 22.8601L143.228 24.0001L142.088 26.4001L141.548 27.6001L140.768 29.1001L139.748 31.0201L139.148 32.2801L138.608 33.6001L138.128 34.5001L137.468 35.0401L137.108 35.8801L136.568 36.2401C136.268 36.5401 136.088 36.8401 136.028 37.0801C135.908 37.4401 135.608 37.5601 135.188 37.5601C134.708 37.5601 134.468 37.3801 134.468 37.0201C134.468 36.9001 134.468 36.7801 134.528 36.6601V36.1801C134.528 36.0001 134.468 35.8201 134.468 35.5801C134.348 35.4001 134.348 35.2201 134.348 35.1001C134.348 34.9801 134.348 34.7401 134.408 34.3201C134.408 33.9601 134.468 33.4801 134.528 32.7601L134.708 31.6201L134.588 30.7801V30.1201V24.0601L134.708 23.6401L134.588 23.0401L134.768 22.6201L134.648 21.7201L134.588 21.2401L134.648 21.1201L134.768 20.4001L134.588 19.9801L134.708 19.4401V17.2801C133.748 18.9001 132.968 20.2801 132.428 21.3601C131.828 22.5001 131.468 23.3401 131.288 23.8801L130.868 25.0201C130.748 25.1401 130.688 25.3201 130.568 25.5601C130.448 25.8001 130.328 26.0401 130.268 26.2801L129.968 26.8801C129.848 27.1201 129.848 27.2401 129.848 27.2401L129.788 27.9001L129.848 28.3201C129.728 28.5601 129.608 28.8601 129.548 29.1601C129.428 29.5201 129.308 29.9401 129.248 30.3001C129.128 30.7201 129.008 31.0801 128.948 31.4401C128.828 31.8001 128.768 32.1001 128.768 32.3401L128.468 33.0001L128.528 33.4801V34.2001L128.348 34.7401C127.808 35.2201 127.268 35.5201 126.788 35.7001C126.248 35.9401 125.648 36.1201 124.988 36.1801C124.628 36.2401 124.508 36.1201 124.508 35.8801C124.448 35.7001 124.448 35.5201 124.448 35.2801V34.1401L124.628 33.7801L124.568 32.7001L124.748 32.4001L124.628 31.7401L124.748 31.1401L124.808 30.4201L124.988 29.7001V28.3801C124.988 27.7801 125.108 27.1801 125.228 26.5801C125.288 25.9801 125.348 25.0801 125.348 23.8201V23.5201C125.408 23.2801 125.468 22.9801 125.528 22.6801C125.528 22.4401 125.528 22.0801 125.648 21.7201C125.588 21.2401 125.588 20.7001 125.588 20.1001C125.588 19.6201 125.528 19.1401 125.468 18.6601C125.348 18.6601 125.288 18.6001 125.168 18.6001C124.928 18.6601 124.628 18.8401 124.208 19.1401L123.128 19.9801L122.828 20.1001L122.408 20.8201C122.168 21.0001 121.988 21.1801 121.808 21.3601C121.568 21.6001 121.388 21.8401 121.208 22.0801C121.028 22.3201 120.908 22.4401 120.848 22.5001C120.668 22.6201 120.488 22.6801 120.308 22.6801C120.068 22.8001 119.888 22.8001 119.768 22.6801L119.708 22.3801C119.588 22.2601 119.528 22.1401 119.468 22.0201C119.348 21.9001 119.288 21.7801 119.288 21.6001C119.288 21.4201 119.408 21.1201 119.768 20.7001L120.608 19.7401L121.388 19.0201C121.688 18.7201 121.928 18.5401 122.168 18.4201C122.288 18.3601 122.468 18.2401 122.708 18.0001L123.368 17.5801L123.968 17.0401L124.568 16.8001L125.168 16.4401C125.408 16.3801 125.708 16.3201 126.128 16.3201C126.488 16.3201 126.728 16.3801 126.968 16.4401C127.148 16.5601 127.328 16.6201 127.448 16.6201C127.508 16.7401 127.568 16.8001 127.688 16.9201C128.048 17.7601 128.348 18.6001 128.528 19.5001C128.648 20.4601 128.768 21.4201 128.768 22.4401V23.3401L128.828 23.4601ZM161.953 28.3201C161.953 28.8001 161.953 29.2201 162.013 29.5201V30.7201L162.133 31.0801C162.133 31.2601 162.133 31.4401 162.253 31.6201C162.253 31.8601 162.313 32.0401 162.373 32.2201C162.433 32.4601 162.553 32.8801 162.793 33.5401C162.973 34.2601 163.393 34.9201 164.053 35.6401C164.233 35.9401 164.593 36.2401 165.193 36.4801C165.733 36.7801 166.273 36.9001 166.873 36.9001C167.293 36.9001 167.533 36.9001 167.653 36.8401C167.893 36.7801 168.073 36.8401 168.073 36.9601C168.073 37.0801 168.133 37.2601 168.133 37.3801C168.133 37.5601 168.073 37.6801 168.073 37.6801C167.953 37.8001 167.833 37.9201 167.833 37.9801C167.773 38.1001 167.653 38.2201 167.533 38.2801C167.293 38.4001 167.113 38.5201 166.993 38.5801C166.873 38.6401 166.633 38.7001 166.393 38.8201H166.153C166.033 38.7601 165.973 38.7601 165.973 38.7601C165.853 38.7601 165.853 38.7001 165.853 38.7001C165.733 38.7001 165.673 38.7601 165.553 38.9401C165.433 39.0601 165.253 39.1201 165.133 39.1201C164.773 39.1201 164.533 39.0601 164.293 39.0001L163.933 39.1201L162.433 38.4601C162.433 38.4601 162.373 38.4001 162.373 38.3401C162.313 38.3401 162.253 38.2801 162.253 38.1601L161.653 38.2801C161.593 38.2801 161.533 38.1601 161.473 38.0401C161.353 37.9801 161.233 37.8601 161.173 37.7401L160.753 37.3201C160.513 37.2001 160.273 36.9001 159.973 36.4201C159.613 36.0601 159.313 35.7001 159.073 35.3401C159.073 34.9201 158.953 34.5601 158.773 34.2601C158.533 34.0201 158.413 33.6601 158.413 33.3001L158.533 32.6401L158.233 32.1601V31.5001L158.173 30.7201C158.173 29.8801 158.233 28.9801 158.353 28.0201H158.293C157.753 28.0201 157.333 28.0201 157.093 27.9601C156.793 27.9601 156.493 27.9001 156.253 27.9001C155.773 27.9001 155.413 27.9001 155.233 27.8401C154.993 27.8401 154.753 27.7801 154.393 27.5401C154.153 27.4201 153.973 27.3001 153.853 27.0601C153.613 26.9401 153.493 26.7601 153.493 26.5201C153.493 25.9201 153.613 25.5001 153.913 25.3201L154.273 25.1401H154.813C154.933 25.1401 155.113 25.2001 155.353 25.2001C155.473 25.2601 155.653 25.3201 155.893 25.3801C156.733 25.6201 157.693 25.7401 158.773 25.7401C158.833 25.4401 158.893 25.0801 159.013 24.7201C159.073 24.4201 159.133 24.1201 159.253 23.7601L159.733 22.6801L160.273 20.3401C160.513 19.6801 160.753 19.0801 160.993 18.4801C161.233 18.0001 161.413 17.5201 161.653 17.0401L161.833 16.9201L161.953 16.8001C162.013 16.5001 162.073 16.3801 162.193 16.3801C162.193 16.4401 162.253 16.3801 162.373 16.2001L162.493 15.7801C162.493 15.7201 162.553 15.5401 162.793 15.2401C162.973 15.0001 163.213 14.7601 163.513 14.4001L164.293 13.4401C164.533 13.2001 164.713 12.9601 164.893 12.7801C165.373 12.3001 165.913 11.7601 166.513 11.2801C166.693 11.1601 166.873 11.0401 166.993 11.0401C167.053 11.0401 167.173 11.0401 167.413 10.9201C167.533 10.8601 167.773 10.8001 168.073 10.8001C168.193 10.8001 168.373 10.8601 168.613 10.9201C168.673 10.9801 168.733 10.9801 168.793 10.9201C168.793 10.9201 168.793 10.9801 168.913 11.0401C168.973 11.1601 169.093 11.2201 169.213 11.2801C169.273 11.4001 169.333 11.4601 169.453 11.5201C169.633 11.7601 169.753 11.9401 169.873 12.0601C169.873 12.2401 169.993 12.4201 170.173 12.5401C170.293 12.6601 170.353 12.8401 170.473 13.0801C170.533 13.3201 170.593 13.6201 170.713 13.9201L170.833 14.5201L170.893 14.7001L171.073 15.4801V15.9001L171.133 16.3801L171.073 17.1601L171.013 17.7601C170.953 18.2401 170.893 18.6601 170.773 19.0801C170.653 19.5601 170.473 19.9201 170.293 20.2201L169.873 20.6401C169.753 20.8201 169.693 21.0001 169.693 21.1201C169.573 21.4801 169.453 21.6601 169.333 21.7801C169.153 21.9001 168.973 22.2001 168.793 22.6201C168.673 22.7401 168.553 22.8601 168.373 22.9801C168.133 23.2201 167.953 23.4001 167.833 23.5801L167.653 23.6401L167.533 23.7601C167.293 23.8801 167.173 24.0001 167.113 24.1801C166.993 24.4201 166.873 24.4801 166.633 24.4801L166.453 24.6601L166.093 25.1401L165.733 25.3801C165.133 25.8601 164.533 26.2801 163.933 26.5801C163.273 26.9401 162.613 27.1801 161.953 27.3601V28.3201ZM167.533 12.9601L167.113 13.1401C166.993 13.2601 166.933 13.2601 166.933 13.2601L166.753 13.4401C166.393 13.8001 166.033 14.2201 165.673 14.6401C165.253 15.1201 165.013 15.4201 164.893 15.6001L164.833 16.0201C164.713 16.3201 164.533 16.6201 164.413 16.9201C164.233 17.2801 164.113 17.5801 163.993 17.8201C163.873 18.1801 163.753 18.4201 163.693 18.6001C163.573 18.8401 163.573 18.9001 163.573 18.9001C163.393 19.6201 163.213 20.3401 162.973 21.1201C162.733 21.9601 162.493 22.9201 162.313 24.0601L161.893 24.9001L162.073 25.1401L162.253 25.0801L163.273 24.6001C163.633 24.4201 164.113 24.1201 164.653 23.7601C165.133 23.4601 165.733 22.9801 166.333 22.3201L166.873 21.9001C166.933 21.8401 167.053 21.7201 167.233 21.4801C167.353 21.3001 167.533 21.0001 167.893 20.5201C168.013 20.2801 168.193 20.0401 168.373 19.7401C168.493 19.5001 168.613 19.3201 168.613 19.2001L168.493 19.0201C168.553 18.9001 168.613 18.8401 168.673 18.7201C168.673 18.6601 168.733 18.6001 168.793 18.4801L168.973 18.1201V17.7601L169.093 16.9201C169.093 16.1401 169.033 15.4801 168.913 14.8801C168.733 14.3401 168.553 13.8001 168.313 13.2001C168.193 13.0801 168.073 12.9601 167.953 12.9601H167.533ZM207.783 18.6001C207.663 18.6601 207.543 18.6601 207.363 18.6001C207.123 18.6001 206.943 18.6001 206.823 18.4801C206.643 18.4801 206.583 18.5401 206.583 18.5401C206.523 18.6001 206.463 18.6001 206.403 18.4801H205.023C204.603 18.6001 204.183 18.6601 203.823 18.6601C203.343 18.7801 202.983 18.8401 202.623 18.8401C202.263 18.9001 201.963 18.9601 201.783 18.9601C201.543 19.0201 201.423 19.0201 201.483 19.0201V19.6801L201.303 19.8601C201.123 20.0401 201.003 20.2201 201.003 20.3401L201.183 20.7601L201.063 21.2401L201.003 22.0801C200.883 22.4401 200.823 22.7401 200.703 23.1001C200.583 23.5201 200.463 23.9401 200.403 24.3001L200.283 25.2601L200.103 25.8001C200.103 25.8601 200.043 26.0401 200.043 26.3401C199.983 26.7001 199.923 27.0601 199.923 27.4201C199.803 27.9001 199.743 28.3201 199.683 28.7401C199.563 29.2201 199.503 29.5801 199.503 29.8801L199.203 31.3801L198.963 33.2401L198.903 33.7201L198.963 33.8401C198.843 34.0801 198.783 34.2001 198.723 34.2001C198.603 34.2601 198.543 34.3201 198.543 34.4401C198.483 34.7401 198.483 34.9201 198.543 34.9201V35.1601C198.543 35.2201 198.483 35.3401 198.483 35.5201C198.423 35.7601 198.363 36.0001 198.363 36.1801C198.303 36.4201 198.243 36.6601 198.183 36.8401C198.063 37.0801 198.003 37.3201 198.003 37.5001C197.883 37.7401 197.763 37.8601 197.643 37.9801C197.463 38.1001 197.403 38.2201 197.403 38.2801L196.923 38.5201L196.203 38.7001C195.903 38.7001 195.663 38.6401 195.483 38.5801C195.363 38.5801 195.183 38.5201 194.943 38.3401L194.463 37.3801L194.223 36.3001L194.463 35.8201L194.343 35.3401L194.283 34.8601V34.2601C194.163 34.0201 194.163 33.7801 194.223 33.5401V33.0601L194.343 32.7001L194.403 31.9201C194.523 31.8601 194.583 31.7401 194.583 31.6201C194.583 31.5001 194.583 31.3801 194.643 31.1401C194.703 30.5401 194.703 30.0001 194.703 29.6401C194.583 29.3401 194.583 28.9801 194.703 28.5601C194.823 28.3201 195.003 27.9001 195.123 27.3001C195.243 26.8201 195.363 26.2201 195.483 25.5001C195.603 24.9001 195.723 24.2401 195.843 23.5201C195.903 22.9201 196.023 22.3201 196.143 21.7201C196.203 21.3601 196.263 21.0001 196.383 20.6401C196.383 20.3401 196.443 20.0401 196.503 19.6801C196.383 19.7401 196.263 19.8001 196.143 19.8001C196.023 19.8601 195.903 19.9201 195.843 19.9201L191.343 20.5801C191.223 20.5801 191.163 20.5801 191.103 20.4601C190.983 20.4001 190.923 20.3401 190.863 20.3401C190.323 20.3401 189.963 20.4001 189.723 20.4001C189.423 20.4601 189.123 20.4601 188.883 20.3401C188.823 20.3401 188.703 20.1601 188.583 19.9201C188.403 19.7401 188.403 19.5601 188.403 19.3201C188.463 19.2601 188.763 19.1401 189.303 18.9001C189.783 18.7201 190.323 18.5401 190.923 18.4201C191.823 18.3001 192.783 18.1201 193.743 17.9401L196.683 17.5801V17.5201C196.743 17.0401 196.863 16.5001 197.103 15.7801C197.283 15.1801 197.463 14.2201 197.703 12.9601C197.763 12.8401 197.823 12.7201 197.943 12.6001C198.003 12.6001 198.063 12.4201 198.123 12.0601C198.003 12.0001 197.943 11.8801 197.943 11.7001C197.883 11.5801 197.883 11.5201 197.883 11.4001C197.883 11.2801 198.003 11.1001 198.183 10.9801C198.303 10.8601 198.363 10.6201 198.423 10.2001L198.243 9.90008C198.363 9.78008 198.543 9.42008 198.663 8.88008C198.783 8.40008 198.903 8.04008 199.143 7.68008C199.263 7.32008 199.503 6.96008 199.743 6.66008C199.983 6.42008 200.283 6.24008 200.763 6.12008C201.063 6.18008 201.363 6.30008 201.603 6.54008C201.783 6.84008 201.903 7.20008 202.023 7.62008L202.383 7.98008L202.263 9.06008C202.263 9.54008 202.323 9.90008 202.323 10.2601C202.263 10.6801 202.203 10.9801 202.203 11.2201C201.963 12.2401 201.843 13.2001 201.843 14.0401C201.783 14.9401 201.723 15.8401 201.603 16.8001H202.263C203.223 16.6801 204.063 16.6201 204.903 16.5001C205.683 16.4401 206.523 16.3801 207.483 16.3201C207.723 16.3201 208.023 16.3801 208.263 16.3801C208.443 16.5001 208.623 16.5001 208.743 16.5001C208.923 16.8001 208.983 17.0401 208.863 17.2201C208.743 17.4601 208.623 17.8201 208.503 18.1801L208.143 18.3601C208.023 18.4801 207.903 18.5401 207.783 18.6001ZM223.853 14.7001C224.333 15.0601 224.753 15.5401 225.113 16.1401C225.833 17.3401 226.193 19.0201 226.193 21.1801L226.013 22.0201V22.6201L225.953 23.3401L225.773 24.1201L225.473 24.7201L225.173 25.3801C224.693 26.5801 224.213 27.6601 223.733 28.5601L222.113 31.1401L221.693 31.9201L221.033 32.5201L220.193 33.6601L219.833 34.2001L219.293 34.5601C218.873 34.5601 218.633 34.6801 218.573 34.9201C218.453 35.2201 218.213 35.4001 217.973 35.4601C217.733 35.5801 217.493 35.6401 217.253 35.7001C216.953 35.8201 216.653 35.8801 216.413 35.8801C215.213 35.8801 214.253 35.5801 213.413 34.9801C213.173 34.8001 212.933 34.6201 212.693 34.3801C212.453 34.2601 212.213 34.0201 212.033 33.6601C211.913 33.5401 211.913 33.4201 211.913 33.1801C211.913 33.0601 211.853 32.8801 211.793 32.7601C211.673 32.6401 211.673 32.5201 211.673 32.3401C211.613 32.2201 211.553 32.1001 211.553 31.9801C211.433 31.7401 211.313 31.4401 211.313 31.0801C211.253 30.8401 211.193 30.4801 211.133 30.0001C211.073 29.8801 211.073 29.6401 211.133 29.4001C211.133 29.1601 211.193 28.9801 211.193 28.8001C211.193 28.6801 211.193 28.6201 211.253 28.5001C211.253 28.5001 211.313 28.3201 211.373 28.0201C211.373 27.9601 211.373 27.8401 211.433 27.7201C211.433 27.6601 211.493 27.6001 211.553 27.4801L211.673 27.0001L211.733 26.1001L211.853 25.5001C211.973 25.1401 212.093 24.8401 212.213 24.6001C212.213 24.4201 212.333 24.1201 212.513 23.7001L212.813 22.8001L213.053 22.2601C213.173 22.1401 213.233 21.9601 213.353 21.7801C213.413 21.6601 213.533 21.3001 213.713 20.7601C213.833 20.2201 214.013 19.6801 214.313 19.0801C214.553 18.5401 214.793 18.1801 215.153 17.9401L215.633 16.9201C215.753 16.6801 215.873 16.6201 215.993 16.6201C216.113 16.6801 216.233 16.6201 216.473 16.4401L217.253 15.8401L217.973 15.6001C218.213 15.5401 218.333 15.4801 218.453 15.4801C218.513 15.4801 218.633 15.4801 218.873 15.5401C218.993 15.6601 219.113 15.9001 219.113 16.2001V16.4401C219.053 16.5601 218.993 16.6801 218.873 16.7401C218.273 17.3401 217.733 18.0001 217.373 18.7201C216.953 19.5601 216.593 20.3401 216.353 21.0601C216.053 21.9001 215.813 22.6201 215.693 23.2801C215.513 24.0001 215.393 24.6001 215.333 25.0801C215.273 25.5001 215.273 25.8601 215.273 26.1601C215.213 26.5201 215.153 26.8801 215.153 27.3001L214.973 27.9601L215.153 28.2001C215.153 28.4401 215.153 28.6801 215.213 28.8601C215.213 29.1001 215.213 29.3401 215.333 29.5801C215.333 30.3001 215.453 31.0201 215.693 31.6801C215.873 32.4001 216.053 32.8801 216.293 33.1201L216.653 33.3001C217.253 33.3001 217.793 33.1801 218.153 32.8201L218.873 32.0401L219.533 31.0801C219.653 30.9001 219.773 30.7201 220.013 30.4801C220.193 30.3601 220.313 30.1801 220.433 30.0601L220.613 29.7001L221.093 28.9801C221.693 28.0801 222.293 27.0601 222.893 25.9201C223.373 24.8401 223.733 23.7601 223.973 22.6801C224.213 21.4801 224.273 20.2801 224.153 19.2001C223.973 18.1801 223.673 17.4001 223.253 16.8001C223.133 16.6801 222.953 16.5601 222.833 16.4401C222.593 16.3801 222.473 16.3201 222.413 16.3201C222.113 16.3201 221.873 16.3801 221.693 16.5601L221.153 17.1001C220.973 17.2801 220.853 17.4601 220.853 17.5801C220.733 17.8201 220.673 17.9401 220.553 17.9401C220.373 18.0601 220.193 18.0601 220.073 18.0601C219.953 18.0601 219.953 18.0601 219.953 17.9401C219.893 17.9401 219.833 17.8801 219.773 17.8201C219.653 17.7601 219.593 17.7001 219.533 17.6401C219.413 17.6401 219.413 17.5801 219.413 17.4601C219.353 17.3401 219.353 17.2201 219.413 17.1001V16.8001C219.413 16.2001 219.833 15.7201 220.673 15.2401C220.793 15.1801 221.093 15.0001 221.513 14.7001C221.873 14.4601 222.113 14.2801 222.353 14.2801H222.713C222.833 14.2801 222.893 14.3401 223.013 14.3401L223.853 14.7001ZM13.1998 95.2201L13.5598 95.5201C13.7398 95.6401 13.7998 95.8801 13.6798 96.2401L14.5198 97.4401C14.7598 97.9201 14.9398 98.5201 15.1798 99.1801C15.3598 99.9001 15.5398 100.68 15.6598 101.58C15.7798 102.54 15.8398 103.68 15.8398 105C15.8398 105.84 15.7798 106.56 15.7798 107.16C15.6598 107.82 15.5998 108.48 15.5398 109.14L15.2398 109.38L15.5398 109.5C15.3598 110.88 14.9998 112.38 14.5198 114L14.3398 114.9C14.1598 115.8 13.9198 116.64 13.6798 117.48C13.3198 118.32 13.0198 119.1 12.6598 119.76L12.2398 120.72L12.1798 121.38C11.9398 121.86 11.6998 122.28 11.4598 122.64C11.1598 123.06 10.8598 123.48 10.5598 123.84L10.1398 124.2L9.71981 124.86C9.59981 124.86 9.41981 124.8 9.2998 124.8C8.8198 124.8 8.51981 124.92 8.33981 125.16C8.09981 125.4 7.85981 125.52 7.61981 125.52C7.31981 125.52 7.0198 125.58 6.6598 125.7C6.2398 125.82 5.7598 125.88 5.15981 125.88C3.5998 125.88 2.57981 125.4 2.09981 124.44C1.4998 123.48 1.0198 121.98 0.659805 119.94C0.479805 119.58 0.359805 119.16 0.359805 118.68C0.239805 118.26 0.179805 117.72 0.119805 117C0.0598049 116.76 0.0598049 116.4 0.119805 116.04V115.14C0.119805 114.96 0.0598049 114.78 0.0598049 114.54C-0.000195205 114.36 -0.000195205 114.06 -0.000195205 113.64C-0.000195205 113.52 -0.000195205 113.4 0.0598049 113.28C0.0598049 113.22 0.119805 113.1 0.119805 112.86L-0.000195205 111.96L0.419805 110.76L0.299805 110.16C0.419805 108.84 0.719805 107.64 1.3198 106.56L1.1998 106.02L1.6198 105.66C1.7398 105.42 1.8598 105.06 2.09981 104.52C2.2198 104.04 2.4598 103.38 2.6998 102.54L3.0598 102.06L3.89981 100.56L4.6798 99.7201C4.7998 99.6001 4.97981 99.4201 5.2198 99.2401C5.3398 99.1201 5.51981 99.0001 5.7598 98.8801C6.2398 98.5801 6.5998 98.4001 6.83981 98.4001C6.95981 98.4001 7.0798 98.4001 7.31981 98.5201C7.4998 98.7001 7.61981 99.0001 7.61981 99.4801C7.61981 99.7201 7.5598 100.02 7.4998 100.38L7.1398 100.74C6.6598 101.22 6.29981 101.76 6.05981 102.24C5.6998 102.84 5.45981 103.38 5.2798 103.86C4.6798 105.66 4.4398 107.58 4.4398 109.68C4.4398 110.76 4.4398 111.78 4.55981 112.86C4.61981 113.94 4.73981 115.02 4.97981 116.04L4.8598 117L5.2198 117.36C5.3398 118.08 5.51981 118.68 5.6998 119.22C5.8198 119.82 6.05981 120.36 6.29981 120.78C6.35981 121.02 6.41981 121.2 6.53981 121.38C6.5998 121.62 6.6598 121.74 6.77981 121.86C6.83981 122.04 6.89981 122.1 6.95981 122.1C6.95981 122.16 6.95981 122.28 7.0798 122.4C7.79981 122.4 8.33981 122.22 8.69981 121.86C9.05981 121.56 9.3598 121.02 9.71981 120.24L10.3798 119.28C10.4398 118.98 10.5598 118.68 10.7998 118.38L11.1598 117.66L11.2798 117.18L11.5198 116.58C11.6398 116.46 11.7598 115.98 11.9998 115.2C12.1198 114.48 12.2998 113.7 12.5398 112.86C12.6598 112.02 12.8398 111.24 12.9598 110.52C13.0798 109.8 13.1398 109.38 13.1398 109.26L13.0798 108.84L13.3798 107.82C13.3798 107.7 13.4398 107.28 13.5598 106.68C13.6798 106.14 13.7398 105.54 13.7398 104.82C13.7398 103.5 13.6798 102.42 13.6198 101.58C13.4998 100.74 13.3798 100.08 13.2598 99.6001C13.0798 99.1201 12.9598 98.8201 12.8398 98.5801C12.6598 98.4601 12.5398 98.3401 12.4798 98.3401C12.1198 98.2801 11.8798 98.3401 11.7598 98.5201C11.5798 98.7601 11.4598 98.9401 11.3998 99.1201C11.2798 99.4201 11.1598 99.5401 10.9198 99.5401C10.7998 99.5401 10.6198 99.4801 10.3798 99.3601C10.1398 99.2401 9.95981 99.1201 9.89981 99.0001C9.83981 98.8801 9.7798 98.7601 9.7798 98.5201C9.65981 98.3401 9.65981 98.1601 9.65981 97.9801C9.65981 97.6801 9.7798 97.2601 10.1398 96.7801C10.3798 96.3001 10.7998 95.8201 11.3398 95.2201C11.5798 94.9201 11.9398 94.7401 12.4798 94.7401C12.6598 94.7401 12.8398 94.8001 13.0798 94.9201L13.1998 95.2201ZM35.9009 127.26L35.6009 126.54L35.7209 126.18L35.3609 125.52C35.3609 125.46 35.3609 125.34 35.3009 125.1C35.1809 124.92 35.1809 124.74 35.1809 124.62V123.96L35.0609 123.42C35.1209 123.42 35.1809 123.3 35.1809 123.12C35.1809 122.52 35.1809 122.04 35.0609 121.8C34.9409 121.56 34.8809 121.32 34.8809 120.96C34.8809 120.84 34.9409 120.6 35.0009 120.36C35.0009 120.18 35.0609 119.94 35.1209 119.64C34.5809 120.36 34.0409 121.02 33.5009 121.68C32.9009 122.4 32.5409 122.88 32.3609 123.06L32.0609 123.66L31.3409 124.44C31.2209 124.68 31.1009 124.86 30.9809 124.98C30.8009 125.22 30.6209 125.4 30.4409 125.64L29.7809 126.06L29.3609 126.6L29.0609 126.78L28.7009 127.02C28.5209 127.08 28.4009 127.14 28.2809 127.14C28.1009 127.2 27.9209 127.26 27.8009 127.26C27.2009 127.44 26.5409 127.56 25.9409 127.68C25.2809 127.8 24.5609 127.86 23.8409 127.86L23.2409 127.56C23.1209 127.44 23.0009 127.14 22.8209 126.78C22.5809 126.42 22.4009 126.12 22.2809 125.76L22.0409 125.28V124.98L21.9809 124.62C21.8609 124.5 21.8009 124.38 21.8009 124.14C21.7409 123.96 21.7409 123.66 21.7409 123.18C21.7409 123.06 21.6809 122.88 21.6209 122.64C21.5009 122.52 21.4409 122.34 21.4409 122.16C21.4409 121.86 21.4409 121.68 21.5009 121.68C21.5009 121.68 21.5609 121.56 21.5609 121.2C21.5609 121.08 21.5009 120.9 21.5009 120.72C21.4409 120.6 21.4409 120.42 21.4409 120.06C21.5009 118.86 21.6209 117.66 21.8009 116.46C21.9209 115.32 22.1609 114.18 22.4609 112.98L22.6409 112.62V111.96L22.9409 111.42C22.9409 111.24 23.0009 110.94 23.1209 110.58C23.1209 110.28 23.1809 109.98 23.3009 109.68C23.3609 109.38 23.4809 109.08 23.7209 108.78C23.9009 108.54 24.2009 108.3 24.6809 108.12C24.8609 108.06 25.0409 108 25.2809 107.88C25.4609 107.82 25.7009 107.76 25.9409 107.76C26.1809 107.76 26.3609 107.94 26.4809 108.24C26.5409 108.6 26.6009 109.02 26.6009 109.44V109.98C26.6009 110.34 26.5409 110.58 26.4209 110.76C26.3009 111 26.2409 111.24 26.2409 111.36L26.1209 112.44C26.0609 112.68 26.0609 112.8 26.0609 112.8C26.0009 112.86 26.0009 112.92 26.0009 112.98V113.76L25.8809 114.48C25.8809 114.84 25.8809 115.02 25.9409 115.14V115.86L25.7609 117V117.54L25.7009 117.96V118.26L25.8209 118.86L25.6409 119.46C25.7009 120.24 25.8209 121.14 25.9409 122.1C26.0009 123.18 26.1809 124.08 26.4809 124.86C26.6609 125.46 27.0209 125.58 27.6209 125.22C28.9409 124.14 30.3209 122.76 31.6409 121.08C32.9009 119.4 34.0409 117.78 35.1209 116.1V115.56C35.1209 115.44 35.1209 115.26 35.1809 115.02C35.1809 114.54 35.1209 114.18 35.1209 114.06C35.0609 113.94 35.0009 113.76 35.0009 113.46C35.0009 113.1 35.0609 112.8 35.1809 112.44C35.2409 112.2 35.3009 111.66 35.3009 110.88V110.4C35.3609 110.34 35.4209 110.28 35.4809 110.16C35.4809 110.16 35.5409 110.04 35.5409 109.86C35.5409 109.8 35.4809 109.68 35.4209 109.56C35.3009 109.5 35.3009 109.38 35.3009 109.26C35.3009 109.2 35.3009 109.08 35.4209 108.96C35.4809 108.9 35.5409 108.72 35.5409 108.48C35.5409 108.42 35.4809 108.3 35.3609 108.18C35.4809 108 35.6609 107.76 35.8409 107.4C35.9609 107.16 36.0809 106.86 36.2609 106.5C36.3809 106.26 36.5609 105.96 36.7409 105.72C36.8609 105.48 37.0409 105.3 37.2809 105.18C37.5809 105.18 37.8209 105.3 38.0609 105.42C38.1809 105.66 38.3609 105.9 38.6009 106.14L38.9009 106.38L39.0209 107.22C39.0809 107.7 39.1409 108.06 39.2009 108.36C39.2009 108.72 39.2009 108.96 39.2609 109.14C39.2609 109.62 39.3209 110.04 39.3809 110.4C39.3809 110.76 39.3809 111.12 39.4409 111.42C39.4409 111.78 39.4409 112.2 39.5009 112.56C39.5009 112.98 39.5009 113.46 39.5609 114L39.5009 115.08L39.6809 115.38L39.6209 115.74L39.5009 117.84V118.74L39.4409 119.16C39.3809 119.28 39.3809 119.52 39.5009 120C39.5009 120.54 39.5609 121.02 39.5609 121.44L39.5009 123.9L39.5609 124.38L39.3809 124.86C39.3809 125.22 39.3809 125.46 39.5009 125.46C39.5009 125.58 39.5009 125.76 39.3809 126.12C39.2609 126.48 39.1409 126.78 39.0209 127.08C38.9009 127.44 38.8409 127.62 38.8409 127.68L38.4209 127.92C38.1809 128.04 38.0009 128.04 37.7609 128.04C37.4609 128.1 37.2209 128.1 36.9809 128.1C36.8609 128.1 36.6809 128.04 36.5609 127.92L35.9009 127.26ZM47.5198 126.78L47.1598 126.18L47.2798 125.82L46.9798 125.46L46.7998 125.16C46.7998 125.1 46.7398 124.98 46.7398 124.74C46.6198 124.62 46.5598 124.5 46.4998 124.38L46.4398 124.02V123.72L46.3198 123.18C46.3798 123.18 46.4398 123.06 46.4398 122.94C46.3798 122.88 46.3798 122.76 46.3798 122.58C46.2598 122.16 46.1998 121.86 46.0798 121.62C45.9598 121.5 45.8998 121.26 45.8998 120.96C46.0198 120.54 46.0798 119.94 45.9598 119.16C45.8398 118.44 45.7198 117.66 45.6598 116.82V115.74C45.5998 115.44 45.5398 115.14 45.5398 114.78C45.4798 114.6 45.4198 114.48 45.4198 114.42C45.3598 114.42 45.2998 114.3 45.2398 114.06C45.2398 113.7 45.2398 113.22 45.2998 112.74C45.2998 112.32 45.2998 111.66 45.2398 110.76C45.2398 110.7 45.2998 110.64 45.4198 110.52V110.1C45.1798 110.04 45.1198 109.92 45.1198 109.68C45.1198 109.62 45.1198 109.5 45.2398 109.38C45.2998 109.32 45.2998 109.14 45.2998 108.84L45.0598 108.66C45.1798 108.6 45.2398 108.36 45.2398 107.94C45.2398 107.58 45.2398 107.34 45.3598 107.1C45.4198 106.8 45.5398 106.5 45.7198 106.26C45.8398 106.02 46.1398 105.84 46.6198 105.72C47.2198 105.72 47.6998 105.96 48.1198 106.56L48.4798 106.68L48.5998 107.34C48.7198 107.7 48.8398 107.94 48.8998 108.18C48.8998 108.48 48.9598 108.72 49.0798 108.84C49.0798 109.68 49.1998 110.46 49.4398 111.18C49.5598 111.9 49.6798 112.74 49.7998 113.58C49.7998 113.82 49.9198 113.94 50.0398 114.06C50.0998 114.18 50.1598 114.36 50.2798 114.54C50.1598 114.6 50.0998 114.66 50.0998 114.72C49.9798 114.84 49.9198 114.96 49.9198 115.08L50.1598 115.32V115.68L50.3398 116.22C50.3398 116.46 50.2798 116.7 50.2798 116.94C50.2198 117.24 50.2198 117.54 50.2798 117.78L50.3398 118.44V118.8C50.3398 118.92 50.3398 119.16 50.4598 119.64C50.4598 120.12 50.5198 120.6 50.6398 120.96V123.6L50.7598 123.66C50.6998 123.78 50.6398 123.9 50.6398 124.02C50.5798 124.2 50.5798 124.32 50.6398 124.38L50.5198 124.86L50.4598 125.52C50.3998 125.76 50.3398 125.94 50.3398 126.06C50.2198 126.24 50.1598 126.36 50.0998 126.42L49.9198 126.78L49.5598 127.2C49.3798 127.32 49.2598 127.32 49.1998 127.32C49.0798 127.38 48.9598 127.44 48.7798 127.44C48.6598 127.44 48.5998 127.44 48.4798 127.38C48.2998 127.38 48.1798 127.38 48.0598 127.44L47.5198 126.78ZM51.7198 114.54C51.5998 114.66 51.5998 114.84 51.6598 114.96C51.6598 115.2 51.7198 115.32 51.8398 115.44C51.8998 115.56 52.0198 115.62 52.1398 115.74C52.1998 115.86 52.3198 115.92 52.4398 115.86C52.6198 115.86 52.8598 115.74 53.2198 115.62C53.5198 115.5 53.7598 115.44 53.8798 115.32L54.0598 115.02L54.5998 114.48L54.8398 114L55.7398 113.52L56.3998 112.98L56.9398 112.56C57.4198 112.14 58.0798 111.72 58.7998 111.3C59.5198 110.94 59.9998 110.7 60.2398 110.64C60.4798 110.52 60.7798 110.46 61.0198 110.46L61.0798 109.98C61.1398 109.86 61.1398 109.74 61.0798 109.5C60.8998 109.32 60.7798 109.14 60.7198 108.96C60.5998 108.84 60.5398 108.84 60.4198 108.9L59.9998 109.02H59.6998L59.2198 109.14L58.8598 109.2C58.7398 109.26 58.5598 109.32 58.3198 109.38C58.0198 109.5 57.7798 109.68 57.5998 109.8L56.3998 110.58C55.9798 110.82 55.5598 111.12 55.1998 111.36L54.0598 112.2C53.5798 112.62 53.1598 112.98 52.7998 113.22C52.4398 113.58 52.0798 114 51.7198 114.54ZM82.8504 101.34C82.7904 101.34 82.7904 101.34 82.7904 101.28H82.6704C82.5504 101.34 82.3704 101.46 82.1904 101.58C81.9504 101.76 81.7704 101.94 81.6504 102.06C81.4704 102.3 81.3504 102.48 81.2904 102.6L81.1104 102.96L80.8704 103.02C80.6304 103.02 80.6304 103.2 80.7504 103.56C80.6904 103.68 80.6904 103.74 80.8104 103.8C80.8104 103.92 80.8704 104.04 80.8704 104.1C80.8104 104.34 80.8104 104.46 80.8104 104.52C80.7504 104.64 80.7504 104.82 80.8104 105.06L80.9904 105.42L80.9304 105.84C81.0504 106.44 81.1704 106.98 81.2304 107.4C81.2304 107.88 81.2904 108.3 81.3504 108.66C81.3504 109.08 81.3504 109.5 81.4104 109.92C81.4104 110.4 81.4104 111 81.5304 111.66C81.4104 111.78 81.4104 111.84 81.4704 111.9C81.4704 112.02 81.5304 112.14 81.5304 112.2C81.5904 112.44 81.6504 112.62 81.6504 112.8C81.6504 113.04 81.6504 113.28 81.7104 113.4C81.7704 114 81.7704 114.48 81.6504 114.78C81.4704 115.14 81.4104 115.38 81.5304 115.62C81.5304 115.74 81.5304 115.86 81.6504 115.98C81.7104 116.22 81.7704 116.46 81.8904 116.7V117.18C81.8304 117.42 81.8304 117.78 81.8904 118.26C81.8904 118.5 81.9504 118.62 82.1304 118.74C82.2504 118.86 82.3704 118.98 82.4304 119.1C82.4904 119.22 82.4304 119.28 82.3104 119.34C82.1304 119.46 82.0704 119.58 82.1304 119.7L82.3704 121.32L82.1904 121.98C82.1904 122.1 82.1904 122.16 82.3104 122.16C82.3104 122.28 82.3704 122.34 82.3704 122.4C82.3704 122.52 82.4904 122.76 82.6104 123.24C82.6704 123.72 82.7304 124.2 82.8504 124.62C82.8504 124.92 82.9104 125.1 82.9104 125.1C82.8504 125.22 82.7904 125.28 82.7304 125.4L82.9104 125.88L82.9704 126.06L83.0904 126.24C83.0904 126.36 83.0904 126.42 83.2104 126.48C83.2704 126.6 83.3304 126.84 83.4504 127.08L83.6904 127.44C83.9304 127.68 84.1104 127.8 84.2304 127.86C84.2904 127.98 84.5304 127.98 84.9504 127.86L86.0904 127.08C86.2704 126.96 86.5704 126.78 86.9904 126.6C87.3504 126.48 87.5304 126.24 87.5304 125.88C87.5304 125.7 87.5304 125.46 87.6504 125.22C87.7104 124.98 87.7704 124.86 87.8904 124.74L87.8304 122.1C87.8304 121.8 87.7704 121.38 87.6504 120.78C87.4704 120.24 87.3504 119.7 87.3504 119.1L86.6304 114.78V114.18L86.5704 113.76L86.3304 112.26L86.2104 111.84C86.1504 111.18 86.0904 110.46 86.0904 109.74C85.9704 109.08 85.9104 108.48 85.7904 107.88L85.3704 106.92C85.3104 106.56 85.2504 106.26 85.2504 105.9C85.1304 105.66 85.0704 105.3 85.0104 104.94L84.7704 104.64L84.8304 103.92C84.5904 103.08 84.2904 102.54 83.9904 102.24C83.6304 102 83.2704 101.7 82.8504 101.34ZM98.8704 127.2C98.7504 126.96 98.6904 126.72 98.6304 126.48C98.5104 126.24 98.4504 126 98.3904 125.76V125.46L98.2704 125.1C98.2704 124.98 98.2104 124.86 98.1504 124.74C98.0304 124.62 97.9704 124.5 97.8504 124.26L97.6704 123.84L97.4904 123.6C97.5504 123.36 97.5504 123.12 97.5504 122.94C97.4304 122.82 97.4304 122.58 97.4904 122.28L97.3704 121.86C97.1904 121.38 97.0104 120.9 96.8904 120.3C96.7104 119.82 96.5904 119.28 96.4704 118.74C96.3504 118.26 96.2304 117.84 96.1704 117.36C96.0504 116.94 95.9304 116.58 95.8704 116.34L95.9304 115.68L95.7504 115.38C95.4504 114.12 95.2104 112.98 95.0304 111.9C94.7904 110.94 94.6704 110.16 94.6104 109.56C94.4304 110.04 94.3104 110.52 94.1904 110.94C94.0704 111.42 93.8904 111.84 93.7104 112.26L93.5304 113.04L93.4104 113.46L93.1704 113.64V113.94C93.0504 114.18 92.9904 114.36 92.9304 114.6C92.8104 114.84 92.7504 115.14 92.6304 115.44C92.5104 115.8 92.3304 116.22 92.1504 116.7C91.9104 117.18 91.7304 117.78 91.4904 118.5L91.3104 119.1L91.2504 119.22C91.1904 119.22 91.1304 119.28 91.0704 119.34C90.9504 119.58 90.8304 119.82 90.7104 120.18C90.5304 120.54 90.4104 120.84 90.3504 121.02C90.2304 121.26 90.1104 121.38 90.1104 121.44C89.9904 121.56 89.9304 121.74 89.9304 122.04C89.9304 122.16 89.8704 122.16 89.8104 122.1H89.5104C89.3304 122.28 89.2104 122.34 89.1504 122.22C88.6104 121.98 88.4304 121.5 88.5504 120.78C88.5504 120.6 88.6104 120.3 88.7904 119.94C88.9104 119.58 88.9704 119.34 89.0904 119.1C89.0904 118.98 89.1504 118.8 89.2104 118.62C89.2104 118.5 89.2704 118.32 89.3304 118.14C89.7504 117.36 90.0504 116.64 90.2904 115.98C90.4104 115.38 90.5304 114.96 90.6504 114.72C90.7104 114.6 90.7704 114.36 90.8904 114.06C90.9504 113.82 91.0104 113.64 91.1304 113.4L91.3104 112.8L91.5504 112.26L91.6104 111.84C91.6704 111.6 91.7904 111.3 91.9704 110.82C92.0904 110.4 92.2104 110.1 92.2704 109.98L92.3304 109.32C92.7504 108.24 93.0504 107.22 93.1704 106.2L93.4104 105.72L93.4704 104.94C93.4704 104.7 93.5904 104.46 93.7704 104.1C93.8904 103.8 94.0104 103.56 94.1304 103.32C94.1904 103.26 94.2504 103.2 94.3704 103.2C94.3704 103.26 94.4304 103.26 94.5504 103.26C94.7304 103.32 94.9704 103.32 95.2104 103.26C95.3904 103.26 95.5704 103.2 95.8104 103.2C96.1104 103.32 96.2904 103.44 96.4104 103.56C96.4704 103.74 96.5304 103.92 96.5304 104.1C97.0104 104.82 97.3104 105.48 97.4304 106.08C97.6104 106.56 97.7304 106.86 97.7904 107.1C97.7904 107.4 97.9104 107.64 98.0904 107.88C98.2104 108.12 98.2704 108.3 98.3304 108.54C98.3304 108.84 98.3904 109.08 98.5104 109.32C98.6904 109.98 98.8704 110.58 99.0504 111.06C99.1704 111.6 99.2304 112.02 99.3504 112.32L99.2304 112.74L100.01 114.3C100.13 114.6 100.19 114.96 100.31 115.44C100.31 115.92 100.49 116.52 100.79 117.18C100.79 117.42 100.91 117.72 101.03 118.14C101.09 118.62 101.21 119.1 101.33 119.58C101.45 120.12 101.57 120.66 101.75 121.14C101.87 121.74 101.99 122.22 102.11 122.58L102.53 121.56L102.77 121.32L103.07 120.6L103.67 118.98C103.85 118.62 103.97 118.32 104.09 118.08C104.15 117.84 104.27 117.54 104.51 117.06L104.87 116.28L105.29 114.42L105.83 113.34C105.89 113.1 106.01 112.68 106.25 112.08C106.37 111.48 106.55 110.76 106.79 109.86C106.91 109.38 106.97 109.02 107.09 108.66C107.15 108.42 107.21 108.12 107.33 107.88C107.33 107.7 107.39 107.46 107.51 107.22C107.51 106.98 107.57 106.68 107.69 106.26L108.29 104.4C108.53 103.86 108.77 103.02 109.07 101.82C109.31 100.68 109.61 99.7201 109.85 98.8801C109.91 98.7601 110.03 98.5801 110.15 98.4001L110.45 98.1001L110.75 97.9801C110.87 97.9201 110.99 97.9201 111.17 97.9801C111.29 97.9801 111.47 98.1001 111.65 98.2201C111.77 98.4001 111.89 98.5201 112.01 98.6401C112.01 98.8201 111.95 99.0001 111.95 99.1201C111.89 99.3601 111.83 99.4801 111.83 99.5401C111.71 99.7801 111.71 99.8401 111.77 99.8401C111.77 99.9001 111.77 100.02 111.71 100.2C111.65 100.44 111.59 100.62 111.59 100.74C111.47 100.98 111.41 101.22 111.35 101.46C111.23 101.7 111.17 101.94 111.11 102.3C110.99 102.66 110.87 103.02 110.81 103.38C110.69 103.74 110.57 104.1 110.51 104.4C110.39 104.76 110.39 104.94 110.39 105.06C110.33 105.54 110.27 105.84 110.15 106.08C109.97 106.32 109.85 106.5 109.79 106.56L109.55 107.4L109.49 108.24C109.37 108.6 109.25 109.08 109.13 109.68C108.95 110.4 108.83 110.94 108.71 111.36L107.75 114.36C107.39 115.32 107.09 116.04 106.97 116.46L106.49 117.78L106.19 118.32L106.01 119.1C105.89 119.76 105.65 120.36 105.41 120.9L104.87 121.8L104.45 122.76C104.33 123.12 104.21 123.42 104.03 123.72C103.79 124.08 103.61 124.5 103.43 124.86L103.37 125.52L103.13 125.76C102.89 125.88 102.71 126.06 102.47 126.18C102.17 126.42 101.93 126.6 101.69 126.72C101.39 126.96 101.15 127.08 100.91 127.2C100.67 127.32 100.49 127.38 100.37 127.38L100.01 127.2C99.8304 127.26 99.7104 127.32 99.6504 127.32C99.5304 127.38 99.3504 127.38 99.1704 127.32C99.1104 127.32 98.9904 127.32 98.8704 127.2ZM120.263 118.32C120.263 118.8 120.263 119.22 120.323 119.52V120.72L120.443 121.08C120.443 121.26 120.443 121.44 120.563 121.62C120.563 121.86 120.623 122.04 120.683 122.22C120.743 122.46 120.863 122.88 121.103 123.54C121.283 124.26 121.703 124.92 122.363 125.64C122.543 125.94 122.903 126.24 123.503 126.48C124.043 126.78 124.583 126.9 125.183 126.9C125.603 126.9 125.843 126.9 125.963 126.84C126.203 126.78 126.383 126.84 126.383 126.96C126.383 127.08 126.443 127.26 126.443 127.38C126.443 127.56 126.383 127.68 126.383 127.68C126.263 127.8 126.143 127.92 126.143 127.98C126.083 128.1 125.963 128.22 125.843 128.28C125.603 128.4 125.423 128.52 125.303 128.58C125.183 128.64 124.943 128.7 124.703 128.82H124.463C124.343 128.76 124.283 128.76 124.283 128.76C124.163 128.76 124.163 128.7 124.163 128.7C124.043 128.7 123.983 128.76 123.863 128.94C123.743 129.06 123.563 129.12 123.443 129.12C123.083 129.12 122.843 129.06 122.603 129L122.243 129.12L120.743 128.46C120.743 128.46 120.683 128.4 120.683 128.34C120.623 128.34 120.563 128.28 120.563 128.16L119.963 128.28C119.903 128.28 119.843 128.16 119.783 128.04C119.663 127.98 119.543 127.86 119.483 127.74L119.063 127.32C118.823 127.2 118.583 126.9 118.283 126.42C117.923 126.06 117.623 125.7 117.383 125.34C117.383 124.92 117.263 124.56 117.083 124.26C116.843 124.02 116.723 123.66 116.723 123.3L116.843 122.64L116.543 122.16V121.5L116.483 120.72C116.483 119.88 116.543 118.98 116.663 118.02H116.603C116.063 118.02 115.643 118.02 115.403 117.96C115.103 117.96 114.803 117.9 114.563 117.9C114.083 117.9 113.723 117.9 113.543 117.84C113.303 117.84 113.063 117.78 112.703 117.54C112.463 117.42 112.283 117.3 112.163 117.06C111.923 116.94 111.803 116.76 111.803 116.52C111.803 115.92 111.923 115.5 112.223 115.32L112.583 115.14H113.123C113.243 115.14 113.423 115.2 113.663 115.2C113.783 115.26 113.963 115.32 114.203 115.38C115.043 115.62 116.003 115.74 117.083 115.74C117.143 115.44 117.203 115.08 117.323 114.72C117.383 114.42 117.443 114.12 117.563 113.76L118.043 112.68L118.583 110.34C118.823 109.68 119.063 109.08 119.303 108.48C119.543 108 119.723 107.52 119.963 107.04L120.143 106.92L120.263 106.8C120.323 106.5 120.383 106.38 120.503 106.38C120.503 106.44 120.563 106.38 120.683 106.2L120.803 105.78C120.803 105.72 120.863 105.54 121.103 105.24C121.283 105 121.523 104.76 121.823 104.4L122.603 103.44C122.843 103.2 123.023 102.96 123.203 102.78C123.683 102.3 124.223 101.76 124.823 101.28C125.003 101.16 125.183 101.04 125.303 101.04C125.363 101.04 125.483 101.04 125.723 100.92C125.843 100.86 126.083 100.8 126.383 100.8C126.503 100.8 126.683 100.86 126.923 100.92C126.983 100.98 127.043 100.98 127.103 100.92C127.103 100.92 127.103 100.98 127.223 101.04C127.283 101.16 127.403 101.22 127.523 101.28C127.583 101.4 127.643 101.46 127.763 101.52C127.943 101.76 128.063 101.94 128.183 102.06C128.183 102.24 128.303 102.42 128.483 102.54C128.603 102.66 128.663 102.84 128.783 103.08C128.843 103.32 128.903 103.62 129.023 103.92L129.143 104.52L129.203 104.7L129.383 105.48V105.9L129.443 106.38L129.383 107.16L129.323 107.76C129.263 108.24 129.203 108.66 129.083 109.08C128.963 109.56 128.783 109.92 128.603 110.22L128.183 110.64C128.063 110.82 128.003 111 128.003 111.12C127.883 111.48 127.763 111.66 127.643 111.78C127.463 111.9 127.283 112.2 127.103 112.62C126.983 112.74 126.863 112.86 126.683 112.98C126.443 113.22 126.263 113.4 126.143 113.58L125.963 113.64L125.843 113.76C125.603 113.88 125.483 114 125.423 114.18C125.303 114.42 125.183 114.48 124.943 114.48L124.763 114.66L124.403 115.14L124.043 115.38C123.443 115.86 122.843 116.28 122.243 116.58C121.583 116.94 120.923 117.18 120.263 117.36V118.32ZM125.843 102.96L125.423 103.14C125.303 103.26 125.243 103.26 125.243 103.26L125.063 103.44C124.703 103.8 124.343 104.22 123.983 104.64C123.563 105.12 123.323 105.42 123.203 105.6L123.143 106.02C123.023 106.32 122.843 106.62 122.723 106.92C122.543 107.28 122.423 107.58 122.303 107.82C122.183 108.18 122.063 108.42 122.003 108.6C121.883 108.84 121.883 108.9 121.883 108.9C121.703 109.62 121.523 110.34 121.283 111.12C121.043 111.96 120.803 112.92 120.623 114.06L120.203 114.9L120.383 115.14L120.563 115.08L121.583 114.6C121.943 114.42 122.423 114.12 122.963 113.76C123.443 113.46 124.043 112.98 124.643 112.32L125.183 111.9C125.243 111.84 125.363 111.72 125.543 111.48C125.663 111.3 125.843 111 126.203 110.52C126.323 110.28 126.503 110.04 126.683 109.74C126.803 109.5 126.923 109.32 126.923 109.2L126.803 109.02C126.863 108.9 126.923 108.84 126.983 108.72C126.983 108.66 127.043 108.6 127.103 108.48L127.283 108.12V107.76L127.403 106.92C127.403 106.14 127.343 105.48 127.223 104.88C127.043 104.34 126.863 103.8 126.623 103.2C126.503 103.08 126.383 102.96 126.263 102.96H125.843ZM152.248 92.3401C152.428 92.9401 152.608 93.4201 152.728 93.8401C152.848 94.3201 152.908 95.1001 153.028 96.0601C153.028 96.4801 153.028 96.7801 153.088 96.9001C153.088 97.1401 153.148 97.3801 153.268 97.6801L153.328 98.5801C153.328 99.0601 153.388 99.4201 153.448 99.6601C153.448 99.9601 153.448 100.26 153.508 100.62L153.388 101.94L153.508 102.72C153.448 103.56 153.448 104.34 153.448 105.12L153.268 107.58L153.328 108.18L153.088 110.28L153.148 111.12L153.088 111.9L152.668 117.78C152.548 118.62 152.488 119.28 152.488 119.76C152.428 120.36 152.368 120.9 152.308 121.38L152.008 124.56C151.888 124.8 151.768 125.04 151.708 125.22C151.588 125.46 151.528 125.64 151.528 125.76C151.468 126 151.468 126.12 151.468 126.24L151.408 126.36C151.468 126.72 151.348 127.08 151.108 127.5C150.748 127.98 150.508 128.4 150.328 128.64L148.948 129.42C148.588 129.48 148.348 129.48 148.288 129.36C148.168 129.18 148.048 128.94 147.928 128.64L147.748 128.1C147.748 127.8 147.688 127.56 147.628 127.32C147.508 127.14 147.508 126.96 147.568 126.84L147.508 126.6V126.42C146.668 126.66 145.888 126.78 145.108 126.9C144.268 127.08 143.548 127.2 142.888 127.26C141.328 127.38 139.768 127.38 138.148 127.2C136.468 127.08 135.088 126.54 133.888 125.7C133.108 125.16 132.808 124.26 133.048 123.06C133.108 122.64 133.228 122.22 133.348 121.74C133.468 121.32 133.588 120.9 133.828 120.42C133.948 120.24 134.068 120.12 134.188 120.06C134.308 120.06 134.368 119.94 134.488 119.82C134.548 119.7 134.668 119.4 134.908 118.92C135.088 118.44 135.388 118.08 135.748 117.72L136.048 117.18L136.408 116.76L136.708 116.28C136.888 115.98 137.128 115.74 137.368 115.56C137.548 115.44 137.788 115.2 138.088 114.84C138.388 114.54 138.688 114.24 138.928 113.88C139.108 113.58 139.408 113.22 139.888 112.74L140.368 112.26L140.728 112.08C140.788 111.96 140.908 111.84 141.028 111.72C141.088 111.6 141.208 111.54 141.328 111.54C141.388 111.54 141.508 111.54 141.628 111.48C141.748 111.48 141.868 111.42 142.108 111.42C142.228 111.42 142.348 111.42 142.468 111.36C142.468 111.36 142.648 111.3 142.948 111.24C143.128 111.24 143.368 111.36 143.668 111.54C144.028 111.78 144.388 112.08 144.808 112.44C145.168 112.86 145.468 113.22 145.768 113.52C145.948 113.88 146.068 114.12 146.068 114.24C146.068 114.54 145.948 114.72 145.828 114.78C145.768 114.84 145.588 114.84 145.348 114.84C145.228 114.84 145.168 114.84 145.108 114.78H144.868C144.508 114.78 144.328 114.72 144.208 114.6C143.968 114.48 143.848 114.3 143.728 114.12C143.548 114 143.368 113.88 143.248 113.76C143.128 113.7 143.008 113.64 142.948 113.52C142.828 113.52 142.768 113.46 142.648 113.46C142.168 113.46 141.808 113.64 141.568 113.88C141.448 114 141.328 114.12 141.208 114.18C141.028 114.3 140.848 114.48 140.668 114.72C140.308 115.08 139.948 115.5 139.588 115.98C139.168 116.46 138.808 116.94 138.508 117.42C138.148 117.9 137.848 118.38 137.608 118.8C137.308 119.28 137.128 119.7 137.008 119.94L136.888 120.24L136.648 120.6C136.528 120.72 136.528 120.78 136.528 120.84C136.468 120.96 136.408 121.02 136.408 121.08C136.288 121.2 136.228 121.38 136.168 121.62C136.048 121.92 136.108 122.22 136.228 122.46C136.288 122.58 136.348 122.7 136.468 122.82C136.468 123 136.528 123.12 136.648 123.24C136.948 123.6 137.428 123.84 138.088 124.02C138.688 124.26 139.168 124.38 139.468 124.44C139.828 124.56 140.128 124.62 140.428 124.62C140.668 124.62 141.148 124.68 141.868 124.74C142.168 124.8 142.528 124.8 142.888 124.8C143.248 124.8 143.788 124.8 144.508 124.74C144.868 124.74 145.408 124.68 146.008 124.56C146.608 124.5 147.148 124.38 147.688 124.26C147.748 123.72 147.748 123.12 147.748 122.46C147.688 121.86 147.628 121.5 147.628 121.38C147.628 121.14 147.568 120.9 147.568 120.72L147.928 119.88V117.6C147.928 117.42 147.988 117.24 148.168 117.06C148.288 116.94 148.348 116.88 148.348 116.76C148.288 116.64 148.288 116.46 148.288 116.22C148.228 116.04 148.168 115.74 148.168 115.38L148.468 112.38L148.348 111.36L148.768 108.96L148.948 107.1C148.828 106.74 148.828 106.5 148.948 106.26C149.008 105.3 149.068 104.52 149.128 103.92C149.128 103.32 149.128 102.78 149.188 102.24C149.188 101.76 149.248 101.22 149.308 100.62C149.308 100.14 149.428 99.4201 149.548 98.5201C149.608 98.1001 149.728 97.8601 149.848 97.8601C149.908 97.9201 149.908 97.8601 149.908 97.6801C149.908 97.5001 149.848 97.3801 149.848 97.3801C149.788 97.4401 149.788 97.3201 149.788 97.0801C149.788 96.7801 149.788 96.5401 149.848 96.4201C149.848 96.3001 149.848 96.1201 149.968 95.7601V95.3401C149.908 95.2801 149.908 95.1601 149.908 94.9801C149.908 94.4401 149.968 94.1401 150.148 94.1401H150.268H150.328C150.328 94.0201 150.508 93.7201 150.748 93.1801C150.928 92.7001 151.048 92.3401 151.168 92.1001C151.168 92.1001 151.348 92.1001 151.708 92.1601C152.008 92.2801 152.188 92.3401 152.248 92.3401ZM177.736 92.3401C177.916 92.9401 178.096 93.4201 178.216 93.8401C178.336 94.3201 178.396 95.1001 178.516 96.0601C178.516 96.4801 178.516 96.7801 178.576 96.9001C178.576 97.1401 178.636 97.3801 178.756 97.6801L178.816 98.5801C178.816 99.0601 178.876 99.4201 178.936 99.6601C178.936 99.9601 178.936 100.26 178.996 100.62L178.876 101.94L178.996 102.72C178.936 103.56 178.936 104.34 178.936 105.12L178.756 107.58L178.816 108.18L178.576 110.28L178.636 111.12L178.576 111.9L178.156 117.78C178.036 118.62 177.976 119.28 177.976 119.76C177.916 120.36 177.856 120.9 177.796 121.38L177.496 124.56C177.376 124.8 177.256 125.04 177.196 125.22C177.076 125.46 177.016 125.64 177.016 125.76C176.956 126 176.956 126.12 176.956 126.24L176.896 126.36C176.956 126.72 176.836 127.08 176.596 127.5C176.236 127.98 175.996 128.4 175.816 128.64L174.436 129.42C174.076 129.48 173.836 129.48 173.776 129.36C173.656 129.18 173.536 128.94 173.416 128.64L173.236 128.1C173.236 127.8 173.176 127.56 173.116 127.32C172.996 127.14 172.996 126.96 173.056 126.84L172.996 126.6V126.42C172.156 126.66 171.376 126.78 170.596 126.9C169.756 127.08 169.036 127.2 168.376 127.26C166.816 127.38 165.256 127.38 163.636 127.2C161.956 127.08 160.576 126.54 159.376 125.7C158.596 125.16 158.296 124.26 158.536 123.06C158.596 122.64 158.716 122.22 158.836 121.74C158.956 121.32 159.076 120.9 159.316 120.42C159.436 120.24 159.556 120.12 159.676 120.06C159.796 120.06 159.856 119.94 159.976 119.82C160.036 119.7 160.156 119.4 160.396 118.92C160.576 118.44 160.876 118.08 161.236 117.72L161.536 117.18L161.896 116.76L162.196 116.28C162.376 115.98 162.616 115.74 162.856 115.56C163.036 115.44 163.276 115.2 163.576 114.84C163.876 114.54 164.176 114.24 164.416 113.88C164.596 113.58 164.896 113.22 165.376 112.74L165.856 112.26L166.216 112.08C166.276 111.96 166.396 111.84 166.516 111.72C166.576 111.6 166.696 111.54 166.816 111.54C166.876 111.54 166.996 111.54 167.116 111.48C167.236 111.48 167.356 111.42 167.596 111.42C167.716 111.42 167.836 111.42 167.956 111.36C167.956 111.36 168.136 111.3 168.436 111.24C168.616 111.24 168.856 111.36 169.156 111.54C169.516 111.78 169.876 112.08 170.296 112.44C170.656 112.86 170.956 113.22 171.256 113.52C171.436 113.88 171.556 114.12 171.556 114.24C171.556 114.54 171.436 114.72 171.316 114.78C171.256 114.84 171.076 114.84 170.836 114.84C170.716 114.84 170.656 114.84 170.596 114.78H170.356C169.996 114.78 169.816 114.72 169.696 114.6C169.456 114.48 169.336 114.3 169.216 114.12C169.036 114 168.856 113.88 168.736 113.76C168.616 113.7 168.496 113.64 168.436 113.52C168.316 113.52 168.256 113.46 168.136 113.46C167.656 113.46 167.296 113.64 167.056 113.88C166.936 114 166.816 114.12 166.696 114.18C166.516 114.3 166.336 114.48 166.156 114.72C165.796 115.08 165.436 115.5 165.076 115.98C164.656 116.46 164.296 116.94 163.996 117.42C163.636 117.9 163.336 118.38 163.096 118.8C162.796 119.28 162.616 119.7 162.496 119.94L162.376 120.24L162.136 120.6C162.016 120.72 162.016 120.78 162.016 120.84C161.956 120.96 161.896 121.02 161.896 121.08C161.776 121.2 161.716 121.38 161.656 121.62C161.536 121.92 161.596 122.22 161.716 122.46C161.776 122.58 161.836 122.7 161.956 122.82C161.956 123 162.016 123.12 162.136 123.24C162.436 123.6 162.916 123.84 163.576 124.02C164.176 124.26 164.656 124.38 164.956 124.44C165.316 124.56 165.616 124.62 165.916 124.62C166.156 124.62 166.636 124.68 167.356 124.74C167.656 124.8 168.016 124.8 168.376 124.8C168.736 124.8 169.276 124.8 169.996 124.74C170.356 124.74 170.896 124.68 171.496 124.56C172.096 124.5 172.636 124.38 173.176 124.26C173.236 123.72 173.236 123.12 173.236 122.46C173.176 121.86 173.116 121.5 173.116 121.38C173.116 121.14 173.056 120.9 173.056 120.72L173.416 119.88V117.6C173.416 117.42 173.476 117.24 173.656 117.06C173.776 116.94 173.836 116.88 173.836 116.76C173.776 116.64 173.776 116.46 173.776 116.22C173.716 116.04 173.656 115.74 173.656 115.38L173.956 112.38L173.836 111.36L174.256 108.96L174.436 107.1C174.316 106.74 174.316 106.5 174.436 106.26C174.496 105.3 174.556 104.52 174.616 103.92C174.616 103.32 174.616 102.78 174.676 102.24C174.676 101.76 174.736 101.22 174.796 100.62C174.796 100.14 174.916 99.4201 175.036 98.5201C175.096 98.1001 175.216 97.8601 175.336 97.8601C175.396 97.9201 175.396 97.8601 175.396 97.6801C175.396 97.5001 175.336 97.3801 175.336 97.3801C175.276 97.4401 175.276 97.3201 175.276 97.0801C175.276 96.7801 175.276 96.5401 175.336 96.4201C175.336 96.3001 175.336 96.1201 175.456 95.7601V95.3401C175.396 95.2801 175.396 95.1601 175.396 94.9801C175.396 94.4401 175.456 94.1401 175.636 94.1401H175.756H175.816C175.816 94.0201 175.996 93.7201 176.236 93.1801C176.416 92.7001 176.536 92.3401 176.656 92.1001C176.656 92.1001 176.836 92.1001 177.196 92.1601C177.496 92.2801 177.676 92.3401 177.736 92.3401ZM183.904 99.5401L185.404 98.2801C186.004 97.8001 186.544 97.3201 187.024 96.8401L187.804 96.6001C188.224 96.4201 188.704 96.1201 189.304 95.7001L190.924 94.6201C191.104 94.5001 191.284 94.3801 191.524 94.2601C191.644 94.2601 191.824 94.2001 191.944 94.1401C192.004 94.1401 192.124 94.1401 192.304 94.0201L192.724 93.6601L193.024 93.6001L193.444 93.5401C193.684 93.4801 193.924 93.6601 194.224 94.0801C194.404 94.4401 194.344 94.6801 194.044 94.8601C193.684 95.1001 193.504 95.2201 193.384 95.2801L190.084 97.5001L189.724 97.6801C189.604 97.7401 189.544 97.7401 189.484 97.7401L189.124 98.0401L188.404 98.5201L187.804 99.0001L187.504 99.4801L186.724 100.2L186.604 100.44L186.484 100.56C186.244 100.74 185.944 100.86 185.704 100.86C185.404 100.92 185.104 100.98 184.804 100.98C184.624 100.98 184.504 100.92 184.444 100.8C184.324 100.68 184.204 100.62 184.144 100.5C184.024 100.38 183.964 100.26 183.904 100.02C183.784 99.9001 183.784 99.7201 183.904 99.5401ZM191.464 104.4C191.704 104.52 191.944 104.7 192.064 104.88C192.184 105.12 192.244 105.36 192.364 105.54V106.8C192.244 107.16 192.184 107.64 192.184 108.24C192.124 108.96 192.124 109.44 192.244 109.74V110.22C192.184 110.46 192.124 110.76 192.124 111.06C192.064 111.42 192.004 111.72 192.004 112.08C191.944 112.44 191.944 112.8 192.004 113.04C191.884 113.28 191.944 113.58 192.064 113.82C192.184 114.12 192.184 114.42 192.124 114.66C192.004 115.14 191.944 115.56 191.824 115.98C191.704 116.46 191.644 116.94 191.644 117.36L191.404 117.48C191.644 117.9 191.644 118.38 191.404 118.92C191.284 119.22 191.224 119.46 191.224 119.7C191.164 119.94 191.104 120.24 191.044 120.54C190.924 120.84 190.924 121.14 190.924 121.44C190.864 121.8 190.924 122.04 191.044 122.28C190.924 122.46 190.864 122.58 190.804 122.64C190.684 122.76 190.624 122.88 190.624 122.94L190.564 123.48L190.684 123.9L190.444 124.02C190.324 124.44 190.324 124.74 190.384 124.98C190.384 125.28 190.324 125.58 190.324 125.82L189.604 126.78V127.32L189.304 127.56C188.944 127.5 188.704 127.56 188.464 127.74C188.164 127.98 187.804 128.04 187.444 127.92L187.264 127.86C187.144 127.38 186.964 126.42 186.844 125.04C186.604 123.72 186.664 122.16 186.904 120.48C186.904 120 187.024 119.28 187.144 118.38C187.264 117.54 187.384 116.58 187.564 115.5C187.684 114.54 187.804 113.46 187.924 112.38L188.284 109.44C188.104 109.56 187.924 109.62 187.804 109.74C187.624 109.92 187.504 110.04 187.384 110.1C187.144 110.22 187.024 110.28 186.904 110.4C186.784 110.52 186.664 110.64 186.544 110.7C186.424 110.76 186.364 110.82 186.244 110.82C186.124 110.94 185.944 111.06 185.764 111.18L185.464 111.24L185.104 111.36C184.864 111.42 184.744 111.42 184.624 111.36C184.444 111.36 184.324 111.18 184.204 110.82C184.084 110.64 184.204 110.4 184.504 110.1C184.744 109.86 184.864 109.68 184.984 109.56L188.044 107.22L189.004 106.44C189.244 106.32 189.484 106.02 189.724 105.54C189.964 105.18 190.204 104.88 190.504 104.64C190.624 104.52 190.804 104.46 191.044 104.34C191.224 104.34 191.344 104.34 191.464 104.4ZM205.181 115.56L204.821 118.2L204.641 119.34L204.461 121.38L204.401 122.46L204.221 123.12L204.401 124.02C204.401 124.26 204.221 124.5 203.861 124.74C203.681 124.86 203.621 124.92 203.621 125.04C203.621 125.16 203.561 125.28 203.441 125.34C202.961 125.52 202.481 125.64 202.001 125.64C201.401 125.76 200.861 125.82 200.381 125.88C200.021 125.88 199.841 125.76 199.841 125.52V124.8L199.901 123.48L200.201 123.12L200.141 121.92L200.381 121.56L200.321 120.84L200.441 120.12L200.561 119.34L200.801 118.5L200.861 117C200.921 116.4 201.041 115.8 201.161 115.2C201.281 114.6 201.341 113.82 201.461 112.74L201.641 112.32L201.581 111.18L201.701 110.22C201.761 109.38 201.821 108.6 201.941 107.88C202.001 107.22 202.061 106.56 202.061 105.9C201.941 105.9 201.881 105.84 201.821 105.84C201.701 105.84 201.641 105.84 201.641 105.78C201.521 105.84 201.461 105.9 201.341 105.9C201.221 105.96 201.041 106.08 200.861 106.26L200.561 106.56C200.381 106.74 200.201 106.92 200.081 107.1L199.481 107.7C199.241 107.94 199.061 108.18 198.881 108.48C198.761 108.6 198.701 108.6 198.701 108.54C198.581 108.54 198.521 108.6 198.461 108.66C198.281 108.78 198.161 108.78 198.101 108.72H197.741L197.321 108.78C197.201 108.66 197.141 108.48 197.081 108.3C196.961 108.18 196.961 108.06 196.961 107.82C196.961 107.64 197.141 107.34 197.501 106.86C198.101 106.08 198.701 105.48 199.241 105.06C199.721 104.7 200.081 104.4 200.441 104.1L201.041 103.86L201.761 103.5C202.001 103.44 202.301 103.38 202.721 103.38C203.081 103.44 203.321 103.5 203.561 103.56C203.741 103.68 203.921 103.8 204.161 103.86C204.341 103.98 204.461 104.04 204.521 104.16C204.641 104.4 204.761 104.52 204.881 104.64C204.941 104.82 205.001 105 205.121 105.18C205.181 105.3 205.241 105.42 205.361 105.54C205.361 105.66 205.421 105.78 205.481 105.9L205.661 106.62C205.661 107.22 205.721 107.88 205.781 108.6C205.781 109.44 205.721 110.4 205.661 111.54L205.181 115.56ZM216.461 103.68L216.821 104.46C216.821 104.7 216.881 104.82 217.001 104.88C217.001 105 217.061 105.18 217.121 105.36C217.121 105.6 217.181 105.96 217.181 106.44C217.121 106.98 217.061 107.52 217.061 108.12C216.941 108.72 216.881 109.32 216.881 109.86C216.761 110.46 216.701 111 216.701 111.42L216.401 112.5L216.701 113.22L216.341 113.76L216.461 114.18C216.461 114.3 216.401 114.6 216.401 115.08C216.281 115.62 216.221 116.22 216.161 116.82C216.041 117.48 215.981 118.08 215.921 118.62C215.801 119.22 215.741 119.64 215.741 119.82C215.681 120.06 215.621 120.18 215.621 120.3C215.561 120.48 215.501 120.66 215.501 120.84L215.441 121.44L215.321 121.98L215.201 122.64L215.141 123.54L214.661 124.44C214.181 124.62 213.701 124.68 213.341 124.56C212.861 124.56 212.441 124.5 211.961 124.5L211.421 124.08L211.361 122.82V121.5L211.481 120.06C211.481 119.88 211.481 119.7 211.541 119.46C211.541 119.28 211.541 119.04 211.601 118.8C211.601 118.62 211.601 118.38 211.661 118.14L211.961 116.46V115.74L212.141 115.62L212.201 114.96L212.261 114.54C212.261 114.3 212.321 114 212.381 113.76C212.381 113.58 212.441 113.34 212.501 113.1C212.501 112.86 212.501 112.68 212.561 112.5L212.801 111.12C212.801 111 212.861 110.76 212.981 110.4C213.041 110.1 213.101 109.8 213.161 109.44C213.161 109.26 213.281 108.84 213.461 108.24C213.581 107.64 213.641 107.16 213.641 106.74C213.641 106.5 213.521 106.32 213.341 106.32C213.221 106.32 213.161 106.38 213.101 106.44C212.981 106.56 212.801 106.68 212.621 106.74C212.501 106.92 212.441 107.04 212.321 107.1L211.961 107.46L211.781 107.52L211.061 108.3C210.941 108.42 210.881 108.48 210.821 108.6C210.701 108.72 210.641 108.84 210.521 108.96L210.401 109.14C210.041 109.62 209.681 110.1 209.261 110.58C208.781 111.12 208.301 111.72 207.941 112.32C207.701 112.74 207.401 112.92 207.101 112.92C206.981 112.92 206.921 112.8 206.861 112.5C206.741 112.26 206.741 111.9 206.861 111.3C206.921 111.12 206.981 110.88 207.041 110.64C207.041 110.46 207.161 110.28 207.281 110.04C207.461 109.74 207.641 109.44 207.881 109.08C208.061 108.84 208.301 108.48 208.661 108.06L209.561 107.1L210.101 106.5L210.821 105.78L211.541 104.94L212.381 104.1L213.341 103.68L213.821 103.32C214.001 103.26 214.241 103.2 214.481 103.08C214.721 103.08 214.901 103.02 215.141 102.96L215.921 103.02L216.461 103.68ZM237.71 105.6L238.13 105.96C238.37 105.96 238.61 106.02 238.79 106.26C238.91 106.56 238.97 106.86 239.09 107.16C239.15 107.52 239.21 107.82 239.27 108.06V108.6L239.21 108.72V109.14C239.33 109.5 239.45 109.74 239.51 109.92L239.45 110.88L239.57 111.3L239.63 111.72C239.57 112.56 239.51 113.52 239.45 114.48C239.33 115.56 239.21 116.4 239.15 117.12L239.21 117.78L238.91 118.2L238.61 120.66L238.01 123.06L237.47 124.68L236.99 126L236.93 126.72L236.63 126.78L236.21 127.62L235.61 129.12C235.49 129.36 235.37 129.66 235.25 129.96L234.89 130.68L234.47 131.1V131.46L233.45 133.2C233.09 133.74 232.67 134.28 232.25 134.76C232.07 134.94 231.95 135.18 231.83 135.42C231.65 135.6 231.47 135.78 231.35 136.02L230.39 137.16C230.15 137.4 229.97 137.64 229.73 137.94C229.49 138.18 229.25 138.42 229.07 138.66C228.83 138.84 228.65 139.02 228.41 139.26C228.11 139.44 227.87 139.62 227.69 139.8C227.57 139.86 227.45 139.92 227.39 139.98C227.27 139.98 227.15 139.98 226.97 140.1C226.61 140.16 226.43 140.16 226.43 140.04C226.37 139.86 226.31 139.74 226.31 139.68C226.25 139.56 226.25 139.5 226.31 139.38C226.31 139.2 226.25 139.08 226.25 139.02L226.55 138.72L226.79 138.48C226.79 138.3 226.91 138.12 227.15 138L227.63 137.58L227.75 137.4C227.93 137.1 228.23 136.74 228.59 136.32C228.89 135.84 229.13 135.42 229.37 135.12L229.79 134.46L230.09 133.8C230.21 133.56 230.39 133.32 230.51 133.08C230.57 132.84 230.69 132.6 230.81 132.36L231.41 131.28L231.53 130.74L231.89 129.6L232.31 128.7L232.49 128.04C232.73 127.44 232.91 126.9 233.09 126.54C233.21 126.18 233.33 125.76 233.45 125.16L233.81 123.66C233.87 123.18 233.93 122.64 234.05 122.1C234.11 121.62 234.17 121.08 234.29 120.48C233.39 120.9 232.61 121.14 232.01 121.26L231.11 121.5L230.57 121.32L230.27 121.38L229.91 121.5C229.43 121.5 228.95 121.5 228.35 121.38C227.75 121.38 227.21 121.32 226.73 121.2C226.55 121.2 226.37 121.14 226.13 121.02C225.83 121.02 225.59 120.96 225.41 120.84C225.23 120.78 225.11 120.66 225.05 120.54C224.93 120.42 224.81 120.3 224.69 120.12L223.91 119.64C223.73 119.52 223.67 119.34 223.67 119.22C223.67 119.1 223.61 118.98 223.55 118.8L223.37 118.32C222.89 117.48 222.65 116.64 222.65 115.8C222.53 114.96 222.59 114.12 222.83 113.22L223.01 112.56L223.25 112.2C223.31 112.08 223.43 111.84 223.61 111.6C223.73 111.36 223.91 111.18 224.03 110.94C224.39 110.46 224.81 109.92 225.35 109.38C225.83 108.9 226.37 108.48 227.09 108.12C227.21 108.06 227.39 107.88 227.75 107.64C228.05 107.46 228.29 107.34 228.47 107.34L228.95 107.22C229.25 107.04 229.73 106.86 230.33 106.74C230.87 106.68 231.35 106.62 231.83 106.56C232.31 106.56 232.79 106.56 233.27 106.62C233.69 106.74 234.05 106.86 234.41 107.04C234.71 107.22 234.95 107.34 235.19 107.4C235.37 107.58 235.49 107.7 235.55 107.7C235.61 107.58 235.67 107.4 235.79 107.28C235.85 107.22 235.91 107.1 235.97 106.98L236.63 106.2L237.05 105.72L237.71 105.6ZM235.01 112.74V112.2C235.01 112.02 235.01 111.84 235.07 111.66C235.07 111.54 235.07 111.36 235.13 111.12C235.13 110.82 235.13 110.52 235.19 110.16C235.19 109.92 235.25 109.62 235.31 109.26C235.25 109.32 235.19 109.32 235.19 109.32C235.13 109.32 235.07 109.38 235.07 109.38C234.95 109.44 234.95 109.38 234.95 109.26C234.95 109.2 234.89 109.14 234.83 109.14C234.53 109.2 234.29 109.2 234.17 109.08C233.81 108.84 233.51 108.66 233.21 108.54C232.85 108.48 232.49 108.42 232.13 108.42C231.29 108.48 230.69 108.6 230.21 108.84L228.95 109.56C228.35 109.98 227.87 110.46 227.51 111C227.09 111.6 226.79 112.14 226.61 112.74L226.37 112.92L226.43 113.52C226.31 113.94 226.31 114.3 226.43 114.66C226.43 115.14 226.55 115.5 226.67 115.86C226.73 116.22 226.85 116.58 227.03 116.94C227.15 117.3 227.33 117.54 227.45 117.66C227.57 117.9 227.75 118.08 228.11 118.32L228.59 118.8C228.71 118.98 228.83 119.04 229.01 119.04L229.97 119.28L231.17 119.22C232.01 119.04 232.61 118.86 233.09 118.74C233.51 118.62 233.99 118.44 234.59 118.08C234.65 117.18 234.71 116.28 234.83 115.38C234.83 114.54 234.89 113.64 235.01 112.74Z" fill="#FFCCD3"/>
</svg>
