<svg width="199" height="110" viewBox="0 0 199 110" fill="none" xmlns="http://www.w3.org/2000/svg">
<path d="M6.91191 31.536C5.90391 29.568 3.64791 24.672 2.30391 19.776C1.77591 17.856 1.29591 15.936 0.959906 14.16C0.479906 11.568 0.335906 8.49601 0.191906 7.24801C0.143906 6.43202 -9.36985e-05 5.52001 0.0479064 4.70401C0.0959063 4.27201 0.527906 3.88801 1.19991 3.74401C2.01591 3.64801 2.49591 4.17601 2.59191 5.42401C2.63991 6.28801 2.92791 9.60001 3.59991 13.056C3.88791 14.496 4.36791 16.704 4.75191 18C6.23991 23.424 7.67991 26.976 8.68791 28.992C8.83191 29.28 9.45591 30.528 9.93591 31.056C10.6559 30.288 11.7119 28.56 11.8559 28.272C13.2479 25.776 14.3519 23.04 15.3119 20.208C15.8879 18.528 16.0799 17.952 16.6559 16.848C17.0399 16.128 17.7599 15.648 18.1919 15.696C19.0079 15.792 19.3919 16.224 19.7759 17.472C19.8719 17.76 20.3519 19.584 20.4959 20.448C20.7359 21.648 21.5999 25.776 22.6079 29.04C22.9919 28.608 23.9519 25.872 24.7679 23.28C25.7279 20.304 26.3519 17.424 26.5439 16.08C27.2639 11.52 27.2159 9.64801 27.4079 9.16801C27.6959 8.25601 28.5599 8.11201 29.0879 8.68801C29.3759 9.02401 29.5679 9.31202 29.6159 10.032C29.9039 13.008 28.3679 21.744 26.6399 26.592C26.2079 27.84 25.5359 29.376 24.8639 30.768C24.4799 31.536 23.6639 33.072 22.9919 33.072C21.5519 33.072 20.6879 31.44 20.3039 30.336C19.1039 26.928 18.5279 23.952 17.8559 20.688C17.4719 22.224 15.1679 28.56 13.2479 31.104C12.0959 32.64 10.6559 34.368 9.79191 34.368C8.87991 34.368 8.49591 33.936 7.72791 32.88C7.48791 32.592 7.15191 32.016 6.91191 31.536ZM33.2767 32.112C33.1807 30.72 33.2767 29.328 33.6127 27.792C33.8047 26.88 34.0927 25.92 34.3807 25.104C35.7247 21.312 37.6447 17.856 40.5247 18.24C42.0607 18.528 42.8287 19.92 42.6847 22.416C42.4927 24.672 41.9167 26.544 40.5727 27.6C39.6607 28.32 39.1807 28.512 38.3647 28.512C38.0287 28.512 37.0207 28.368 36.3487 28.032C36.0607 28.848 35.7247 30.432 35.9647 31.632C36.0607 32.304 36.6367 32.448 37.4527 32.304C39.1327 32.016 39.8047 31.92 41.7727 31.392C42.5887 31.152 43.5007 30.912 44.6527 30.576C45.4207 30.528 45.4687 31.584 45.3727 31.872C45.2767 32.16 45.1807 32.16 45.0847 32.256C43.7407 32.976 43.2127 33.168 41.5327 33.744C40.0927 34.224 39.7567 34.32 38.8447 34.512C37.9807 34.704 37.3087 34.896 36.3967 34.896C34.5247 34.896 33.4207 33.984 33.2767 32.112ZM37.2127 24.816C37.1167 25.104 37.0207 25.44 36.8767 26.016C37.2127 26.208 38.4127 26.544 39.0367 26.208C40.3327 25.536 40.7647 23.52 40.7647 21.84C40.7647 21.216 40.6207 20.64 39.9967 20.64C39.0847 20.64 38.3647 21.936 38.0287 22.704C37.8847 22.992 37.4047 24.096 37.2127 24.816ZM51.7203 9.64801C51.2883 9.31202 51.4803 8.54401 51.8643 7.68001C52.1043 7.05601 52.3923 6.57601 52.3923 5.76002C52.3923 5.04001 52.1523 4.32001 51.4323 4.46402C49.6563 4.84801 49.1283 3.21601 49.2723 2.01602C49.4643 0.480015 50.8563 1.52588e-05 51.9123 0.144013C53.5923 0.336014 54.5043 1.72801 54.6963 3.50401C54.8403 4.75201 54.6963 6.48001 54.0723 7.72801C53.1603 9.60001 52.2003 10.032 51.7203 9.64801ZM60.4139 18.864C60.1739 18.384 60.5579 17.808 60.7019 17.664C60.9899 17.472 61.3259 17.28 61.8059 17.424C62.1899 17.568 62.4299 17.904 62.7179 18.288C63.0059 18.72 63.7259 20.112 63.9659 20.736C64.5419 19.824 64.9739 19.152 65.3099 18.768C65.7419 18.24 66.0779 17.856 66.6539 17.328C67.7579 16.32 69.0539 15.6 70.3019 15.168C70.9739 14.976 71.5019 14.832 72.0299 14.784C73.0379 14.736 73.3259 15.792 72.7499 16.08C72.0299 16.464 71.4059 16.848 70.5899 17.376C69.3419 18.192 68.0939 19.392 66.9419 20.832C66.2219 21.696 65.5499 22.8 65.2619 24.048C65.1179 24.816 65.1179 25.584 65.2619 26.304C65.5019 27.744 65.7419 29.856 65.8379 30.528C65.9339 31.2 66.1259 32.16 66.2219 32.832C66.3179 33.408 66.1259 34.128 65.1179 34.128C64.2539 34.128 63.9179 33.312 63.5339 32.16C63.2459 31.248 62.6699 28.464 62.5739 27.408C62.4779 26.832 62.2859 25.248 62.2859 25.008C62.1419 23.712 61.8059 22.08 61.4699 21.12C61.2299 20.544 60.8459 19.824 60.4139 18.864ZM73.1673 32.112C73.0713 30.72 73.1673 29.328 73.5033 27.792C73.6953 26.88 73.9833 25.92 74.2713 25.104C75.6153 21.312 77.5353 17.856 80.4153 18.24C81.9513 18.528 82.7193 19.92 82.5753 22.416C82.3833 24.672 81.8073 26.544 80.4633 27.6C79.5513 28.32 79.0713 28.512 78.2553 28.512C77.9193 28.512 76.9113 28.368 76.2393 28.032C75.9513 28.848 75.6153 30.432 75.8553 31.632C75.9513 32.304 76.5273 32.448 77.3433 32.304C79.0233 32.016 79.6953 31.92 81.6633 31.392C82.4793 31.152 83.3913 30.912 84.5433 30.576C85.3113 30.528 85.3593 31.584 85.2633 31.872C85.1673 32.16 85.0713 32.16 84.9753 32.256C83.6313 32.976 83.1033 33.168 81.4233 33.744C79.9833 34.224 79.6473 34.32 78.7353 34.512C77.8713 34.704 77.1993 34.896 76.2873 34.896C74.4153 34.896 73.3113 33.984 73.1673 32.112ZM77.1033 24.816C77.0073 25.104 76.9113 25.44 76.7673 26.016C77.1033 26.208 78.3033 26.544 78.9273 26.208C80.2233 25.536 80.6553 23.52 80.6553 21.84C80.6553 21.216 80.5113 20.64 79.8873 20.64C78.9753 20.64 78.2553 21.936 77.9193 22.704C77.7753 22.992 77.2953 24.096 77.1033 24.816ZM94.5614 47.28C94.7054 46.656 95.4734 46.704 96.2894 46.704H98.8334C99.8894 46.656 100.465 46.656 102.097 46.368C106.177 45.648 108.625 43.104 108.625 38.304C108.625 37.344 108.529 34.464 108.433 33.504C108.241 31.728 107.953 28.848 107.713 27.168C107.377 28.08 106.753 28.752 105.985 29.28C104.881 30.048 103.105 30.288 102.385 30.192C101.041 30 100.177 29.376 99.8894 28.032C99.6494 26.832 99.9854 25.488 100.465 24.528C101.377 22.704 103.777 20.88 105.313 19.68C106.081 19.104 106.705 18.576 107.089 18.336C107.425 18.096 108.001 17.616 108.913 17.568C109.297 17.568 109.681 17.856 109.729 18.096C109.825 18.48 109.825 18.816 109.393 19.248C108.865 19.776 108.577 19.968 107.953 20.592C108.433 21.6 109.249 23.952 109.729 25.968C110.305 28.416 110.545 30.96 110.785 33.648C110.881 34.944 111.025 37.968 111.025 39.264C111.025 44.352 107.857 47.856 102.865 48.576C100.801 48.864 100.081 48.864 98.2094 48.768C97.2494 48.72 96.2414 48.528 95.5694 48.288C95.2334 48.192 94.4174 47.856 94.5614 47.28ZM102.241 27.504C102.337 27.744 102.577 27.888 102.865 27.888C103.873 27.888 104.737 27.504 105.505 26.928C106.657 26.016 106.945 24.768 106.657 23.76C106.513 23.28 106.129 22.8 105.937 22.608C105.409 22.8 104.641 23.28 103.729 24.24C103.393 24.576 102.769 25.296 102.385 26.112C102.289 26.352 102.049 26.976 102.241 27.504ZM115.542 32.112C115.446 30.72 115.542 29.328 115.878 27.792C116.07 26.88 116.358 25.92 116.646 25.104C117.99 21.312 119.91 17.856 122.79 18.24C124.326 18.528 125.094 19.92 124.95 22.416C124.758 24.672 124.182 26.544 122.838 27.6C121.926 28.32 121.446 28.512 120.63 28.512C120.294 28.512 119.286 28.368 118.614 28.032C118.326 28.848 117.99 30.432 118.23 31.632C118.326 32.304 118.902 32.448 119.718 32.304C121.398 32.016 122.07 31.92 124.038 31.392C124.854 31.152 125.766 30.912 126.918 30.576C127.686 30.528 127.734 31.584 127.638 31.872C127.542 32.16 127.446 32.16 127.35 32.256C126.006 32.976 125.478 33.168 123.798 33.744C122.358 34.224 122.022 34.32 121.11 34.512C120.246 34.704 119.574 34.896 118.662 34.896C116.79 34.896 115.686 33.984 115.542 32.112ZM119.478 24.816C119.382 25.104 119.286 25.44 119.142 26.016C119.478 26.208 120.678 26.544 121.302 26.208C122.598 25.536 123.03 23.52 123.03 21.84C123.03 21.216 122.886 20.64 122.262 20.64C121.35 20.64 120.63 21.936 120.294 22.704C120.15 22.992 119.67 24.096 119.478 24.816ZM133.157 22.992C132.341 23.136 131.381 23.184 129.893 23.232C129.173 23.232 128.549 22.896 128.549 22.08C128.549 21.408 129.077 20.736 129.749 20.736C130.949 20.736 132.149 20.64 133.061 20.496C133.109 18.96 133.205 17.664 133.349 15.936C133.493 14.448 133.685 11.808 133.877 10.176C133.973 9.26401 134.501 8.83201 135.269 8.78401C136.181 8.73601 136.661 9.16801 136.661 10.032C136.661 11.136 136.325 13.296 136.085 16.608C135.989 18 135.893 19.056 135.845 20.304C137.237 20.208 137.909 20.256 139.109 20.16C140.021 20.16 141.221 19.92 141.125 21.408C141.077 22.032 140.069 22.224 139.253 22.32C137.909 22.464 137.045 22.512 135.845 22.704C135.845 22.704 135.749 25.728 136.037 27.696C136.277 29.472 136.421 30.192 136.661 30.912C137.045 32.016 137.573 32.976 138.677 32.976C139.493 32.976 139.829 32.784 140.501 32.688C141.077 32.592 141.413 32.784 141.461 33.408C141.509 34.32 140.741 34.704 139.733 35.088C139.109 35.328 138.437 35.328 137.765 35.328C136.517 35.328 135.269 34.224 134.645 32.784C133.877 31.056 133.445 29.184 133.253 27.12C133.109 25.824 133.157 23.28 133.157 22.992ZM148.251 22.992C147.435 23.136 146.475 23.184 144.987 23.232C144.267 23.232 143.643 22.896 143.643 22.08C143.643 21.408 144.171 20.736 144.843 20.736C146.043 20.736 147.243 20.64 148.155 20.496C148.203 18.96 148.299 17.664 148.443 15.936C148.587 14.448 148.779 11.808 148.971 10.176C149.067 9.26401 149.595 8.83201 150.363 8.78401C151.275 8.73601 151.755 9.16801 151.755 10.032C151.755 11.136 151.419 13.296 151.179 16.608C151.083 18 150.987 19.056 150.939 20.304C152.331 20.208 153.003 20.256 154.203 20.16C155.115 20.16 156.315 19.92 156.219 21.408C156.171 22.032 155.163 22.224 154.347 22.32C153.003 22.464 152.139 22.512 150.939 22.704C150.939 22.704 150.843 25.728 151.131 27.696C151.371 29.472 151.515 30.192 151.755 30.912C152.139 32.016 152.667 32.976 153.771 32.976C154.587 32.976 154.923 32.784 155.595 32.688C156.171 32.592 156.507 32.784 156.555 33.408C156.603 34.32 155.835 34.704 154.827 35.088C154.203 35.328 153.531 35.328 152.859 35.328C151.611 35.328 150.363 34.224 149.739 32.784C148.971 31.056 148.539 29.184 148.347 27.12C148.203 25.824 148.251 23.28 148.251 22.992ZM161.136 20.064C160.992 18.48 162.096 18.096 162.528 18.096C163.584 18.096 163.824 18.864 163.824 19.776C163.824 23.376 164.112 27.888 164.304 30C164.448 31.344 164.4 32.592 164.256 33.84C164.208 34.176 163.824 34.368 163.44 34.512C163.248 34.56 162.72 34.56 162.48 34.272C162.288 34.032 162.144 33.36 162.144 32.88C162.144 32.88 161.904 30.288 161.76 29.328C161.568 27.888 161.568 24.768 161.136 20.064ZM158.88 10.512C158.928 9.79202 159.168 9.36001 159.936 9.36001C160.56 9.36001 160.944 9.50401 161.616 9.79202C163.056 10.368 165.648 12.288 165.648 13.68C165.648 14.112 165.552 14.784 164.928 14.784C164.64 14.784 164.496 14.592 164.448 14.544C163.536 13.632 161.376 12.72 159.744 11.952C159.264 11.712 158.832 11.136 158.88 10.512ZM178.517 21.936C178.421 21.216 178.229 20.736 177.797 20.736C177.269 20.736 176.789 22.032 176.165 23.76C175.685 25.104 175.301 26.544 174.821 28.32C174.485 29.616 174.389 31.392 174.389 32.88C174.389 33.552 173.957 33.936 173.333 33.936C172.229 33.936 172.085 32.784 171.845 32.16C171.605 31.632 170.837 29.28 170.645 28.656C170.165 27.024 169.685 24.864 169.685 23.184C169.685 22.56 170.165 22.128 170.981 22.128C171.653 22.128 172.037 22.608 172.037 23.52C172.037 24.48 172.469 26.352 172.757 27.36C173.093 25.872 173.477 24.432 174.053 22.848C174.821 20.736 175.301 19.056 176.885 17.808C177.509 17.328 178.277 17.136 178.805 17.184C179.621 17.28 179.861 17.712 180.245 18.384C180.677 19.248 180.965 20.256 181.109 21.216C181.349 22.704 181.445 24.096 181.589 25.488C181.685 26.544 181.829 27.84 182.117 29.04C182.501 30.72 182.981 32.688 183.797 34.464C184.277 35.76 185.429 37.68 185.573 38.352C185.717 38.928 185.429 39.264 185.141 39.36C184.181 39.696 182.789 37.872 181.973 36.336C181.445 35.328 181.061 34.368 180.677 33.312C179.957 31.344 179.573 29.52 179.189 27.264C178.997 25.344 178.757 23.664 178.517 21.936ZM182.311 47.28C182.455 46.656 183.223 46.704 184.039 46.704H186.583C187.639 46.656 188.215 46.656 189.847 46.368C193.927 45.648 196.375 43.104 196.375 38.304C196.375 37.344 196.279 34.464 196.183 33.504C195.991 31.728 195.703 28.848 195.463 27.168C195.127 28.08 194.503 28.752 193.735 29.28C192.631 30.048 190.855 30.288 190.135 30.192C188.791 30 187.927 29.376 187.639 28.032C187.399 26.832 187.735 25.488 188.215 24.528C189.127 22.704 191.527 20.88 193.063 19.68C193.831 19.104 194.455 18.576 194.839 18.336C195.175 18.096 195.751 17.616 196.663 17.568C197.047 17.568 197.431 17.856 197.479 18.096C197.575 18.48 197.575 18.816 197.143 19.248C196.615 19.776 196.327 19.968 195.703 20.592C196.183 21.6 196.999 23.952 197.479 25.968C198.055 28.416 198.295 30.96 198.535 33.648C198.631 34.944 198.775 37.968 198.775 39.264C198.775 44.352 195.607 47.856 190.615 48.576C188.551 48.864 187.831 48.864 185.959 48.768C184.999 48.72 183.991 48.528 183.319 48.288C182.983 48.192 182.167 47.856 182.311 47.28ZM189.991 27.504C190.087 27.744 190.327 27.888 190.615 27.888C191.623 27.888 192.487 27.504 193.255 26.928C194.407 26.016 194.695 24.768 194.407 23.76C194.263 23.28 193.879 22.8 193.687 22.608C193.159 22.8 192.391 23.28 191.479 24.24C191.143 24.576 190.519 25.296 190.135 26.112C190.039 26.352 189.799 26.976 189.991 27.504ZM42.3284 99.168C41.7524 97.68 41.0804 94.944 40.3604 95.04C39.2084 95.232 38.2484 99.84 38.1044 102.672C38.0564 103.632 38.0084 104.592 37.9124 105.504C37.8644 105.984 37.4804 106.416 37.0004 106.464C36.2324 106.56 35.9924 106.224 35.8004 105.408C35.4644 103.92 35.2724 102.384 35.0804 100.896C34.8404 99.168 34.3604 96.72 34.2644 94.8C34.2644 94.368 34.3604 93.6 35.1764 93.6C36.1364 93.6 36.4724 94.176 36.4724 94.8C36.4724 94.752 36.6164 96.192 36.8084 98.256C37.3364 94.896 38.8724 91.968 40.8404 91.968C42.4244 91.968 43.0484 94.128 43.7684 96.096C44.2484 97.392 45.1124 100.272 45.6404 101.568C45.6404 100.848 45.7844 97.104 46.0724 94.992C46.5044 91.584 47.6084 88.56 50.0084 85.92C50.6324 85.2 51.6404 84.624 52.6004 84.624C53.8964 84.624 54.5684 85.68 54.5684 86.88C54.5684 89.088 54.4724 92.352 54.9044 98.256C54.9524 99.168 55.3364 102.096 55.5284 103.056C55.8164 104.4 56.0084 105.36 56.2004 106.608C56.2964 107.184 55.8644 107.472 55.4324 107.472C54.6644 107.472 54.0884 106.32 53.6564 104.88C53.1764 103.344 52.6004 99.936 52.4564 98.544C52.1204 95.328 52.1684 91.344 52.0244 87.36C50.4884 88.128 48.8564 91.296 48.3284 94.848C47.8964 97.776 47.6564 100.944 47.8004 104.784C47.8484 105.504 47.8964 106.752 46.7924 106.752C45.6404 106.752 45.0644 105.216 44.7284 104.496C43.8644 102.672 43.0484 100.992 42.3284 99.168ZM59.6137 102.768C59.6137 101.616 59.9017 99.936 60.2377 98.736C61.0537 95.952 62.5897 91.584 65.1337 90.72C66.5737 90.24 68.0137 91.68 68.3497 93.072C68.4937 92.544 68.7817 91.728 68.9737 91.344C69.4057 90.48 69.6937 90 70.3657 90C71.0857 90 71.3737 90.144 71.5177 90.72C71.5657 91.008 71.5657 91.584 71.5177 91.872C71.2777 93.216 70.9417 94.512 70.8937 95.952C70.8457 97.008 71.1817 98.256 71.3737 99.072C71.5657 99.792 71.8057 100.368 72.0937 100.992C72.7657 102.48 73.9657 103.92 75.2617 104.496C75.7417 104.688 76.6057 104.832 76.6057 105.552C76.6057 106.464 75.7897 106.368 75.2617 106.272C72.6697 105.888 70.6537 103.728 69.4537 101.328C69.2137 100.848 68.8297 99.792 68.7337 99.312C68.3017 100.608 67.3897 102.624 66.8617 103.488C65.8537 105.12 64.2217 107.376 62.1097 107.376C61.6777 107.376 61.2457 107.136 60.8617 106.848C59.6137 105.936 59.6137 104.208 59.6137 102.768ZM61.9177 103.296C61.9177 103.584 61.8697 104.976 62.2057 104.928C63.0217 104.832 64.3657 103.008 65.0377 101.904C65.2777 101.52 66.2377 99.792 66.4297 99.36C66.8137 98.544 67.2457 97.44 67.4857 96.48C67.2937 94.56 66.6217 92.976 66.0457 92.976C65.0377 92.976 63.5977 96.72 63.1657 97.824C62.4457 99.648 61.9657 101.424 61.9177 103.296ZM77.9452 90.864C77.7052 90.384 78.0892 89.808 78.2332 89.664C78.5212 89.472 78.8572 89.28 79.3372 89.424C79.7212 89.568 79.9612 89.904 80.2492 90.288C80.5372 90.72 81.2572 92.112 81.4972 92.736C82.0732 91.824 82.5052 91.152 82.8412 90.768C83.2732 90.24 83.6092 89.856 84.1852 89.328C85.2892 88.32 86.5852 87.6 87.8332 87.168C88.5052 86.976 89.0332 86.832 89.5612 86.784C90.5692 86.736 90.8572 87.792 90.2812 88.08C89.5612 88.464 88.9372 88.848 88.1212 89.376C86.8732 90.192 85.6252 91.392 84.4732 92.832C83.7532 93.696 83.0812 94.8 82.7932 96.048C82.6492 96.816 82.6492 97.584 82.7932 98.304C83.0332 99.744 83.2732 101.856 83.3692 102.528C83.4652 103.2 83.6572 104.16 83.7532 104.832C83.8492 105.408 83.6572 106.128 82.6492 106.128C81.7852 106.128 81.4492 105.312 81.0652 104.16C80.7772 103.248 80.2012 100.464 80.1052 99.408C80.0092 98.832 79.8172 97.248 79.8172 97.008C79.6732 95.712 79.3372 94.08 79.0012 93.12C78.7612 92.544 78.3772 91.824 77.9452 90.864ZM93.9295 90.864C93.6895 90.384 94.0735 89.808 94.2175 89.664C94.5055 89.472 94.8415 89.28 95.3215 89.424C95.7055 89.568 95.9455 89.904 96.2335 90.288C96.5215 90.72 97.2415 92.112 97.4815 92.736C98.0575 91.824 98.4895 91.152 98.8255 90.768C99.2575 90.24 99.5935 89.856 100.17 89.328C101.274 88.32 102.57 87.6 103.818 87.168C104.49 86.976 105.018 86.832 105.546 86.784C106.554 86.736 106.842 87.792 106.266 88.08C105.546 88.464 104.922 88.848 104.106 89.376C102.858 90.192 101.61 91.392 100.458 92.832C99.7375 93.696 99.0655 94.8 98.7775 96.048C98.6335 96.816 98.6335 97.584 98.7775 98.304C99.0175 99.744 99.2575 101.856 99.3535 102.528C99.4495 103.2 99.6415 104.16 99.7375 104.832C99.8335 105.408 99.6415 106.128 98.6335 106.128C97.7695 106.128 97.4335 105.312 97.0495 104.16C96.7615 103.248 96.1855 100.464 96.0895 99.408C95.9935 98.832 95.8015 97.248 95.8015 97.008C95.6575 95.712 95.3215 94.08 94.9855 93.12C94.7455 92.544 94.3615 91.824 93.9295 90.864ZM110.464 92.064C110.32 90.48 111.424 90.096 111.856 90.096C112.912 90.096 113.152 90.864 113.152 91.776C113.152 95.376 113.44 99.888 113.632 102C113.776 103.344 113.728 104.592 113.584 105.84C113.536 106.176 113.152 106.368 112.768 106.512C112.576 106.56 112.048 106.56 111.808 106.272C111.616 106.032 111.472 105.36 111.472 104.88C111.472 104.88 111.232 102.288 111.088 101.328C110.896 99.888 110.896 96.768 110.464 92.064ZM108.208 82.512C108.256 81.792 108.496 81.36 109.264 81.36C109.888 81.36 110.272 81.504 110.944 81.792C112.384 82.368 114.976 84.288 114.976 85.68C114.976 86.112 114.88 86.784 114.256 86.784C113.968 86.784 113.824 86.592 113.776 86.544C112.864 85.632 110.704 84.72 109.072 83.952C108.592 83.712 108.16 83.136 108.208 82.512ZM118.917 104.112C118.821 102.72 118.917 101.328 119.253 99.792C119.445 98.88 119.733 97.92 120.021 97.104C121.365 93.312 123.285 89.856 126.165 90.24C127.701 90.528 128.469 91.92 128.325 94.416C128.133 96.672 127.557 98.544 126.213 99.6C125.301 100.32 124.821 100.512 124.005 100.512C123.669 100.512 122.661 100.368 121.989 100.032C121.701 100.848 121.365 102.432 121.605 103.632C121.701 104.304 122.277 104.448 123.093 104.304C124.773 104.016 125.445 103.92 127.413 103.392C128.229 103.152 129.141 102.912 130.293 102.576C131.061 102.528 131.109 103.584 131.013 103.872C130.917 104.16 130.821 104.16 130.725 104.256C129.381 104.976 128.853 105.168 127.173 105.744C125.733 106.224 125.397 106.32 124.485 106.512C123.621 106.704 122.949 106.896 122.037 106.896C120.165 106.896 119.061 105.984 118.917 104.112ZM122.853 96.816C122.757 97.104 122.661 97.44 122.517 98.016C122.853 98.208 124.053 98.544 124.677 98.208C125.973 97.536 126.405 95.52 126.405 93.84C126.405 93.216 126.261 92.64 125.637 92.64C124.725 92.64 124.005 93.936 123.669 94.704C123.525 94.992 123.045 96.096 122.853 96.816ZM143.335 102.24C142.423 103.104 140.551 103.584 139.207 103.584C136.135 103.632 133.495 101.472 133.543 97.872C133.591 94.752 135.943 91.632 138.967 91.632C140.311 91.632 141.943 91.968 142.615 92.592C142.567 90.432 143.191 77.952 143.575 75.408C143.623 74.88 144.151 74.592 144.583 74.592C145.447 74.64 145.927 74.976 145.927 75.744C145.879 79.968 145.351 85.824 145.207 90.528C145.159 92.4 145.015 94.032 145.159 95.664C145.255 96.672 145.495 99.696 145.687 100.752C146.023 102.768 146.455 105.072 147.655 106.608C147.991 107.04 148.135 107.376 149.431 107.52C149.815 107.568 150.151 107.808 150.103 108.336C150.007 109.248 149.575 109.536 148.663 109.488C145.543 109.344 144.007 104.592 143.335 102.24ZM142.807 97.584C142.759 95.28 141.895 93.984 139.399 93.984C137.767 93.984 136.327 95.568 136.135 97.584C136.087 98.304 136.231 99.408 136.615 99.936C137.479 101.04 138.871 101.28 140.215 100.992C142.183 100.56 142.855 99.792 142.807 97.584ZM153.597 105.456C153.357 104.64 153.837 103.44 154.797 103.248C156.381 102.912 157.581 103.92 157.869 105.312C158.157 106.512 157.725 107.376 156.669 107.568C154.941 107.952 154.029 106.896 153.597 105.456ZM155.325 96.672C155.037 95.856 155.085 95.136 155.133 94.368C155.085 93.648 155.229 91.68 155.469 89.856C155.661 88.272 156.045 86.352 156.381 84.336C156.621 82.512 156.909 80.064 157.245 78C157.389 76.896 157.245 74.64 158.493 74.352C159.741 74.112 160.077 75.072 160.173 76.08C160.413 78.768 159.645 82.032 159.117 85.152C158.781 87.024 158.589 87.744 158.301 89.856C158.253 90.048 157.869 93.216 157.821 93.888C157.725 95.136 157.581 97.44 156.285 97.44C155.853 97.44 155.565 97.296 155.325 96.672Z" fill="#F9FAFB"/>
</svg>
