<svg width="141" height="87" viewBox="0 0 141 87" fill="none" xmlns="http://www.w3.org/2000/svg">
<path d="M25.2599 19.044C25.2599 17.604 25.4759 15.732 25.6919 14.148C25.8359 13.104 25.9799 12.06 26.1599 10.944C26.3039 10.116 26.4479 9.21601 26.5919 8.35201C26.6639 7.92001 26.9159 7.66801 27.2039 7.66801C27.8519 7.66801 28.7159 8.02802 28.7159 8.67601C28.7159 9.90001 28.0319 11.376 27.8519 12.564C27.5999 14.112 27.3839 15.66 27.1679 17.136C27.0599 17.928 26.9519 19.8 26.9519 21.384C26.9519 21.924 26.6639 22.248 26.0519 22.248C25.7999 22.248 25.4759 22.032 25.4039 21.492C25.2959 20.7 25.2599 19.908 25.2599 19.044ZM17.1599 13.284C17.1239 11.664 17.1239 10.116 17.2679 8.60402C17.3399 7.66801 17.5199 6.69601 17.6639 5.68801C17.6999 5.32801 18.4559 5.22001 18.9599 5.40001C19.5719 5.61602 19.6799 5.97601 19.6439 6.44402C19.5719 7.12802 19.4639 7.74001 19.3559 8.46002C19.1399 10.08 19.0319 12.672 19.1039 14.832C19.1039 15.156 19.2119 17.064 19.4639 17.64C20.5439 16.56 21.9479 15.516 23.3879 14.868C23.9639 14.616 25.0439 14.508 25.1159 15.012C25.1879 15.516 24.8999 15.66 24.5759 15.912C23.7839 16.524 22.7399 17.028 21.9479 17.712C20.3639 19.188 19.9319 19.44 20.0399 20.304C20.0399 20.376 20.1119 20.952 20.1119 20.988C20.1119 21.384 19.7159 21.672 19.2839 21.672C17.8439 21.672 17.8439 20.232 17.6279 19.188C17.1959 17.208 17.1959 15.3 17.1599 13.284ZM8.2319 14.328C7.9439 14.724 6.2519 17.424 5.8199 18.18C5.4599 18.792 5.1359 19.224 4.8119 19.224C4.1279 19.224 3.8039 18.72 3.9119 18.108C4.1279 16.848 7.1519 12.456 7.9079 11.556C9.0959 10.224 10.2119 8.74801 11.4719 7.41602C11.7599 7.05601 12.0839 6.87601 12.4079 6.87601C12.9839 6.87601 13.6679 7.12802 13.6679 7.84801C13.6679 8.24401 13.4519 8.38801 13.1999 8.60402C12.7319 9.03602 12.0839 9.61202 11.4719 10.332C11.0759 10.8 10.1399 11.592 9.7439 12.348C9.7439 12.528 9.9239 13.068 10.0679 13.392C10.2839 13.86 11.4359 16.056 12.0839 17.064C12.6239 17.856 13.3799 18.576 14.0639 19.224C14.1719 19.296 14.3159 19.548 14.2799 19.836C14.2439 20.376 13.8119 20.448 13.5959 20.448C13.1279 20.448 12.4799 20.088 12.1199 19.8C11.2199 19.044 10.4279 17.964 9.8159 16.956C9.4559 16.344 8.6279 14.904 8.2319 14.328ZM33.0618 25.524C33.0258 25.056 33.5658 24.768 33.9258 24.516C34.8978 23.904 35.5098 22.896 35.9058 21.924C36.5178 20.34 37.1658 19.008 37.8498 18C38.0298 17.712 38.4618 17.604 38.8578 17.64C39.4698 17.676 39.5778 18.18 39.5778 18.576C39.5778 19.188 38.8578 20.196 38.6058 20.7C37.9578 22.032 37.7418 22.464 37.2378 23.436C37.0578 23.796 36.8778 24.12 36.5178 24.552C38.4618 24.552 40.3698 24.3 42.2058 24.3C43.5738 24.3 44.6538 24.264 45.7698 24.552C46.1658 24.732 46.0578 25.668 45.6618 25.74C45.2298 25.776 43.3218 25.992 42.9618 25.992C42.7098 25.992 41.0898 26.1 40.4778 26.136C38.3538 26.244 36.1578 26.748 34.0338 26.748C33.4578 26.748 33.0618 26.28 33.0618 25.524ZM33.0618 15.048C33.1698 14.616 33.4218 14.148 33.6738 13.716C34.6458 12.06 35.5458 11.412 36.7698 9.82801C37.0218 9.54002 37.2378 9.28802 37.3818 9.00001C36.9138 8.89201 36.5898 8.85602 36.0498 8.71202C34.9338 8.35201 33.9618 7.81201 34.5378 6.30001C34.9338 5.25602 35.5458 4.50001 36.4098 3.27602C36.5898 3.02401 36.7698 2.80801 36.9498 2.52001C37.2018 2.19601 37.0578 1.87201 36.7338 1.87201C36.4098 1.83601 35.8338 1.83601 35.3658 1.94402C34.8978 2.05201 34.0698 2.16001 33.5298 2.05201C33.0978 1.87201 32.9178 1.51201 33.0258 1.11602C33.1338 0.612015 33.7818 0.324015 34.4658 0.180014C35.3298 1.45435e-05 37.0578 0.108015 37.6338 0.252013C39.0378 0.612015 39.2178 1.22401 38.7858 2.59202C38.5338 3.31201 38.0298 3.96002 37.6338 4.57201C37.0218 5.43602 36.7698 5.76002 36.3018 6.69601C36.1938 6.87601 36.1578 7.23602 36.6618 7.34401C37.2018 7.48801 37.7418 7.59601 38.2818 7.81201C38.8578 8.02802 39.4698 8.35201 39.3258 9.03602C39.2178 9.39601 38.9658 9.82801 38.7138 10.152C37.6698 11.412 37.0578 12.096 36.0498 13.5C35.5458 14.184 35.4018 14.472 35.2218 14.868C35.1858 14.976 35.1858 15.264 35.3298 15.264C35.9058 15.3 36.3018 15.264 36.8418 15.12C37.1658 15.048 39.0378 14.508 39.5418 14.364C40.5138 14.076 40.8378 14.004 41.3058 14.04C41.8458 14.04 41.6658 15.012 41.2698 15.3C40.3698 15.912 36.1578 17.388 34.3938 17.1C33.0258 16.884 32.7378 16.128 33.0618 15.048ZM56.5065 23.544C56.3985 23.544 55.8945 23.508 55.9665 22.5C56.0025 21.816 56.2545 20.412 56.5785 19.692C56.9025 18.972 58.0185 16.092 58.3065 15.408C58.5945 14.76 58.8105 14.328 59.0265 13.536C56.7945 13.896 54.2025 14.472 52.1145 15.3C51.8625 15.408 50.9625 15.732 50.7105 15.876C50.0265 16.236 49.5585 16.92 48.7305 16.92C48.1185 16.92 47.7945 16.452 47.7945 15.768C47.7945 14.688 50.1705 13.932 50.9625 13.68C54.1305 12.672 54.7065 12.492 55.2825 12.348C56.8305 11.988 65.6505 10.008 65.6505 12.492C65.6505 12.96 65.3985 13.356 64.9665 13.356C64.3905 13.356 63.8865 13.068 63.3105 13.068C62.4825 13.068 61.8345 13.14 61.1505 13.284C61.1505 13.644 61.1145 14.148 60.9345 14.472C60.8625 14.616 60.3585 15.588 60.1065 16.092C59.8905 16.524 58.7025 19.692 58.2705 20.664C58.1625 20.88 57.6945 22.284 57.5865 22.5C57.4425 22.968 57.0825 23.544 56.5065 23.544ZM52.4025 7.48801C52.4025 5.32801 54.0945 3.24001 55.1025 2.34001C55.3905 2.08802 55.6425 2.19601 56.0025 2.05201C56.1825 1.98001 56.2905 1.80001 56.7225 1.80001C57.7305 1.80001 58.4505 3.02401 58.4505 4.10402C58.4505 6.33601 56.8305 8.85602 54.1305 8.96402C53.1945 9.00001 52.4025 8.46002 52.4025 7.48801ZM56.6865 3.42002C55.8585 3.92402 54.5265 5.86801 54.5265 7.23602C55.6065 7.23602 56.9385 5.47201 56.9385 4.10402C56.9385 3.81601 56.8305 3.60002 56.6865 3.42002ZM49.8105 27.108C49.8105 24.912 50.4225 24.516 51.4305 22.644C51.5025 22.5 51.7905 22.248 52.0425 22.212C52.4385 22.104 53.2305 22.104 53.3745 22.536C53.5545 23.004 53.0145 23.652 52.7985 24.012C52.3305 24.732 51.7545 25.488 51.7905 26.496C51.8265 27.072 52.2225 27.18 52.8345 27.036C55.4985 26.424 61.1505 25.02 63.6705 24.84C64.4625 24.768 64.5345 26.244 63.6345 26.352C62.6985 26.46 58.9185 27.468 55.7505 28.26C54.3465 28.62 52.9425 29.16 51.5385 29.16C50.3865 29.16 49.8105 28.152 49.8105 27.108ZM76.0961 19.188C76.0961 17.1 77.4281 14.976 78.0401 13.968C78.9041 12.564 80.5961 10.62 81.8921 8.67601C82.1801 8.20802 82.3601 7.56001 82.9361 7.48801C83.6921 7.45202 84.4121 7.92001 84.4121 8.67601C84.4121 9.00001 84.3761 9.21601 84.1961 9.43201C84.0521 9.57601 83.6561 9.97201 83.3681 10.296C83.3681 10.296 82.7201 11.196 82.5401 11.412C81.7121 12.42 81.1001 13.5 80.3441 14.688C81.6761 15.372 84.1961 16.308 86.2481 17.064C87.3281 17.46 86.8601 18.648 85.8881 18.432C83.7281 17.964 80.4161 16.884 79.1561 16.272C78.6521 16.812 78.2561 17.856 78.0401 18.468C77.8601 18.9 77.5361 20.088 77.0681 20.088C76.3481 20.088 76.0961 19.764 76.0961 19.188ZM89.9561 16.416C89.9201 14.04 90.2081 11.664 90.8921 9.18001C91.1081 8.64001 91.2161 7.88401 91.7561 7.88401H92.4041C92.9441 7.99201 93.1241 8.46002 93.0881 8.92801C93.0881 9.03602 93.0161 9.25201 92.9801 9.36002C92.4041 11.556 91.8641 14.364 91.8641 16.884C91.8641 17.64 91.9361 18.36 91.9361 19.152C91.9361 19.728 91.7201 19.98 91.2161 19.98C90.7121 19.98 90.3521 19.332 90.2801 18.972C90.0641 18 89.9561 17.352 89.9561 16.416ZM96.6651 17.352C96.4851 16.884 96.7731 16.308 96.8811 16.02C97.2411 15.192 98.1051 14.148 98.4291 13.536C99.2211 12.096 100.409 10.62 101.021 9.54002C101.777 8.28002 103.001 6.62402 103.001 5.29202C102.173 5.29202 100.913 5.68801 99.9771 6.30001C99.6531 6.51601 99.2571 6.91202 98.3931 7.20001C97.5651 7.48801 97.0611 6.51601 97.3491 5.86801C97.5651 5.36401 98.2131 4.86001 98.6451 4.60802C99.7611 3.96002 101.633 3.34801 102.893 3.34801C103.757 3.34801 105.197 3.49201 105.197 4.68001C105.197 6.94802 103.829 8.82001 102.749 10.764C102.497 11.196 101.777 12.06 101.381 12.96C101.957 13.248 103.217 13.644 103.541 13.716C104.225 13.896 105.629 14.148 105.989 14.184C106.493 14.256 106.781 14.4 106.781 14.976C106.781 15.84 105.845 15.876 105.161 15.804C103.433 15.624 102.209 15.372 100.193 14.796C100.193 14.796 99.4731 15.984 99.2931 16.236C98.9331 16.812 98.4291 17.784 97.7091 17.856C97.2411 17.892 96.8091 17.748 96.6651 17.352ZM110.705 29.484C110.705 28.512 110.849 27.756 111.065 26.748C111.353 25.596 111.569 24.84 112.037 23.76C112.649 22.284 112.829 21.708 113.441 19.872C113.585 19.476 113.333 19.008 112.577 19.008C110.921 19.008 109.769 19.404 108.293 20.448C107.897 20.736 107.429 21.276 106.853 21.276C106.385 21.276 106.061 20.592 106.061 20.052C106.061 19.08 109.445 17.604 110.381 17.424C111.821 17.136 112.865 16.92 114.269 17.1C115.133 17.208 115.529 17.748 115.529 18.612C115.529 20.484 114.881 21.672 114.269 23.436C113.945 24.372 112.973 26.676 112.793 27.432C112.685 27.972 112.361 29.376 112.361 29.484C112.325 29.844 112.145 30.816 111.749 30.816C111.065 30.816 110.705 30.096 110.705 29.484ZM111.965 8.02802C112.253 6.08402 112.433 5.54401 112.721 3.85201C112.793 3.34801 112.973 2.37601 113.225 1.83601C113.297 1.58401 113.801 1.51201 113.981 1.51201C114.593 1.51201 115.097 1.90801 115.097 2.48401C115.097 2.91602 115.025 3.38401 114.917 3.78002C114.521 5.36401 114.377 6.55201 114.053 8.13601C115.205 7.74001 116.717 7.30801 117.401 7.20001C118.193 6.98401 119.201 6.84001 120.425 6.94802C120.821 6.98401 120.929 7.41602 120.821 7.70402C120.749 7.84801 120.677 7.92001 120.569 7.99201C119.885 8.20802 119.345 8.31601 118.553 8.53202C116.753 9.07201 115.637 9.39601 113.873 10.296C113.765 11.736 113.765 12.816 113.909 13.932C113.945 14.256 114.053 14.76 114.089 15.048V15.156C114.089 15.624 113.333 15.804 113.153 15.804C112.757 15.84 112.433 15.444 112.253 14.976C112.109 14.652 112.001 14.22 111.929 13.644C111.857 12.996 111.785 12.276 111.785 11.52C111.785 11.304 111.821 9.14401 111.965 8.02802ZM125.583 30.024C125.727 29.016 127.491 27.432 128.823 26.28C130.335 24.912 132.711 23.22 133.359 22.428C131.523 22.5 130.047 22.464 128.283 22.464C126.123 22.464 126.267 20.556 127.455 19.548C127.923 19.152 130.047 17.1 130.623 16.56C130.983 16.2 131.595 15.84 131.631 15.552C129.795 15.66 128.427 15.876 127.419 16.056C126.627 16.2 125.403 16.524 124.323 16.596C123.675 16.668 123.387 16.092 123.387 15.588C123.387 15.228 123.819 14.796 124.539 14.616C126.663 13.896 130.587 13.68 131.595 13.68C132.783 13.68 133.755 14.256 133.755 15.3C133.755 16.74 131.235 18.396 129.795 19.8C129.651 19.98 129.327 20.268 128.931 20.628C129.687 20.664 130.371 20.664 131.127 20.664C131.415 20.664 133.647 20.7 133.755 20.7C136.491 20.7 135.879 22.428 134.691 23.436C134.547 23.616 131.919 25.92 131.451 26.28C130.803 26.784 128.823 28.692 127.851 29.592C128.643 29.592 130.047 29.412 131.163 29.268C132.531 29.088 134.943 28.548 135.375 28.512C135.627 28.44 136.203 28.332 136.635 28.332C137.103 28.332 137.319 29.484 135.699 29.988C133.755 30.6 129.291 31.428 127.455 31.5C126.231 31.536 125.439 30.996 125.583 30.024ZM121.335 11.448C121.371 11.052 121.803 10.8 121.983 10.728C125.367 9.50401 127.635 9.39601 129.651 9.36002C131.235 9.32401 132.459 9.43201 133.359 9.61202C134.187 9.79202 135.087 10.188 134.763 10.98C134.691 11.16 134.403 11.16 134.187 11.16C133.611 11.16 132.315 11.016 131.343 11.016C129.219 10.98 127.275 11.124 125.043 11.736C124.287 11.952 122.991 12.564 122.343 12.6C121.587 12.636 121.335 12.024 121.335 11.448ZM125.295 5.79602C125.295 3.63601 126.987 1.54801 127.995 0.648015C128.283 0.396014 128.535 0.504014 128.895 0.360014C129.075 0.288015 129.183 0.108015 129.615 0.108015C130.623 0.108015 131.343 1.33201 131.343 2.41201C131.343 4.64401 129.723 7.16401 127.023 7.27202C126.087 7.30801 125.295 6.76802 125.295 5.79602ZM129.579 1.72801C128.751 2.23201 127.419 4.17601 127.419 5.54401C128.499 5.54401 129.831 3.78002 129.831 2.41201C129.831 2.12402 129.723 1.90801 129.579 1.72801ZM5.39957 59.58C5.43557 60.912 3.70757 61.092 3.63557 60.048C3.56357 59.256 3.67157 58.14 3.81557 57.168C4.06757 55.584 4.49957 54.396 5.00357 53.46C5.36357 52.74 6.11957 52.524 6.76757 52.848C7.12757 53.028 7.19957 53.244 7.12757 53.712C7.05557 54.108 6.83957 54.396 6.65957 54.792C6.22757 55.8 5.83157 56.772 5.57957 57.852C5.47157 58.32 5.39957 59.076 5.39957 59.58ZM14.7596 62.388C15.0476 60.444 15.4076 59.256 15.6236 57.852C15.6956 57.348 15.9116 56.412 16.1276 55.836C16.2356 55.584 16.7036 55.512 16.8836 55.512C17.4956 55.512 17.9276 55.908 17.9276 56.484C17.9276 56.916 17.8196 57.384 17.7476 57.78C17.5676 58.788 17.0996 61.452 16.7756 63.036C17.9276 62.64 19.9796 62.028 20.6636 61.92C21.4556 61.704 22.4636 61.56 23.6876 61.668C24.0836 61.704 24.1916 62.136 24.0836 62.424C24.0116 62.568 23.9396 62.64 23.8316 62.712C23.1476 62.928 22.6076 63.036 21.8156 63.252C20.0156 63.792 18.3596 64.296 16.5956 65.196C16.4876 66.132 16.4516 67.032 16.5596 67.824C16.5956 68.148 16.7036 68.652 16.7396 68.94V69.048C16.7396 69.516 16.0556 69.696 15.8756 69.696C15.4796 69.732 15.1556 69.336 14.9756 68.868C14.8316 68.544 14.7236 68.112 14.6516 67.536C14.4716 65.916 14.5436 64.116 14.7596 62.388ZM2.84357 62.496C4.28357 62.136 6.51557 61.632 8.38757 61.704C9.14357 61.74 9.68357 61.848 10.3676 62.064C10.9436 62.244 11.1236 62.568 11.0876 63.036C11.0516 63.36 10.7276 63.432 10.1876 63.396C7.16357 63.216 4.13957 63.864 1.61957 65.124C0.68357 65.592 0.14357 65.232 0.0715704 64.62C-0.000429586 64.152 0.28757 63.72 0.61157 63.468C1.22357 63.036 2.19557 62.676 2.84357 62.496ZM2.44757 72.468C2.26757 72.144 2.12357 71.712 2.26757 70.668C2.33957 70.092 2.66357 69.3 3.09557 68.472C3.67157 67.392 4.78757 65.556 5.57957 65.448C6.19157 65.376 6.87557 65.7 6.83957 66.276C6.80357 66.672 6.65957 66.816 6.40757 67.212C6.87557 67.428 7.37957 67.932 7.55957 68.652C7.73957 69.444 7.66757 69.912 7.41557 70.596C7.05557 71.532 6.33557 72.36 5.47157 72.828C5.07557 73.044 4.39157 73.224 3.85157 73.224C3.38357 73.224 2.69957 72.936 2.44757 72.468ZM5.79557 68.472C5.29157 68.724 4.93157 69.192 4.57157 69.948C4.35557 70.416 4.21157 70.848 4.21157 71.316C4.89557 71.172 5.57957 70.74 5.86757 69.876C6.04757 69.336 5.93957 68.832 5.79557 68.472ZM13.1756 81.18C13.3196 80.46 14.5796 80.136 15.1556 79.704C15.2996 79.596 15.4796 79.38 15.5516 79.272C16.1996 78.12 16.6676 76.788 16.6676 75.42C16.6676 74.916 16.5236 74.448 15.9476 74.448C15.1916 74.448 14.3636 74.664 13.6436 75.06C12.3476 75.78 11.8436 76.32 11.5196 77.076C11.2316 77.688 11.0156 78.696 11.0156 80.1C11.0156 80.46 10.6556 80.712 10.0436 80.712C8.92757 80.712 9.21557 79.272 9.21557 78.552C9.21557 77.796 9.43157 75.744 9.64757 74.772C9.86357 73.944 10.0436 73.008 10.2596 72.144C10.5116 71.208 11.0156 70.884 11.8796 70.884C12.2036 70.884 12.7436 71.172 12.6356 71.604C12.4196 72.468 12.2396 73.188 12.0596 73.944C12.5996 73.692 13.1036 73.44 13.4276 73.296C14.3996 72.9 15.0116 72.684 15.8036 72.648C17.0636 72.576 17.9276 72.828 18.3956 73.764C18.7556 74.448 18.7916 75.816 18.4676 76.932C18.3956 77.184 17.9636 78.444 17.5316 78.984C18.3956 78.732 19.6556 78.516 20.2676 78.408C21.2396 78.228 22.6436 78.156 23.4716 78.228C24.0476 78.264 24.0116 79.488 23.3636 79.452C21.9236 79.596 19.5476 80.136 18.0716 80.676C17.5676 80.856 16.5596 81.216 16.1276 81.432C15.4436 81.792 14.6876 82.368 13.8956 82.296C13.3556 82.26 13.0676 81.612 13.1756 81.18ZM32.6738 73.692C32.7818 72.828 32.9618 72.144 33.1778 71.316C33.3938 70.488 33.6098 69.804 33.7538 68.94C33.9698 67.608 34.3658 65.844 34.3658 64.26C34.3658 63.936 34.2218 63.792 33.8978 63.792C33.5738 63.792 33.2138 63.972 32.8898 64.152C32.4938 64.368 32.1698 64.584 31.6298 64.584C31.4138 64.584 31.0898 64.512 30.8378 64.116C30.6938 63.864 30.7658 63.612 30.8018 63.468C30.9818 62.532 32.6018 61.884 34.3658 61.848C35.8778 61.812 36.4898 62.604 36.4898 64.26C36.4898 65.556 36.2738 66.96 35.9138 68.508C37.1018 68.004 38.6858 66.996 39.6218 66.276C40.9178 65.232 41.5298 64.44 41.7458 64.188C42.2858 63.612 42.5018 63.144 42.7538 62.712C43.1138 62.028 42.7898 61.344 43.2578 60.552C43.3658 60.336 43.8698 60.3 44.0498 60.3C44.6978 60.3 45.1298 60.768 45.1298 61.38C45.1298 62.46 44.6978 63.396 44.5898 64.404C44.5898 64.62 44.4818 65.376 44.4818 65.556C44.4818 66.888 44.4458 68.256 44.4458 69.552C44.4458 70.812 44.5538 72.036 44.8418 73.44C44.9858 74.16 45.2378 74.916 45.2738 75.672C45.3098 76.068 45.0578 76.5 44.5178 76.536C44.4098 76.536 44.2298 76.5 44.0858 76.392C43.5458 75.924 43.3298 75.204 43.1138 74.556C42.8618 73.8 42.5738 72.936 42.5018 72.108C42.3578 70.74 42.3938 69.012 42.3218 66.456C41.9258 66.816 41.5298 67.176 40.9538 67.644C40.7018 67.86 40.2338 68.22 39.9818 68.4C39.1538 69.048 36.9938 70.236 35.8778 70.236H35.5178C35.2298 71.28 34.9418 72.36 34.6538 73.476C34.5098 73.98 34.1858 74.52 33.5738 74.52C33.1418 74.52 32.6738 74.232 32.6738 73.8V73.692ZM26.5178 74.808C26.6258 73.944 26.8418 73.26 27.0938 72.432C27.3458 71.604 27.5978 70.92 27.8858 70.056C28.3178 68.76 28.5698 67.752 28.5698 66.168C28.5698 65.844 28.4258 65.664 28.1018 65.7C27.5618 65.772 27.4178 65.808 26.7698 66.204C26.3738 66.456 26.0498 66.636 25.5098 66.636C25.2938 66.636 24.9698 66.564 24.7178 66.168C24.5738 65.916 24.6458 65.664 24.6818 65.52C24.8618 64.584 26.8418 63.792 28.6058 63.756C30.1178 63.72 30.6938 64.584 30.6938 66.24C30.6938 69.156 29.5058 71.208 28.4978 74.592C28.3538 75.096 28.0298 75.636 27.4178 75.636C26.9858 75.636 26.5178 75.348 26.5178 74.916V74.808ZM47.9738 73.404C47.8658 72.252 47.7218 71.316 47.7578 69.912C47.8298 67.536 48.3338 65.232 48.5498 62.964C48.6578 61.884 48.7658 60.984 48.8018 59.94C48.9098 59.4 49.3778 59.22 49.8458 59.22C50.5658 59.22 50.9618 59.652 50.9618 60.336C50.9618 61.56 50.6738 62.784 50.5298 64.116C50.4578 64.908 49.9538 68.472 49.8818 69.264C49.8458 69.552 49.7018 72.288 49.7018 72.612C49.6658 73.404 49.4858 74.052 48.7658 74.052C48.4418 74.052 48.0098 73.764 47.9738 73.404ZM53.9259 67.608C53.9259 67.212 54.0699 66.78 54.5019 66.564C54.5019 66.564 55.4019 66.24 55.8339 66.132C56.6259 65.916 57.2379 65.664 58.0659 65.484C59.5059 65.16 60.8739 64.872 62.2419 64.656C63.1779 64.512 64.1499 64.512 64.2219 65.196C64.2939 65.844 63.8619 66.024 63.5379 66.096C61.5939 66.492 59.7939 66.996 57.9219 67.5C56.9139 67.788 55.7259 68.652 54.6819 68.652C54.1779 68.652 53.9259 68.148 53.9259 67.608ZM66.4179 75.492C66.3099 74.448 65.9859 72.864 65.9139 71.64C65.7699 69.516 65.8419 67.86 65.9499 65.988C66.0219 64.836 66.1299 64.008 66.5259 62.568C66.6339 62.064 67.3539 61.812 68.0739 62.1C68.6139 62.316 68.9019 62.748 68.8659 63.18C68.7939 64.008 68.3979 64.836 68.2899 65.592C68.0019 67.464 67.9659 69.516 68.1099 71.604C69.8379 70.2 71.8539 69.12 74.1219 68.796C74.7339 66.924 75.0219 65.664 75.5979 63.576C75.6699 63.288 75.9579 63.072 76.6779 63.072C77.2179 63.072 77.9019 63.216 77.9019 63.9C77.9019 64.584 77.6499 65.052 77.4339 65.772C76.7499 68.148 75.9579 70.452 75.5259 72.972C75.4539 73.188 75.1659 75.06 75.1299 75.42C75.0579 75.996 74.6979 76.212 74.2299 76.176C73.2219 76.068 73.2939 75.6 73.3659 74.304C73.4379 72.936 73.6539 71.388 73.8699 70.524C72.8979 70.596 68.4339 73.368 68.4339 74.052C68.4699 74.556 68.5059 75.096 68.5419 75.636C68.5779 76.176 67.8219 76.428 67.4619 76.428C66.7779 76.428 66.5259 76.068 66.4179 75.492ZM56.7699 60.84C56.7699 58.716 57.5979 55.728 58.2459 53.856C58.4259 53.352 58.8219 53.172 59.3979 53.172C59.5779 53.172 60.1899 53.316 60.1899 53.748C60.1899 54.324 60.1539 54.684 59.9379 55.296C59.7939 55.8 59.6499 56.376 59.3979 56.916C58.8579 58.14 58.5699 60.588 58.4979 61.92C58.4259 63.072 58.4619 64.08 57.7419 64.08C57.4899 64.08 57.1659 63.648 57.0579 63.324C56.8419 62.532 56.7699 61.632 56.7699 60.84ZM57.2019 75.024C57.2379 74.376 57.3819 73.836 57.5979 73.188C57.8139 72.648 58.3179 71.604 58.4979 71.316C58.7499 70.956 59.3619 69.84 59.8299 69.66C60.0099 69.624 60.2259 69.66 60.3339 69.66C60.7299 69.768 61.4139 70.092 61.2339 70.596C61.0899 70.92 60.9819 71.208 60.8379 71.604C60.9819 71.676 61.1979 71.856 61.3419 72C61.8099 72.396 62.0619 72.828 61.9899 74.016C61.9179 75.348 61.1979 76.536 59.8659 77.22C59.3619 77.472 58.6059 77.472 58.2459 77.364C57.3459 77.076 57.1659 75.816 57.2019 75.024ZM59.1459 75.096C59.1459 75.204 59.1099 75.492 59.1819 75.636C59.3259 75.636 59.5059 75.528 59.6499 75.42C60.1899 75.024 60.3699 74.484 60.3699 73.764C60.3699 73.332 60.3339 73.044 60.1899 72.792C59.7579 73.152 59.2539 74.196 59.1459 75.096ZM81.5564 65.772C82.4564 63.648 84.7244 61.092 84.7244 58.5C84.7244 58.14 84.5804 57.78 84.1844 57.78C83.1044 57.78 82.3484 58.644 80.9444 59.652C80.2964 60.12 79.6124 58.932 80.0804 58.284C80.4764 57.744 80.9444 57.312 81.6284 56.88C82.4924 56.34 83.6084 56.052 84.1844 56.052C85.5524 56.016 86.6324 56.412 86.6324 58.32C86.6324 59.04 86.4524 59.76 86.2364 60.48C88.0364 60.156 89.1524 60.084 91.0244 60.084C92.1404 60.084 93.4364 60.192 93.8684 60.228C95.1644 60.336 95.5604 60.552 95.5604 61.2C95.5604 61.632 95.2724 61.848 94.9484 61.848C93.5084 61.848 93.2924 61.812 91.0244 61.812C90.3044 61.812 89.6564 61.812 88.6484 61.884C87.4604 61.956 86.3804 62.172 85.7324 62.604C85.3004 62.892 84.6524 63.792 84.4724 64.08C84.3284 64.368 83.5724 65.664 83.4644 65.808C83.1044 66.384 82.8164 67.14 82.2044 67.14C81.3764 67.14 81.2684 66.456 81.5564 65.772ZM90.1244 85.572C90.1244 83.16 90.8804 75.78 91.2044 73.368C91.3124 72.54 91.3844 71.64 91.5284 70.812C91.6004 70.38 91.8884 69.948 92.3564 69.948C92.9324 69.948 93.6164 70.128 93.5084 70.92C93.2924 72.252 92.7164 76.356 92.5724 78.12C92.3564 80.496 91.9604 83.88 91.7804 85.572C91.7444 85.788 91.4924 86.688 90.9164 86.688C90.2324 86.688 90.1244 85.68 90.1244 85.572ZM81.4124 69.696C81.4124 69.516 81.6644 69.3 81.9164 69.192C85.9484 67.86 89.8364 66.636 93.9764 66.312C94.6964 66.276 97.6124 65.88 97.7204 67.392C97.7204 67.536 97.7564 67.68 97.4684 67.86C93.8684 68.004 90.8084 68.652 87.2804 69.48C86.3084 69.696 85.2284 70.056 84.3644 70.416C83.7164 70.74 83.1764 71.208 82.4924 71.244C81.8084 71.316 81.4844 70.812 81.4124 70.092V69.696ZM113.664 67.212C113.34 67.464 112.26 68.112 111.648 68.58C111.396 68.796 110.208 69.588 109.884 69.84C109.632 70.02 109.344 70.092 109.164 70.092C108.48 70.092 108.156 69.66 108.228 69.192C108.264 68.868 108.552 68.616 108.84 68.328C109.236 68.004 111.9 66.312 112.116 66.168C113.7 65.016 114.528 63.936 115.392 61.812C115.5 61.452 115.824 61.236 116.04 61.2C116.868 61.056 117.552 61.596 117.408 62.496C117.336 62.856 117.048 63.216 116.832 63.684C115.824 65.52 115.464 67.824 115.464 69.948C115.464 70.776 115.464 71.676 115.68 72.396C115.788 72.792 116.04 73.26 116.184 73.692C116.328 74.16 115.608 74.484 114.996 74.016C114.204 73.44 113.736 72.396 113.628 71.424C113.484 70.164 113.484 68.652 113.664 67.212ZM103.332 68.328C103.044 68.724 101.892 70.56 101.46 71.316C101.1 71.928 100.776 72.36 100.452 72.36C99.7679 72.36 99.4439 71.856 99.5519 71.244C99.7679 69.984 102.252 66.456 103.008 65.556C104.196 64.224 105.312 62.748 106.572 61.416C106.86 61.056 107.184 60.876 107.508 60.876C108.084 60.876 108.768 61.128 108.768 61.848C108.768 62.244 108.552 62.388 108.3 62.604C107.832 63.036 107.184 63.612 106.572 64.332C106.176 64.8 105.24 65.592 104.844 66.348C104.844 66.528 105.024 67.068 105.168 67.392C105.384 67.86 106.248 69.48 106.896 70.488C107.436 71.28 108.192 72 108.876 72.648C108.984 72.72 109.128 72.972 109.092 73.26C109.056 73.8 108.624 73.872 108.408 73.872C107.94 73.872 107.292 73.512 106.932 73.224C106.032 72.468 105.24 71.388 104.628 70.38C104.268 69.768 103.728 68.904 103.332 68.328ZM119.64 71.136C119.568 68.22 120.288 65.448 121.476 62.136C121.764 61.272 121.908 59.184 122.412 58.68C122.556 58.536 123.132 58.536 123.24 58.536C123.852 58.572 124.212 59.04 124.068 60.048C123.852 61.632 123.096 63.216 122.592 64.836C122.304 65.844 121.944 66.924 121.8 68.004C121.656 69.012 121.512 69.588 121.44 70.92C121.404 71.316 121.296 71.712 120.648 71.784C119.928 71.856 119.64 71.532 119.64 71.136ZM126.811 78.552C126.811 78.192 126.811 77.868 127.171 77.652C127.603 77.4 128.287 77.364 128.863 77.112C130.339 76.428 131.995 75.276 132.787 73.836C133.687 72.252 134.227 69.984 134.731 68.184C135.019 67.212 135.379 66.024 135.559 65.16C135.739 64.368 135.847 62.712 136.891 62.712C137.467 62.712 137.683 63.252 137.683 63.72C137.683 64.512 137.431 65.052 137.251 65.736C136.639 68.076 136.279 69.66 135.487 72.036C135.019 73.404 134.875 74.268 133.903 75.528C133.471 76.104 132.607 76.788 132.103 77.184C133.075 77.184 134.227 77.22 136.387 77.22C137.323 77.22 139.195 77.364 139.915 77.436C140.275 77.472 140.599 77.796 140.599 78.3C140.599 78.696 140.347 78.804 139.879 78.768C138.763 78.768 136.999 78.84 135.487 78.84C134.191 78.84 132.931 78.84 131.455 78.912C130.303 79.128 129.079 79.344 127.963 79.344C127.495 79.344 126.811 79.128 126.811 78.552ZM127.819 72.468C127.819 70.92 128.539 69.084 128.971 67.608C129.115 67.176 129.223 66.708 129.763 66.708C130.339 66.708 130.951 67.032 130.951 67.608C130.951 68.508 130.447 69.192 130.159 70.092C129.871 70.956 129.475 72.144 129.475 73.044C129.475 73.62 129.691 73.944 129.691 74.412C129.691 74.844 129.511 74.952 129.187 74.952C127.963 74.952 127.819 73.404 127.819 72.468ZM128.467 62.856C128.467 60.696 130.159 58.608 131.167 57.708C131.455 57.456 131.707 57.564 132.067 57.42C132.247 57.348 132.355 57.168 132.787 57.168C133.795 57.168 134.515 58.392 134.515 59.472C134.515 61.704 132.895 64.224 130.195 64.332C129.259 64.368 128.467 63.828 128.467 62.856ZM132.751 58.788C131.923 59.292 130.591 61.236 130.591 62.604C131.671 62.604 133.003 60.84 133.003 59.472C133.003 59.184 132.895 58.968 132.751 58.788Z" fill="#4B5563"/>
</svg>
