<svg width="203" height="31" viewBox="0 0 203 31" fill="none" xmlns="http://www.w3.org/2000/svg">
<path d="M18.936 7.41601C19.248 7.12801 19.548 7.10401 19.836 7.34401C19.908 7.39201 19.932 8.20801 19.908 9.79201C19.908 11.376 19.872 12.696 19.8 13.752C19.728 14.688 19.68 16.416 19.656 18.936C19.608 21.768 19.5 23.304 19.332 23.544C19.26 23.64 19.116 23.676 18.9 23.652C18.468 23.628 18.252 21.468 18.252 17.172C18.252 14.796 18.216 13.56 18.144 13.464C18.12 13.416 17.952 13.44 17.64 13.536C17.328 13.608 16.368 13.896 14.76 14.4C13.08 14.952 11.88 15.408 11.16 15.768C10.104 16.32 9.48001 16.272 9.28801 15.624C9.16801 15.24 9.26401 14.928 9.57601 14.688C9.91201 14.448 10.548 14.196 11.484 13.932C11.532 13.908 11.592 13.884 11.664 13.86C11.76 13.836 11.856 13.812 11.952 13.788C12.048 13.764 12.132 13.74 12.204 13.716C12.516 13.62 12.732 13.56 12.852 13.536C13.068 13.464 13.332 13.404 13.644 13.356C14.028 13.284 14.304 13.224 14.472 13.176C14.736 13.104 15.048 13.044 15.408 12.996C15.504 12.972 15.624 12.948 15.768 12.924C15.936 12.9 16.08 12.876 16.2 12.852C16.32 12.828 16.404 12.816 16.452 12.816C16.668 12.792 17.028 12.768 17.532 12.744C17.988 12.744 18.24 12.684 18.288 12.564C18.408 12.252 18.504 10.908 18.576 8.53201C18.6 8.12401 18.624 7.87201 18.648 7.77601C18.696 7.68001 18.792 7.56001 18.936 7.41601ZM5.58001 9.28801C6.01201 9.14401 6.36001 9.14401 6.62401 9.28801C6.88801 9.43201 7.02001 9.69601 7.02001 10.08C7.02001 10.464 6.60001 11.892 5.76001 14.364C5.56801 14.892 5.47201 15.252 5.47201 15.444C5.47201 15.636 5.54401 15.876 5.68801 16.164C6.19201 17.172 6.86401 18.3 7.70401 19.548C8.71201 21.036 9.07201 21.828 8.78401 21.924C8.44801 22.068 7.98001 21.804 7.38001 21.132C6.78001 20.46 6.16801 19.524 5.54401 18.324C5.20801 17.7 4.96801 17.304 4.82401 17.136C4.68001 16.968 4.54801 16.944 4.42801 17.064C4.30801 17.184 4.15201 17.52 3.96001 18.072C3.79201 18.6 3.52801 19.212 3.16801 19.908C2.78401 20.7 2.54401 21.204 2.44801 21.42C2.25601 21.828 2.06401 22.08 1.87201 22.176C1.68001 22.248 1.52401 22.14 1.40401 21.852C1.33201 21.684 1.30801 21.528 1.33201 21.384C1.38001 21.24 1.56001 20.784 1.87201 20.016C1.99201 19.656 2.05201 19.44 2.05201 19.368C2.05201 19.296 2.18401 18.996 2.44801 18.468C2.68801 17.94 2.80801 17.652 2.80801 17.604C2.80801 17.58 2.96401 17.244 3.27601 16.596C3.75601 15.588 4.05601 14.844 4.17601 14.364C4.22401 14.196 4.41601 13.752 4.75201 13.032C5.42401 11.568 5.54401 10.836 5.11201 10.836C4.70401 10.836 3.70801 11.364 2.12401 12.42C1.52401 12.828 1.10401 13.068 0.864008 13.14C0.624008 13.212 0.420008 13.152 0.252008 12.96C0.0840079 12.768 0.0480079 12.528 0.144008 12.24C0.240008 11.952 0.432008 11.76 0.720008 11.664C0.960008 11.568 1.27201 11.376 1.65601 11.088C2.56801 10.416 3.87601 9.81601 5.58001 9.28801ZM29.1774 4.71601C29.5614 4.64401 29.9214 4.64401 30.2574 4.71601C30.5934 4.76401 30.7974 4.88401 30.8694 5.07601C30.9174 5.19601 30.8814 5.32801 30.7614 5.47201C30.6654 5.59201 30.5214 5.66401 30.3294 5.68801C29.3454 5.90401 27.9654 6.38401 26.1894 7.12801C25.1814 7.53601 24.6534 7.75201 24.6054 7.77601C24.5574 7.80001 24.4254 7.74001 24.2094 7.59601C23.5614 7.04401 23.8734 6.46801 25.1454 5.86801C25.8894 5.50801 26.8614 5.20801 28.0614 4.96801C28.1334 4.94401 28.5054 4.86001 29.1774 4.71601ZM39.6894 6.66001C39.7854 6.51601 39.9294 6.43201 40.1214 6.40801C40.3374 6.38401 40.5174 6.42001 40.6614 6.51601C40.8774 6.68401 40.8534 9.27601 40.5894 14.292C40.5414 15.468 40.5054 17.652 40.4814 20.844C40.4574 23.892 40.3854 25.512 40.2654 25.704C40.1934 25.776 40.0734 25.812 39.9054 25.812C39.7374 25.812 39.6174 25.728 39.5454 25.56C39.4974 25.392 39.4254 24.96 39.3294 24.264C39.1854 22.92 39.1734 19.26 39.2934 13.284C39.3414 10.116 39.3774 8.26801 39.4014 7.74001C39.4494 7.18801 39.5454 6.82801 39.6894 6.66001ZM29.3934 8.60401C31.3374 8.34001 32.5374 8.41201 32.9934 8.82001C33.1374 8.96401 33.1254 9.12001 32.9574 9.28801C32.8374 9.40801 32.2974 9.49201 31.3374 9.54001C30.5694 9.56401 29.9694 9.63601 29.5374 9.75601C29.1054 9.85201 28.5054 10.068 27.7374 10.404C27.3294 10.596 26.8734 10.764 26.3694 10.908C25.5054 11.148 24.8934 11.34 24.5334 11.484C24.2694 11.58 24.0774 11.64 23.9574 11.664C23.8614 11.664 23.7414 11.616 23.5974 11.52C23.3814 11.376 23.3214 11.148 23.4174 10.836C23.5134 10.5 23.6934 10.332 23.9574 10.332C24.0294 10.332 24.2334 10.248 24.5694 10.08C25.6254 9.60001 26.4414 9.27601 27.0174 9.10801C27.5934 8.91601 28.3854 8.74801 29.3934 8.60401ZM28.4574 11.88C28.7214 11.616 28.9134 11.508 29.0334 11.556C29.1774 11.604 29.3214 11.82 29.4654 12.204C29.5134 12.396 29.5614 12.528 29.6094 12.6C29.6814 12.648 29.8014 12.708 29.9694 12.78C30.5454 12.948 30.8574 13.212 30.9054 13.572C30.9774 13.908 30.8574 14.7 30.5454 15.948C30.3774 16.668 30.1854 17.184 29.9694 17.496C29.7774 17.784 29.4414 18.048 28.9614 18.288C28.9134 18.312 28.8294 18.36 28.7094 18.432C28.5894 18.48 28.4574 18.54 28.3134 18.612C28.1694 18.684 28.0614 18.732 27.9894 18.756C27.4134 19.044 26.9934 19.116 26.7294 18.972C26.4894 18.828 26.3214 18.432 26.2254 17.784C26.1294 17.16 26.3454 16.14 26.8734 14.724C27.4254 13.308 27.9534 12.36 28.4574 11.88ZM29.7174 14.22C29.5014 13.5 29.1414 13.392 28.6374 13.896C28.3254 14.232 28.0494 14.784 27.8094 15.552C27.3534 16.968 27.3774 17.616 27.8814 17.496C27.9054 17.496 27.9294 17.496 27.9534 17.496C28.5774 17.256 29.0694 16.8 29.4294 16.128C29.8134 15.432 29.9094 14.796 29.7174 14.22ZM35.2254 20.34C35.3454 20.316 35.4654 20.292 35.5854 20.268C35.7294 20.244 35.8374 20.232 35.9094 20.232C35.9814 20.208 36.0174 20.196 36.0174 20.196C36.0894 20.172 36.1734 20.22 36.2694 20.34C36.3654 20.436 36.4014 20.532 36.3774 20.628C36.3534 20.772 36.1734 20.928 35.8374 21.096C35.5254 21.24 35.1894 21.336 34.8294 21.384C34.1814 21.48 32.8254 21.864 30.7614 22.536C30.2814 22.68 29.6934 22.92 28.9974 23.256C28.5654 23.448 28.0974 23.664 27.5934 23.904C25.8894 24.672 24.9294 24.888 24.7134 24.552C24.3534 24 24.7974 23.52 26.0454 23.112C26.6214 22.92 27.2694 22.656 27.9894 22.32C28.6134 22.056 29.5374 21.732 30.7614 21.348C32.0094 20.988 33.4974 20.652 35.2254 20.34ZM64.5269 0.216006C64.8629 0.072006 65.1989 0.0480063 65.5349 0.144006C65.8949 0.216007 66.0749 0.360007 66.0749 0.576007C66.0749 0.720007 65.9789 0.828007 65.7869 0.900007C65.6189 0.972007 65.0789 1.11601 64.1669 1.33201C61.9109 1.88401 60.5549 2.26801 60.0989 2.48401C59.7629 2.65201 59.5589 2.78401 59.4869 2.88001C59.4389 2.97601 59.4869 3.12001 59.6309 3.31201C59.7269 3.45601 59.7749 3.57601 59.7749 3.67201C59.7749 3.76801 59.7269 4.03201 59.6309 4.46401C59.4869 5.01601 59.3909 5.58001 59.3429 6.15601C59.3189 6.63601 59.3429 6.90001 59.4149 6.94801C59.5109 6.99601 59.8109 6.93601 60.3149 6.76801C60.9149 6.60001 61.8629 6.36001 63.1589 6.04801C63.4469 5.97601 63.7109 5.90401 63.9509 5.83201C64.5509 5.61601 65.1989 5.46001 65.8949 5.36401C66.6149 5.26801 67.0349 5.26801 67.1549 5.36401C67.4429 5.60401 67.3109 5.85601 66.7589 6.12001C66.5429 6.21601 66.2909 6.30001 66.0029 6.37201C65.5709 6.46801 64.9709 6.63601 64.2029 6.87601C63.4109 7.14001 62.9189 7.29601 62.7269 7.34401C62.5109 7.41601 62.0789 7.57201 61.4309 7.81201C60.8549 8.05201 60.4109 8.19601 60.0989 8.24401C59.8589 8.26801 59.5349 8.34001 59.1269 8.46001C58.6229 8.58001 58.2749 8.55601 58.0829 8.38801C57.8909 8.19601 57.7949 7.80001 57.7949 7.20001C57.8189 5.92801 57.9749 4.87201 58.2629 4.03201C58.3829 3.69601 58.4309 3.49201 58.4069 3.42001C58.4069 3.34801 58.3109 3.31201 58.1189 3.31201C57.7829 3.31201 57.5669 3.20401 57.4709 2.98801C57.3989 2.74801 57.4589 2.48401 57.6509 2.19601C57.7709 2.00401 57.9029 1.87201 58.0469 1.80001C58.2149 1.72801 58.5149 1.63201 58.9469 1.51201C59.7389 1.32001 60.3029 1.16401 60.6389 1.04401C61.2149 0.852007 61.8029 0.708007 62.4029 0.612007C62.7389 0.540006 63.0509 0.468007 63.3389 0.396008C63.5549 0.348007 63.7949 0.312006 64.0589 0.288007C64.2509 0.288007 64.4069 0.264006 64.5269 0.216006ZM69.2429 10.332C69.2909 10.308 69.3509 10.296 69.4229 10.296C69.5189 10.296 69.5909 10.296 69.6389 10.296C69.6869 10.272 69.7229 10.26 69.7469 10.26C69.8429 10.26 69.9269 10.296 69.9989 10.368C70.0709 10.44 70.1069 10.512 70.1069 10.584C70.1069 10.704 70.0229 10.824 69.8549 10.944C69.7109 11.04 69.5669 11.088 69.4229 11.088C69.1109 11.112 68.5469 11.244 67.7309 11.484C67.6109 11.508 67.2869 11.592 66.7589 11.736C65.9909 11.952 65.5589 12.096 65.4629 12.168C65.3909 12.216 65.3549 12.396 65.3549 12.708C65.3549 12.996 65.2709 13.392 65.1029 13.896C64.8869 14.616 64.6949 15.528 64.5269 16.632C64.3829 17.736 64.3589 18.408 64.4549 18.648C64.5029 18.744 64.7669 18.792 65.2469 18.792C65.9909 18.792 66.4949 18.948 66.7589 19.26C67.0229 19.548 67.1549 20.136 67.1549 21.024C67.1549 21.792 67.1309 22.32 67.0829 22.608C67.0349 22.872 66.9029 23.112 66.6869 23.328C66.4949 23.544 66.2789 23.868 66.0389 24.3C65.8229 24.756 65.5349 25.2 65.1749 25.632C64.8629 26.04 64.4669 26.592 63.9869 27.288C63.8909 27.432 63.7709 27.6 63.6269 27.792C63.4829 27.984 63.3629 28.14 63.2669 28.26C63.1949 28.404 63.1469 28.5 63.1229 28.548C62.7869 29.004 62.7869 29.232 63.1229 29.232C63.3149 29.256 63.6629 29.196 64.1669 29.052C67.1429 28.236 69.5189 27.792 71.2949 27.72C71.9909 27.696 72.4229 27.684 72.5909 27.684C72.7589 27.708 72.8549 27.756 72.8789 27.828C72.9269 27.948 72.9029 28.044 72.8069 28.116C72.7349 28.188 72.5909 28.248 72.3749 28.296C72.1349 28.32 71.8709 28.368 71.5829 28.44C71.4869 28.464 71.1269 28.524 70.5029 28.62C70.1429 28.668 69.8549 28.716 69.6389 28.764C68.9189 28.932 68.4389 29.04 68.1989 29.088C66.8069 29.4 65.7389 29.688 64.9949 29.952C64.7789 30.024 64.5029 30.108 64.1669 30.204C64.0949 30.228 63.9629 30.264 63.7709 30.312C63.6029 30.36 63.4829 30.384 63.4109 30.384C62.6189 30.6 62.0549 30.528 61.7189 30.168C61.4069 29.832 61.4309 29.316 61.7909 28.62C62.0069 28.164 62.3909 27.54 62.9429 26.748C63.4949 25.98 63.9509 25.404 64.3109 25.02C64.8149 24.468 65.1149 23.988 65.2109 23.58C65.2349 23.412 65.1509 23.316 64.9589 23.292C64.7669 23.244 64.5269 23.28 64.2389 23.4C63.7829 23.568 63.3149 23.82 62.8349 24.156C62.3069 24.492 61.9349 24.72 61.7189 24.84C61.5269 24.936 61.2629 25.092 60.9269 25.308C60.3989 25.668 60.0509 25.668 59.8829 25.308C59.6669 24.828 60.2069 24.288 61.5029 23.688C63.6389 22.68 64.9229 22.176 65.3549 22.176C65.6909 22.176 65.9429 21.996 66.1109 21.636C66.2789 21.252 66.3149 20.808 66.2189 20.304C66.0749 19.536 64.6109 19.548 61.8269 20.34C61.0349 20.556 60.5549 20.7 60.3869 20.772C60.2429 20.844 60.1349 20.976 60.0629 21.168C59.8709 21.6 59.6789 21.684 59.4869 21.42C59.3669 21.252 59.3189 21 59.3429 20.664C59.3669 20.328 59.4269 20.1 59.5229 19.98C59.6189 19.86 59.7749 19.812 59.9909 19.836C60.1589 19.836 60.5669 19.728 61.2149 19.512C61.8389 19.32 62.3189 19.176 62.6549 19.08C62.9909 19.008 63.1829 18.924 63.2309 18.828C63.2789 18.708 63.3029 18.348 63.3029 17.748C63.2789 16.212 63.4349 14.868 63.7709 13.716C63.9869 13.044 64.0829 12.66 64.0589 12.564C64.0589 12.444 63.9149 12.396 63.6269 12.42C63.3149 12.444 62.8829 12.564 62.3309 12.78C61.8749 12.924 61.2989 13.092 60.6029 13.284C59.4749 13.596 58.3949 13.944 57.3629 14.328C56.5469 14.664 55.9949 14.856 55.7069 14.904C55.4429 14.928 55.2389 14.832 55.0949 14.616C54.9029 14.304 54.9869 14.016 55.3469 13.752C55.7069 13.488 56.4029 13.2 57.4349 12.888C57.8909 12.744 58.3109 12.588 58.6949 12.42C58.7909 12.372 59.0549 12.288 59.4869 12.168C59.9189 12.072 60.3269 11.964 60.7109 11.844C61.2629 11.676 62.7149 11.364 65.0669 10.908C66.4349 10.62 67.8269 10.428 69.2429 10.332ZM102.603 2.41201C103.203 1.88401 103.527 2.20801 103.575 3.38401C103.575 3.93601 103.515 4.64401 103.395 5.50801C103.323 6.03601 103.263 6.91201 103.215 8.13601C103.023 11.496 102.723 13.176 102.315 13.176C102.099 13.176 101.967 13.068 101.919 12.852C101.871 12.612 101.859 11.988 101.883 10.98C101.931 8.89201 101.907 7.80001 101.811 7.70401C101.763 7.65601 101.667 7.68001 101.523 7.77601C101.379 7.84801 100.935 8.14801 100.191 8.67601C99.9265 8.86801 99.2665 9.22801 98.2105 9.75601C97.1785 10.284 96.6025 10.548 96.4825 10.548C96.4585 10.548 96.3145 10.596 96.0505 10.692C95.5705 10.908 95.2105 11.04 94.9705 11.088C94.7545 11.112 94.5145 11.064 94.2505 10.944C93.6985 10.704 93.6385 10.416 94.0705 10.08C94.2865 9.91201 94.5985 9.78001 95.0065 9.68401C95.2945 9.61201 95.7625 9.45601 96.4105 9.21601C97.1305 8.95201 97.8745 8.66401 98.6425 8.35201C99.6745 7.99201 100.503 7.59601 101.127 7.16401C101.487 6.92401 101.703 6.74401 101.775 6.62401C101.847 6.48001 101.895 6.15601 101.919 5.65201C101.967 5.14801 102.027 4.72801 102.099 4.39201C102.147 4.05601 102.207 3.68401 102.279 3.27601C102.327 2.82001 102.435 2.53201 102.603 2.41201ZM98.4985 4.24801C99.9865 3.91201 100.767 4.04401 100.839 4.64401C100.863 4.78801 100.767 4.90801 100.551 5.00401C100.359 5.07601 99.6265 5.29201 98.3545 5.65201C97.7545 5.82001 97.1305 6.04801 96.4825 6.33601C96.1945 6.45601 96.0385 6.51601 96.0145 6.51601C95.9905 6.51601 95.7385 6.62401 95.2585 6.84001C94.7545 7.08001 94.4185 7.22401 94.2505 7.27201C94.0825 7.29601 93.9505 7.27201 93.8545 7.20001C93.6145 7.03201 93.5425 6.82801 93.6385 6.58801C93.7585 6.32401 93.9985 6.09601 94.3585 5.90401C94.6705 5.76001 95.0185 5.58001 95.4025 5.36401C96.2185 4.93201 97.2505 4.56001 98.4985 4.24801ZM90.2905 4.39201C91.4425 4.15201 92.1025 4.35601 92.2705 5.00401C92.3665 5.34001 91.9585 6.86401 91.0465 9.57601C90.1585 12.288 89.5225 13.956 89.1385 14.58C88.8985 14.94 88.6825 15.072 88.4905 14.976C88.3225 14.88 88.2865 14.628 88.3825 14.22C88.8385 12.42 89.1985 11.112 89.4625 10.296C89.6305 9.81601 89.7145 9.50401 89.7145 9.36001C89.7145 9.26401 89.7745 9.00001 89.8945 8.56801C90.3265 7.03201 90.4705 6.13201 90.3265 5.86801C90.2065 5.60401 89.6665 5.70001 88.7065 6.15601C88.0105 6.49201 87.5665 6.69601 87.3745 6.76801C87.0145 6.93601 86.7265 7.08001 86.5105 7.20001C86.2465 7.34401 86.0305 7.36801 85.8625 7.27201C85.5505 7.12801 85.4425 6.91201 85.5385 6.62401C85.6345 6.31201 85.8985 6.07201 86.3305 5.90401C86.7865 5.71201 87.1945 5.53201 87.5545 5.36401C88.4905 4.90801 89.4025 4.58401 90.2905 4.39201ZM98.1745 16.488C98.6785 16.392 99.2425 16.404 99.8665 16.524C100.515 16.62 100.983 16.788 101.271 17.028C101.631 17.316 101.835 17.904 101.883 18.792C101.955 19.656 101.835 20.268 101.523 20.628C101.403 20.748 101.199 21.12 100.911 21.744C100.647 22.392 100.299 23.028 99.8665 23.652C98.4025 25.812 97.7425 27 97.8865 27.216C97.9825 27.36 98.3425 27.312 98.9665 27.072C101.679 26.112 103.611 25.536 104.763 25.344C105.195 25.272 105.567 25.212 105.879 25.164C106.335 25.068 106.815 25.02 107.319 25.02C107.847 24.996 108.147 25.008 108.219 25.056C108.459 25.272 108.327 25.452 107.823 25.596C107.607 25.668 107.295 25.74 106.887 25.812C105.975 26.004 104.883 26.292 103.611 26.676C102.363 27.084 101.427 27.42 100.803 27.684C99.7465 28.164 98.9425 28.452 98.3905 28.548C97.8145 28.644 97.3585 28.584 97.0225 28.368C96.7105 28.176 96.5545 27.864 96.5545 27.432C96.5545 27.144 96.8545 26.472 97.4545 25.416C98.0545 24.336 98.6665 23.364 99.2905 22.5C99.7705 21.852 100.011 21.396 100.011 21.132C100.011 20.82 99.4705 20.904 98.3905 21.384C97.9345 21.576 97.5265 21.804 97.1665 22.068C95.9665 22.884 95.2945 23.172 95.1505 22.932C95.1025 22.884 95.0785 22.8 95.0785 22.68C95.0305 22.152 95.4145 21.72 96.2305 21.384C96.5185 21.288 97.0465 21.06 97.8145 20.7C98.6065 20.316 99.0385 20.088 99.1105 20.016C99.4945 19.704 99.8305 19.548 100.119 19.548C100.407 19.548 100.611 19.404 100.731 19.116C100.851 18.828 100.863 18.516 100.767 18.18C100.671 17.844 100.491 17.628 100.227 17.532C99.6025 17.244 98.4745 17.388 96.8425 17.964C96.5545 18.06 96.2665 18.132 95.9785 18.18C95.6905 18.228 95.4865 18.288 95.3665 18.36C95.2705 18.432 95.1625 18.588 95.0425 18.828C94.8025 19.38 94.5745 19.524 94.3585 19.26C94.2385 19.116 94.2025 18.828 94.2505 18.396C94.2985 17.676 94.3825 17.208 94.5025 16.992C94.6465 16.776 94.8745 16.752 95.1865 16.92C95.4265 17.04 95.7025 17.076 96.0145 17.028C96.3025 16.932 96.7105 16.824 97.2385 16.704C97.6945 16.608 98.0065 16.536 98.1745 16.488ZM120.115 1.26001C120.595 1.14001 120.991 1.14001 121.303 1.26001C121.615 1.38001 121.747 1.58401 121.699 1.87201C121.651 2.04001 121.579 2.14801 121.483 2.19601C121.387 2.24401 121.159 2.26801 120.799 2.26801C120.391 2.26801 120.031 2.32801 119.719 2.44801C119.191 2.66401 118.579 2.89201 117.883 3.13201C116.995 3.44401 116.407 3.68401 116.119 3.85201C115.399 4.26001 114.919 4.50001 114.679 4.57201C114.463 4.64401 114.259 4.60801 114.067 4.46401C113.539 4.10401 113.791 3.60001 114.823 2.95201C115.663 2.44801 116.731 2.04001 118.027 1.72801C118.099 1.70401 118.231 1.66801 118.423 1.62001C118.639 1.57201 118.771 1.54801 118.819 1.54801C119.059 1.47601 119.263 1.42801 119.431 1.40401C119.503 1.38001 119.611 1.35601 119.755 1.33201C119.923 1.28401 120.043 1.26001 120.115 1.26001ZM120.907 4.68001C121.147 4.65601 121.747 4.65601 122.707 4.68001C123.667 4.70401 124.195 4.72801 124.291 4.75201C124.411 4.82401 124.483 4.93201 124.507 5.07601C124.531 5.19601 124.495 5.30401 124.399 5.40001C124.255 5.52001 123.931 5.59201 123.427 5.61601C122.467 5.66401 121.243 5.83201 119.755 6.12001C119.179 6.24001 118.555 6.44401 117.883 6.73201C117.379 6.94801 116.551 7.24801 115.399 7.63201C114.319 7.96801 113.515 8.25601 112.987 8.49601C112.555 8.68801 112.279 8.79601 112.159 8.82001C112.039 8.84401 111.955 8.79601 111.907 8.67601C111.739 8.34001 111.811 8.04001 112.123 7.77601C112.435 7.51201 113.119 7.15201 114.175 6.69601C114.343 6.62401 114.523 6.55201 114.715 6.48001C115.363 6.19201 116.287 5.84401 117.487 5.43601C118.495 5.07601 119.635 4.82401 120.907 4.68001ZM118.711 7.95601C118.999 7.78801 119.203 7.72801 119.323 7.77601C119.467 7.80001 119.587 7.95601 119.683 8.24401C119.731 8.43601 119.887 8.60401 120.151 8.74801C120.439 8.91601 120.619 9.09601 120.691 9.28801C120.763 9.45601 120.787 9.78001 120.763 10.26C120.691 11.556 120.259 12.684 119.467 13.644C119.035 14.172 118.819 14.652 118.819 15.084C118.819 15.204 118.747 15.564 118.603 16.164C118.435 16.788 118.339 17.4 118.315 18C118.267 18.576 118.291 18.888 118.387 18.936C118.483 18.984 118.951 18.876 119.791 18.612C120.535 18.348 120.955 18.216 121.051 18.216C121.171 18.216 121.315 18.192 121.483 18.144C121.915 18 122.719 17.832 123.895 17.64C124.279 17.592 124.903 17.556 125.767 17.532C126.655 17.484 127.171 17.472 127.315 17.496C127.723 17.616 127.711 17.808 127.279 18.072C126.919 18.312 126.463 18.456 125.911 18.504C124.255 18.696 122.383 19.128 120.295 19.8C118.207 20.448 116.359 21.192 114.751 22.032C114.175 22.32 113.767 22.488 113.527 22.536C113.311 22.56 113.143 22.464 113.023 22.248C112.927 22.08 112.927 21.876 113.023 21.636C113.119 21.396 113.287 21.204 113.527 21.06C114.295 20.532 115.087 20.148 115.903 19.908C116.455 19.74 116.767 19.608 116.839 19.512C116.911 19.392 116.959 18.948 116.983 18.18C117.055 16.812 117.115 15.768 117.163 15.048C117.187 14.952 117.175 14.892 117.127 14.868C117.079 14.844 116.959 14.82 116.767 14.796C116.287 14.796 115.999 14.448 115.903 13.752C115.855 13.368 115.963 12.768 116.227 11.952C116.491 11.136 116.791 10.476 117.127 9.97201C117.247 9.80401 117.379 9.54001 117.523 9.18001C117.715 8.70001 118.111 8.29201 118.711 7.95601ZM119.575 9.97201C119.455 9.66001 119.251 9.50401 118.963 9.50401C118.675 9.50401 118.459 9.66001 118.315 9.97201C118.027 10.548 117.691 11.364 117.307 12.42C117.163 12.828 117.139 13.104 117.235 13.248C117.331 13.368 117.559 13.368 117.919 13.248C118.495 13.08 118.963 12.624 119.323 11.88C119.707 11.136 119.791 10.5 119.575 9.97201ZM117.271 23.94C117.511 23.796 117.715 23.784 117.883 23.904C118.051 24 118.099 24.18 118.027 24.444C117.979 24.66 117.931 25.176 117.883 25.992C117.859 26.808 117.859 27.276 117.883 27.396C117.931 27.54 118.027 27.612 118.171 27.612C118.315 27.612 118.615 27.552 119.071 27.432C119.575 27.264 120.295 27.048 121.231 26.784C123.079 26.28 124.891 25.92 126.667 25.704C127.651 25.584 128.191 25.572 128.287 25.668C128.575 25.956 128.335 26.208 127.567 26.424C127.351 26.472 127.111 26.52 126.847 26.568C126.367 26.64 125.767 26.784 125.047 27C124.279 27.216 123.859 27.324 123.787 27.324C123.691 27.324 123.439 27.384 123.031 27.504C122.935 27.528 122.767 27.576 122.527 27.648C122.287 27.72 122.131 27.768 122.059 27.792C121.435 27.96 120.799 28.188 120.151 28.476C119.479 28.764 118.735 29.028 117.919 29.268C117.295 29.46 116.863 29.256 116.623 28.656C116.383 28.08 116.335 27.12 116.479 25.776C116.551 25.176 116.635 24.756 116.731 24.516C116.827 24.276 117.007 24.084 117.271 23.94ZM144.694 2.66401C144.79 2.54401 144.91 2.48401 145.054 2.48401C145.246 2.48401 145.378 2.53201 145.45 2.62801C145.546 2.70001 145.618 2.90401 145.666 3.24001C145.714 3.55201 145.726 3.97201 145.702 4.50001C145.702 5.02801 145.678 5.79601 145.63 6.80401C145.558 8.10001 145.606 8.77201 145.774 8.82001C145.846 8.84401 145.99 8.80801 146.206 8.71201C146.758 8.44801 147.346 8.22001 147.97 8.02801C150.49 7.21201 151.786 7.08001 151.858 7.63201C151.858 7.89601 151.258 8.18401 150.058 8.49601C149.29 8.71201 148.414 9.04801 147.43 9.50401C146.47 9.93601 145.894 10.272 145.702 10.512C145.606 10.608 145.558 11.22 145.558 12.348C145.558 13.86 145.414 14.628 145.126 14.652C145.03 14.652 144.91 14.616 144.766 14.544C144.646 14.448 144.562 14.256 144.514 13.968C144.466 13.656 144.418 12.852 144.37 11.556C144.298 10.068 144.25 9.30001 144.226 9.25201C144.202 9.20401 144.238 8.47201 144.334 7.05601C144.406 5.66401 144.466 4.62001 144.514 3.92401C144.538 3.25201 144.598 2.83201 144.694 2.66401ZM136.378 3.02401C136.738 2.95201 137.146 2.92801 137.602 2.95201C138.058 2.97601 138.31 3.03601 138.358 3.13201C138.454 3.30001 138.43 3.44401 138.286 3.56401C138.142 3.68401 137.842 3.81601 137.386 3.96001C136.354 4.24801 135.634 4.50001 135.226 4.71601C134.818 4.95601 134.206 5.14801 133.39 5.29201C133.006 5.36401 132.61 5.46001 132.202 5.58001C131.866 5.70001 131.638 5.74801 131.518 5.72401C131.398 5.70001 131.302 5.59201 131.23 5.40001C131.062 4.99201 131.326 4.60801 132.022 4.24801C132.742 3.86401 133.81 3.54001 135.226 3.27601C135.802 3.15601 136.186 3.07201 136.378 3.02401ZM136.378 6.33601C137.962 6.07201 138.85 6.18001 139.042 6.66001C139.09 6.75601 139.09 6.85201 139.042 6.94801C139.018 7.06801 138.922 7.15201 138.754 7.20001C138.586 7.24801 138.166 7.32001 137.494 7.41601C136.51 7.51201 135.406 7.78801 134.182 8.24401C132.718 8.77201 131.854 9.03601 131.59 9.03601C131.494 9.03601 131.314 9.10801 131.05 9.25201C130.786 9.37201 130.582 9.37201 130.438 9.25201C130.198 9.13201 130.114 8.94001 130.186 8.67601C130.282 8.41201 130.462 8.28001 130.726 8.28001C130.87 8.28001 131.134 8.16001 131.518 7.92001C132.766 7.17601 134.386 6.64801 136.378 6.33601ZM135.046 9.72001C135.262 9.55201 135.418 9.49201 135.514 9.54001C135.634 9.58801 135.73 9.76801 135.802 10.08C135.826 10.2 135.874 10.296 135.946 10.368C136.018 10.44 136.174 10.536 136.414 10.656C136.918 10.896 137.182 11.364 137.206 12.06C137.23 12.732 137.014 13.548 136.558 14.508C136.27 15.132 135.826 15.624 135.226 15.984C134.65 16.344 134.206 16.404 133.894 16.164C133.39 15.756 133.174 15.012 133.246 13.932C133.318 12.828 133.642 11.856 134.218 11.016C134.314 10.896 134.446 10.668 134.614 10.332C134.734 10.068 134.878 9.86401 135.046 9.72001ZM135.694 11.448C135.502 11.328 135.322 11.352 135.154 11.52C134.842 11.88 134.578 12.516 134.362 13.428C134.17 14.34 134.17 14.832 134.362 14.904C134.482 14.952 134.674 14.904 134.938 14.76C135.226 14.592 135.442 14.424 135.586 14.256C135.898 13.896 136.054 13.392 136.054 12.744C136.078 12.072 135.958 11.64 135.694 11.448ZM144.622 16.596C144.79 16.404 144.97 16.32 145.162 16.344C145.354 16.368 145.486 16.476 145.558 16.668C145.606 16.812 145.606 17.364 145.558 18.324C145.51 19.26 145.45 19.86 145.378 20.124C145.33 20.364 145.306 20.508 145.306 20.556C145.33 20.604 145.402 20.676 145.522 20.772C145.834 20.988 145.846 21.252 145.558 21.564C145.462 21.684 145.402 21.828 145.378 21.996C145.354 22.164 145.342 22.644 145.342 23.436V25.056H145.666C145.882 25.056 146.026 25.032 146.098 24.984C146.146 24.936 146.41 24.84 146.89 24.696C147.274 24.576 147.586 24.468 147.826 24.372C148.138 24.276 148.294 24.372 148.294 24.66C148.294 24.876 147.766 25.2 146.71 25.632C145.726 26.04 144.442 26.628 142.858 27.396C142.042 27.804 141.514 28.032 141.274 28.08C141.034 28.152 140.83 28.116 140.662 27.972C140.374 27.732 140.302 27.504 140.446 27.288C140.59 27.096 140.998 26.892 141.67 26.676C142.39 26.436 143.11 26.1 143.83 25.668C143.998 25.572 144.046 24.588 143.974 22.716C143.974 22.356 143.506 22.416 142.57 22.896C142.498 22.92 142.426 22.956 142.354 23.004C141.754 23.316 141.322 23.472 141.058 23.472C140.818 23.472 140.65 23.568 140.554 23.76C140.458 23.928 140.41 24.24 140.41 24.696C140.41 25.32 140.266 25.62 139.978 25.596C139.618 25.476 139.39 25.032 139.294 24.264C139.246 23.928 139.186 23.424 139.114 22.752C138.97 21.768 138.934 20.76 139.006 19.728C139.102 18.672 139.246 18.024 139.438 17.784C139.654 17.568 139.87 17.484 140.086 17.532C140.302 17.556 140.446 17.688 140.518 17.928C140.59 18.168 140.566 18.456 140.446 18.792C140.35 19.08 140.302 19.8 140.302 20.952C140.302 22.104 140.35 22.74 140.446 22.86C140.518 22.956 140.566 23.004 140.59 23.004C140.638 22.98 140.71 22.908 140.806 22.788C140.95 22.572 141.418 22.224 142.21 21.744C143.026 21.264 143.518 21.024 143.686 21.024C143.998 21.024 144.154 20.76 144.154 20.232C144.154 19.92 144.19 19.632 144.262 19.368C144.334 19.08 144.382 18.588 144.406 17.892C144.406 17.172 144.478 16.74 144.622 16.596ZM168.827 7.41601C169.211 7.08001 169.547 7.05601 169.835 7.34401C169.931 7.46401 169.967 10.044 169.943 15.084C169.919 20.124 169.847 22.788 169.727 23.076C169.559 23.436 169.367 23.544 169.151 23.4C168.599 23.064 168.395 17.88 168.539 7.84801C168.539 7.75201 168.635 7.60801 168.827 7.41601ZM155.003 10.368C155.267 10.08 155.567 10.104 155.903 10.44C156.071 10.584 156.155 10.716 156.155 10.836C156.179 10.956 156.143 11.22 156.047 11.628C155.879 12.444 155.675 13.896 155.435 15.984C155.339 16.776 155.267 17.352 155.219 17.712C155.123 18.312 155.099 18.636 155.147 18.684C155.219 18.78 156.263 18.48 158.279 17.784C162.479 16.368 164.687 15.852 164.903 16.236C164.903 16.452 164.687 16.68 164.255 16.92C163.823 17.136 163.067 17.412 161.987 17.748C161.147 18.012 160.571 18.216 160.259 18.36C160.163 18.408 159.683 18.612 158.819 18.972C158.243 19.188 157.715 19.416 157.235 19.656C156.851 19.872 156.455 20.016 156.047 20.088C155.663 20.16 155.315 20.256 155.003 20.376C154.499 20.592 154.139 20.616 153.923 20.448C153.707 20.256 153.623 19.872 153.671 19.296C153.815 17.544 153.923 16.344 153.995 15.696C154.235 13.992 154.403 12.756 154.499 11.988C154.547 11.436 154.595 11.076 154.643 10.908C154.715 10.716 154.835 10.536 155.003 10.368ZM187.47 8.82001C187.71 8.65201 187.938 8.62801 188.154 8.74801C188.394 8.84401 188.49 9.02401 188.442 9.28801C188.274 9.93601 188.154 11.124 188.082 12.852C188.01 14.556 188.046 15.48 188.19 15.624C188.262 15.72 188.322 15.756 188.37 15.732C188.442 15.708 188.598 15.624 188.838 15.48C189.678 14.856 191.022 14.292 192.87 13.788C192.918 13.788 192.978 13.776 193.05 13.752C193.122 13.728 193.194 13.704 193.266 13.68C193.362 13.656 193.434 13.644 193.482 13.644C194.85 13.236 195.834 12.984 196.434 12.888C196.794 12.816 197.358 12.672 198.126 12.456C200.31 11.928 201.774 11.652 202.518 11.628C202.686 11.628 202.782 11.64 202.806 11.664C202.854 11.688 202.878 11.76 202.878 11.88C202.902 12 202.818 12.12 202.626 12.24C202.458 12.36 202.17 12.492 201.762 12.636C201.378 12.756 200.886 12.9 200.286 13.068C199.302 13.308 198.57 13.512 198.09 13.68C197.514 13.848 196.578 14.112 195.282 14.472C192.714 15.192 190.986 15.756 190.098 16.164C189.57 16.404 189.126 16.464 188.766 16.344C188.502 16.248 188.346 16.308 188.298 16.524C188.25 16.716 188.226 17.292 188.226 18.252C188.226 19.86 188.094 20.664 187.83 20.664C187.782 20.664 187.722 20.64 187.65 20.592C187.482 20.472 187.326 20.004 187.182 19.188C187.038 18.372 186.966 17.544 186.966 16.704C186.966 16.2 186.93 15.744 186.858 15.336C186.786 14.928 186.786 13.872 186.858 12.168C186.906 10.824 186.966 9.97201 187.038 9.61201C187.11 9.22801 187.254 8.96401 187.47 8.82001ZM181.818 9.75601C182.658 9.61201 183.138 9.70801 183.258 10.044C183.306 10.188 183.222 10.344 183.006 10.512C182.838 10.632 182.274 10.812 181.314 11.052C180.858 11.148 180.534 11.232 180.342 11.304C180.054 11.376 179.838 11.436 179.694 11.484C179.622 11.508 179.49 11.544 179.298 11.592C179.13 11.64 179.034 11.664 179.01 11.664C178.506 11.808 178.038 11.928 177.606 12.024C177.342 12.096 176.97 12.192 176.49 12.312C175.89 12.48 175.29 12.612 174.69 12.708C174.09 12.804 173.742 12.828 173.646 12.78C173.454 12.636 173.358 12.48 173.358 12.312C173.358 12.12 173.466 11.94 173.682 11.772C173.898 11.58 174.174 11.448 174.51 11.376C174.75 11.328 175.086 11.232 175.518 11.088C175.95 10.968 176.946 10.74 178.506 10.404C180.09 10.068 181.194 9.85201 181.818 9.75601ZM176.958 13.392C177.294 13.152 177.534 13.164 177.678 13.428C177.774 13.62 177.378 15.12 176.49 17.928C175.986 19.392 175.77 20.232 175.842 20.448C175.914 20.568 176.346 20.52 177.138 20.304C177.546 20.208 177.93 20.112 178.29 20.016C178.842 19.92 179.718 19.692 180.918 19.332C180.918 19.332 181.266 19.236 181.962 19.044C182.01 19.044 182.082 19.032 182.178 19.008C182.274 18.984 182.358 18.96 182.43 18.936C182.502 18.912 182.562 18.888 182.61 18.864C182.874 18.792 183.246 18.744 183.726 18.72C184.23 18.696 184.518 18.72 184.59 18.792C184.926 19.056 184.626 19.356 183.69 19.692C183.498 19.74 183.294 19.8 183.078 19.872C181.902 20.184 180.69 20.568 179.442 21.024C178.578 21.336 177.786 21.588 177.066 21.78C176.802 21.852 176.298 21.996 175.554 22.212C174.69 22.428 174.294 21.984 174.366 20.88C174.39 20.04 174.678 18.852 175.23 17.316C175.254 17.268 175.35 16.992 175.518 16.488C175.71 15.984 175.854 15.612 175.95 15.372C176.358 14.244 176.694 13.584 176.958 13.392Z" fill="#6B7280"/>
</svg>
