<svg width="16" height="17" viewBox="0 0 16 17" fill="none" xmlns="http://www.w3.org/2000/svg">
<path d="M9.66634 8.83317C9.66634 9.2752 9.49075 9.69912 9.17819 10.0117C8.86562 10.3242 8.4417 10.4998 7.99967 10.4998C7.55765 10.4998 7.13372 10.3242 6.82116 10.0117C6.5086 9.69912 6.33301 9.2752 6.33301 8.83317C6.33301 8.39114 6.5086 7.96722 6.82116 7.65466C7.13372 7.3421 7.55765 7.1665 7.99967 7.1665C8.4417 7.1665 8.86562 7.3421 9.17819 7.65466C9.49075 7.96722 9.66634 8.39114 9.66634 8.83317Z" stroke="#5A5A5A" stroke-width="1.2" stroke-linecap="round" stroke-linejoin="round"/>
<path d="M7.99982 2.5C9.47315 2.5 10.6652 3.778 10.6652 5.25133C10.8794 5.19489 11.102 5.16667 11.3332 5.16667C11.939 5.16638 12.5268 5.3724 13 5.75079C13.4731 6.12919 13.8033 6.65741 13.9361 7.24849C14.069 7.83957 13.9967 8.45827 13.731 9.00274C13.4653 9.54721 13.0222 9.98499 12.4745 10.244C12.6914 10.5372 12.8459 10.8718 12.9284 11.2272C13.0109 11.5825 13.0196 11.9509 12.954 12.3098C12.8884 12.6686 12.7499 13.0101 12.547 13.3133C12.3441 13.6164 12.0812 13.8747 11.7745 14.0722C11.4678 14.2697 11.1239 14.4021 10.764 14.4614C10.4041 14.5206 10.0358 14.5054 9.68201 14.4167C9.32821 14.3279 8.99637 14.1675 8.70703 13.9454C8.41768 13.7233 8.17699 13.4442 7.99982 13.1253C7.82265 13.4442 7.58195 13.7233 7.29261 13.9454C7.00327 14.1675 6.67143 14.3279 6.31763 14.4167C5.96383 14.5054 5.59558 14.5206 5.23566 14.4614C4.87574 14.4021 4.5318 14.2697 4.22511 14.0722C3.91843 13.8747 3.65552 13.6164 3.45265 13.3133C3.24978 13.0101 3.11125 12.6686 3.04564 12.3098C2.98004 11.9509 2.98874 11.5825 3.07122 11.2272C3.15369 10.8718 3.30819 10.5372 3.52515 10.244C2.92318 9.96125 2.44858 9.46377 2.19449 8.84915C1.94039 8.23453 1.92513 7.54715 2.1517 6.92186C2.37828 6.29657 2.83033 5.77852 3.41916 5.46933C4.008 5.16015 4.69111 5.08216 5.33449 5.25067C5.33449 3.77867 6.52715 2.5 7.99982 2.5Z" stroke="#5A5A5A" stroke-width="1.2" stroke-linecap="round" stroke-linejoin="round"/>
</svg>
