<svg width="102" height="22" viewBox="0 0 102 22" fill="none" xmlns="http://www.w3.org/2000/svg">
<path d="M3.18 13.7801H7.78V16.0001H0.380005V2.04007H3.18V13.7801Z" fill="white"/>
<path d="M10.9797 3.60007C10.4864 3.60007 10.073 3.44674 9.73969 3.14007C9.41969 2.82007 9.25969 2.42673 9.25969 1.96007C9.25969 1.4934 9.41969 1.10673 9.73969 0.800068C10.073 0.480068 10.4864 0.320068 10.9797 0.320068C11.473 0.320068 11.8797 0.480068 12.1997 0.800068C12.533 1.10673 12.6997 1.4934 12.6997 1.96007C12.6997 2.42673 12.533 2.82007 12.1997 3.14007C11.8797 3.44674 11.473 3.60007 10.9797 3.60007ZM12.3597 4.92007V16.0001H9.55969V4.92007H12.3597Z" fill="white"/>
<path d="M21.2661 4.76007C22.5861 4.76007 23.6528 5.18007 24.4661 6.02007C25.2794 6.84674 25.6861 8.00674 25.6861 9.50007V16.0001H22.8861V9.88007C22.8861 9.00007 22.6661 8.32674 22.2261 7.86007C21.7861 7.38007 21.1861 7.14007 20.4261 7.14007C19.6528 7.14007 19.0394 7.38007 18.5861 7.86007C18.1461 8.32674 17.9261 9.00007 17.9261 9.88007V16.0001H15.1261V4.92007H17.9261V6.30007C18.2994 5.82007 18.7728 5.44674 19.3461 5.18007C19.9328 4.90007 20.5728 4.76007 21.2661 4.76007Z" fill="white"/>
<path d="M34.9088 16.0001L31.1488 11.2801V16.0001H28.3488V1.20007H31.1488V9.62007L34.8688 4.92007H38.5088L33.6288 10.4801L38.5488 16.0001H34.9088Z" fill="white"/>
<path d="M53.7884 4.76007C55.1484 4.76007 56.2418 5.18007 57.0684 6.02007C57.9084 6.84674 58.3284 8.00674 58.3284 9.50007V16.0001H55.5284V9.88007C55.5284 9.0134 55.3084 8.3534 54.8684 7.90007C54.4284 7.4334 53.8284 7.20007 53.0684 7.20007C52.3084 7.20007 51.7018 7.4334 51.2484 7.90007C50.8084 8.3534 50.5884 9.0134 50.5884 9.88007V16.0001H47.7884V9.88007C47.7884 9.0134 47.5684 8.3534 47.1284 7.90007C46.6884 7.4334 46.0884 7.20007 45.3284 7.20007C44.5551 7.20007 43.9418 7.4334 43.4884 7.90007C43.0484 8.3534 42.8284 9.0134 42.8284 9.88007V16.0001H40.0284V4.92007H42.8284V6.26007C43.1884 5.7934 43.6484 5.42674 44.2084 5.16007C44.7818 4.8934 45.4084 4.76007 46.0884 4.76007C46.9551 4.76007 47.7284 4.94674 48.4084 5.32007C49.0884 5.68007 49.6151 6.20007 49.9884 6.88007C50.3484 6.24007 50.8684 5.72674 51.5484 5.34007C52.2418 4.9534 52.9884 4.76007 53.7884 4.76007Z" fill="white"/>
<path d="M60.2655 10.4201C60.2655 9.30007 60.4855 8.30674 60.9255 7.44007C61.3788 6.5734 61.9855 5.90674 62.7455 5.44007C63.5188 4.9734 64.3788 4.74007 65.3255 4.74007C66.1521 4.74007 66.8721 4.90674 67.4855 5.24007C68.1121 5.5734 68.6121 5.9934 68.9855 6.50007V4.92007H71.8055V16.0001H68.9855V14.3801C68.6255 14.9001 68.1255 15.3334 67.4855 15.6801C66.8588 16.0134 66.1321 16.1801 65.3055 16.1801C64.3721 16.1801 63.5188 15.9401 62.7455 15.4601C61.9855 14.9801 61.3788 14.3067 60.9255 13.4401C60.4855 12.5601 60.2655 11.5534 60.2655 10.4201ZM68.9855 10.4601C68.9855 9.78007 68.8521 9.20007 68.5855 8.72007C68.3188 8.22674 67.9588 7.8534 67.5055 7.60007C67.0521 7.3334 66.5655 7.20007 66.0455 7.20007C65.5255 7.20007 65.0455 7.32674 64.6055 7.58007C64.1655 7.8334 63.8055 8.20674 63.5255 8.70007C63.2588 9.18007 63.1255 9.7534 63.1255 10.4201C63.1255 11.0867 63.2588 11.6734 63.5255 12.1801C63.8055 12.6734 64.1655 13.0534 64.6055 13.3201C65.0588 13.5867 65.5388 13.7201 66.0455 13.7201C66.5655 13.7201 67.0521 13.5934 67.5055 13.3401C67.9588 13.0734 68.3188 12.7001 68.5855 12.2201C68.8521 11.7267 68.9855 11.1401 68.9855 10.4601Z" fill="white"/>
<path d="M77.3402 6.64007C77.7002 6.0534 78.1668 5.5934 78.7402 5.26007C79.3268 4.92674 79.9935 4.76007 80.7402 4.76007V7.70007H80.0002C79.1202 7.70007 78.4535 7.90674 78.0002 8.32007C77.5602 8.7334 77.3402 9.4534 77.3402 10.4801V16.0001H74.5402V4.92007H77.3402V6.64007Z" fill="white"/>
<path d="M85.4261 6.64007C85.7861 6.0534 86.2528 5.5934 86.8261 5.26007C87.4128 4.92674 88.0794 4.76007 88.8261 4.76007V7.70007H88.0861C87.2061 7.70007 86.5394 7.90674 86.0861 8.32007C85.6461 8.7334 85.4261 9.4534 85.4261 10.4801V16.0001H82.6261V4.92007H85.4261V6.64007Z" fill="white"/>
<path d="M101.312 4.92007L94.452 21.2401H91.472L93.872 15.7201L89.432 4.92007H92.572L95.432 12.6601L98.332 4.92007H101.312Z" fill="white"/>
</svg>
