<svg width="134" height="48" viewBox="0 0 134 48" fill="none" xmlns="http://www.w3.org/2000/svg">
<rect width="134" height="48" fill="white"/>
<path d="M22.18 16.2V31H19.38V16.2H22.18ZM26.3664 18.6C25.8731 18.6 25.4597 18.4467 25.1264 18.14C24.8064 17.82 24.6464 17.4267 24.6464 16.96C24.6464 16.4933 24.8064 16.1067 25.1264 15.8C25.4597 15.48 25.8731 15.32 26.3664 15.32C26.8597 15.32 27.2664 15.48 27.5864 15.8C27.9197 16.1067 28.0864 16.4933 28.0864 16.96C28.0864 17.4267 27.9197 17.82 27.5864 18.14C27.2664 18.4467 26.8597 18.6 26.3664 18.6ZM27.7464 19.92V31H24.9464V19.92H27.7464ZM36.6528 19.76C37.9728 19.76 39.0395 20.18 39.8528 21.02C40.6661 21.8467 41.0728 23.0067 41.0728 24.5V31H38.2728V24.88C38.2728 24 38.0528 23.3267 37.6128 22.86C37.1728 22.38 36.5728 22.14 35.8128 22.14C35.0395 22.14 34.4261 22.38 33.9728 22.86C33.5328 23.3267 33.3128 24 33.3128 24.88V31H30.5128V19.92H33.3128V21.3C33.6861 20.82 34.1595 20.4467 34.7328 20.18C35.3195 19.9 35.9595 19.76 36.6528 19.76ZM50.2955 31L46.5355 26.28V31H43.7355V16.2H46.5355V24.62L50.2555 19.92H53.8955L49.0155 25.48L53.9355 31H50.2955ZM69.1752 19.76C70.5352 19.76 71.6285 20.18 72.4552 21.02C73.2952 21.8467 73.7152 23.0067 73.7152 24.5V31H70.9152V24.88C70.9152 24.0133 70.6952 23.3533 70.2552 22.9C69.8152 22.4333 69.2152 22.2 68.4552 22.2C67.6952 22.2 67.0885 22.4333 66.6352 22.9C66.1952 23.3533 65.9752 24.0133 65.9752 24.88V31H63.1752V24.88C63.1752 24.0133 62.9552 23.3533 62.5152 22.9C62.0752 22.4333 61.4752 22.2 60.7152 22.2C59.9418 22.2 59.3285 22.4333 58.8752 22.9C58.4352 23.3533 58.2152 24.0133 58.2152 24.88V31H55.4152V19.92H58.2152V21.26C58.5752 20.7933 59.0352 20.4267 59.5952 20.16C60.1685 19.8933 60.7952 19.76 61.4752 19.76C62.3418 19.76 63.1152 19.9467 63.7952 20.32C64.4752 20.68 65.0018 21.2 65.3752 21.88C65.7352 21.24 66.2552 20.7267 66.9352 20.34C67.6285 19.9533 68.3752 19.76 69.1752 19.76ZM75.6522 25.42C75.6522 24.3 75.8722 23.3067 76.3122 22.44C76.7655 21.5733 77.3722 20.9067 78.1322 20.44C78.9055 19.9733 79.7655 19.74 80.7122 19.74C81.5389 19.74 82.2589 19.9067 82.8722 20.24C83.4989 20.5733 83.9989 20.9933 84.3722 21.5V19.92H87.1922V31H84.3722V29.38C84.0122 29.9 83.5122 30.3333 82.8722 30.68C82.2455 31.0133 81.5189 31.18 80.6922 31.18C79.7589 31.18 78.9055 30.94 78.1322 30.46C77.3722 29.98 76.7655 29.3067 76.3122 28.44C75.8722 27.56 75.6522 26.5533 75.6522 25.42ZM84.3722 25.46C84.3722 24.78 84.2389 24.2 83.9722 23.72C83.7055 23.2267 83.3455 22.8533 82.8922 22.6C82.4389 22.3333 81.9522 22.2 81.4322 22.2C80.9122 22.2 80.4322 22.3267 79.9922 22.58C79.5522 22.8333 79.1922 23.2067 78.9122 23.7C78.6455 24.18 78.5122 24.7533 78.5122 25.42C78.5122 26.0867 78.6455 26.6733 78.9122 27.18C79.1922 27.6733 79.5522 28.0533 79.9922 28.32C80.4455 28.5867 80.9255 28.72 81.4322 28.72C81.9522 28.72 82.4389 28.5933 82.8922 28.34C83.3455 28.0733 83.7055 27.7 83.9722 27.22C84.2389 26.7267 84.3722 26.14 84.3722 25.46ZM92.7269 21.64C93.0869 21.0533 93.5535 20.5933 94.1269 20.26C94.7135 19.9267 95.3802 19.76 96.1269 19.76V22.7H95.3869C94.5069 22.7 93.8402 22.9067 93.3869 23.32C92.9469 23.7333 92.7269 24.4533 92.7269 25.48V31H89.9269V19.92H92.7269V21.64ZM100.813 21.64C101.173 21.0533 101.639 20.5933 102.213 20.26C102.799 19.9267 103.466 19.76 104.213 19.76V22.7H103.473C102.593 22.7 101.926 22.9067 101.473 23.32C101.033 23.7333 100.813 24.4533 100.813 25.48V31H98.0128V19.92H100.813V21.64ZM116.699 19.92L109.839 36.24H106.859L109.259 30.72L104.819 19.92H107.959L110.819 27.66L113.719 19.92H116.699Z" fill="#FFA3B0"/>
</svg>
