<svg width="298" height="62" viewBox="0 0 298 62" fill="current" xmlns="http://www.w3.org/2000/svg">
<path d="M8.26695 39.891H21.8484V46.4704H0V5.09752H8.26695V39.891Z" fill="#FFA3B0"/>
<path d="M31.2954 9.72084C29.8388 9.72084 28.6185 9.26641 27.6343 8.35755C26.6895 7.40918 26.2171 6.24347 26.2171 4.86042C26.2171 3.47737 26.6895 2.33142 27.6343 1.42256C28.6185 0.474187 29.8388 0 31.2954 0C32.7519 0 33.9526 0.474187 34.8974 1.42256C35.8816 2.33142 36.3737 3.47737 36.3737 4.86042C36.3737 6.24347 35.8816 7.40918 34.8974 8.35755C33.9526 9.26641 32.7519 9.72084 31.2954 9.72084ZM35.3698 13.6329V46.4704H27.1029V13.6329H35.3698Z" fill="#FFA3B0"/>
<path d="M61.6658 13.1587C65.5631 13.1587 68.7124 14.4034 71.1138 16.8929C73.5151 19.3429 74.7158 22.7808 74.7158 27.2065V46.4704H66.4488V28.3327C66.4488 25.7247 65.7993 23.7291 64.5002 22.3461C63.2011 20.9235 61.4296 20.2122 59.1857 20.2122C56.9025 20.2122 55.0916 20.9235 53.7532 22.3461C52.4541 23.7291 51.8045 25.7247 51.8045 28.3327V46.4704H43.5376V13.6329H51.8045V17.7228C52.9068 16.3002 54.3043 15.1938 55.997 14.4034C57.7292 13.5736 59.6188 13.1587 61.6658 13.1587Z" fill="#FFA3B0"/>
<path d="M101.946 46.4704L90.8442 32.4818V46.4704H82.5772V2.60803H90.8442V27.5621L101.827 13.6329H112.574L98.1663 30.1109L112.693 46.4704H101.946Z" fill="#FFA3B0"/>
<path d="M157.687 13.1587C161.703 13.1587 164.931 14.4034 167.372 16.8929C169.852 19.3429 171.092 22.7808 171.092 27.2065V46.4704H162.825V28.3327C162.825 25.7642 162.175 23.8082 160.876 22.4646C159.577 21.0816 157.806 20.3901 155.562 20.3901C153.318 20.3901 151.527 21.0816 150.188 22.4646C148.889 23.8082 148.24 25.7642 148.24 28.3327V46.4704H139.973V28.3327C139.973 25.7642 139.323 23.8082 138.024 22.4646C136.725 21.0816 134.953 20.3901 132.709 20.3901C130.426 20.3901 128.615 21.0816 127.277 22.4646C125.978 23.8082 125.328 25.7642 125.328 28.3327V46.4704H117.061V13.6329H125.328V17.6042C126.391 16.2212 127.749 15.1345 129.403 14.3442C131.095 13.5539 132.946 13.1587 134.953 13.1587C137.512 13.1587 139.795 13.7119 141.803 14.8184C143.811 15.8853 145.366 17.4264 146.468 19.4417C147.531 17.5449 149.066 16.0236 151.074 14.8776C153.121 13.7317 155.325 13.1587 157.687 13.1587Z" fill="#FFA3B0"/>
<path d="M176.811 29.9331C176.811 26.6138 177.46 23.6699 178.759 21.1013C180.098 18.5328 181.889 16.557 184.133 15.174C186.416 13.7909 188.955 13.0994 191.75 13.0994C194.191 13.0994 196.317 13.5934 198.128 14.5813C199.978 15.5692 201.454 16.8139 202.556 18.3155V13.6329H210.882V46.4704H202.556V41.6692C201.494 43.2103 200.017 44.4946 198.128 45.522C196.277 46.5099 194.132 47.0038 191.691 47.0038C188.936 47.0038 186.416 46.2925 184.133 44.87C181.889 43.4474 180.098 41.4519 178.759 38.8834C177.46 36.2753 176.811 33.2919 176.811 29.9331ZM202.556 30.0516C202.556 28.0363 202.163 26.3174 201.375 24.8948C200.588 23.4328 199.525 22.3263 198.187 21.5755C196.848 20.7852 195.411 20.3901 193.876 20.3901C192.341 20.3901 190.924 20.7655 189.625 21.5163C188.325 22.267 187.263 23.3735 186.436 24.8356C185.649 26.2581 185.255 27.9573 185.255 29.9331C185.255 31.9089 185.649 33.6475 186.436 35.1491C187.263 36.6112 188.325 37.7374 189.625 38.5277C190.963 39.318 192.38 39.7132 193.876 39.7132C195.411 39.7132 196.848 39.3378 198.187 38.587C199.525 37.7967 200.588 36.6902 201.375 35.2677C202.163 33.8056 202.556 32.0669 202.556 30.0516Z" fill="#FFA3B0"/>
<path d="M227.223 18.7304C228.286 16.9917 229.664 15.6284 231.357 14.6405C233.089 13.6526 235.057 13.1587 237.262 13.1587V21.8719H235.077C232.479 21.8719 230.511 22.4844 229.172 23.7094C227.873 24.9344 227.223 27.0682 227.223 30.1109V46.4704H218.957V13.6329H227.223V18.7304Z" fill="#FFA3B0"/>
<path d="M251.097 18.7304C252.16 16.9917 253.538 15.6284 255.231 14.6405C256.963 13.6526 258.931 13.1587 261.135 13.1587V21.8719H258.951C256.352 21.8719 254.384 22.4844 253.046 23.7094C251.747 24.9344 251.097 27.0682 251.097 30.1109V46.4704H242.83V13.6329H251.097V18.7304Z" fill="#FFA3B0"/>
<path d="M298 13.6329L277.746 62H268.948L276.034 45.6405L262.925 13.6329H272.195L280.639 36.5717L289.202 13.6329H298Z" fill="#FFA3B0"/>
</svg>
