<svg width="20" height="21" viewBox="0 0 20 21" fill="current" xmlns="http://www.w3.org/2000/svg">
<g clip-path="url(#clip0_1411_4414)">
<path d="M9.04892 5.09368C9.34828 4.17237 10.6517 4.17237 10.951 5.09368L11.8335 7.80965C11.9674 8.22168 12.3513 8.50064 12.7846 8.50064H15.6403C16.609 8.50064 17.0118 9.74025 16.2281 10.3097L13.9178 11.9882C13.5673 12.2429 13.4206 12.6942 13.5545 13.1063L14.437 15.8222C14.7363 16.7435 13.6818 17.5097 12.8981 16.9403L10.5878 15.2617C10.2373 15.0071 9.76268 15.0071 9.41219 15.2617L7.10185 16.9403C6.31813 17.5097 5.26365 16.7435 5.563 15.8222L6.44548 13.1063C6.57935 12.6942 6.4327 12.2429 6.08221 11.9882L3.77186 10.3097C2.98815 9.74025 3.39092 8.50064 4.35964 8.50064H7.21539C7.64862 8.50064 8.03257 8.22168 8.16645 7.80965L9.04892 5.09368Z" fill="#FFA3B0" stroke="#FFA3B0" stroke-width="2" stroke-linecap="round" stroke-linejoin="round"/>
</g>
<defs>
<clipPath id="clip0_1411_4414">
<rect width="20" height="20" fill="white" transform="translate(0 0.5)"/>
</clipPath>
</defs>
</svg>
