<svg width="310" height="127" viewBox="0 0 310 127" fill="none" xmlns="http://www.w3.org/2000/svg">
<g filter="url(#filter0_dd_5694_12788)">
<path d="M72.08 31.0441C72.08 32.0041 72.04 33.1641 71.96 34.5241C71.88 35.8841 71.72 37.2841 71.48 38.7241C71.32 40.1641 71.12 41.5241 70.88 42.8041C70.64 44.0841 70.36 45.1241 70.04 45.9241C70.76 45.8441 71.48 46.0841 72.2 46.6441C73.08 47.6841 73.76 48.8041 74.24 50.0041C74.8 51.2041 75.08 53.1641 75.08 55.8841C74.92 59.8041 73.8 63.9241 71.72 68.2441C69.64 72.5641 66.96 76.5641 63.68 80.2441C60.48 83.8441 56.88 86.8041 52.88 89.1241C48.88 91.5241 44.84 92.7241 40.76 92.7241C37.32 92.4041 34.28 91.5641 31.64 90.2041C29.08 88.9241 26.92 87.2441 25.16 85.1641C23.48 83.0841 22.2 80.7241 21.32 78.0841C20.44 75.3641 20 72.4841 20 69.4441C20 66.4041 20.4 63.3241 21.2 60.2041C22.08 57.0841 23.12 54.2441 24.32 51.6841C25.76 48.7241 27.64 45.4041 29.96 41.7241C32.36 38.0441 35.08 34.6041 38.12 31.4041C41.24 28.1241 44.56 25.4041 48.08 23.2441C51.68 21.0041 55.4 19.9241 59.24 20.0041C62.6 20.0041 65.52 20.9641 68 22.8841C70.48 24.7241 71.84 27.4441 72.08 31.0441ZM33.44 69.4441C32.96 69.1241 32.64 68.7241 32.48 68.2441C32.4 67.7641 32.44 67.3641 32.6 67.0441C32.76 66.6441 33.04 66.3641 33.44 66.2041C33.92 65.9641 34.44 65.9641 35 66.2041C37.96 67.3241 40.64 68.0441 43.04 68.3641C45.44 68.6841 47.68 68.3241 49.76 67.2841C51.84 66.2441 53.84 64.4841 55.76 62.0041C57.76 59.4441 59.8 55.9241 61.88 51.4441C62.12 50.8841 62.48 49.8441 62.96 48.3241C63.52 46.8041 64.04 45.1241 64.52 43.2841C65 41.4441 65.36 39.6041 65.6 37.7641C65.92 35.9241 66 34.3241 65.84 32.9641C65.68 32.0841 65.48 31.1641 65.24 30.2041C65.08 29.2441 64.8 28.3641 64.4 27.5641C64 26.6841 63.4 26.0041 62.6 25.5241C61.88 24.9641 60.92 24.6841 59.72 24.6841C58.2 24.6841 56.64 25.0841 55.04 25.8841C53.44 26.6041 51.88 27.5241 50.36 28.6441C48.84 29.6841 47.4 30.8441 46.04 32.1241C44.68 33.3241 43.48 34.4041 42.44 35.3641C40.84 37.0441 39.12 39.1241 37.28 41.6041C35.52 44.0841 33.84 46.8441 32.24 49.8841C30.64 52.8441 29.28 55.9641 28.16 59.2441C27.04 62.5241 26.44 65.7641 26.36 68.9641C26.28 71.0441 26.48 73.2041 26.96 75.4441C27.52 77.6841 28.4 79.7641 29.6 81.6841C30.8 83.5241 32.32 85.0841 34.16 86.3641C36.08 87.5641 38.4 88.1641 41.12 88.1641C44.08 88.1641 47.16 87.2841 50.36 85.5241C53.56 83.7641 56.52 81.4841 59.24 78.6841C62.04 75.8041 64.36 72.5641 66.2 68.9641C68.04 65.2841 69.04 61.5641 69.2 57.8041C69.36 55.8841 69.4 54.1241 69.32 52.5241C69.24 50.9241 69.04 49.7641 68.72 49.0441C66.8 53.1241 64.72 56.8841 62.48 60.3241C60.24 63.6841 57.72 66.4041 54.92 68.4841C52.12 70.4841 48.96 71.6441 45.44 71.9641C41.92 72.2841 37.92 71.4441 33.44 69.4441Z" fill="#FFE4E4"/>
<path d="M101.349 51.6841C101.749 51.2841 102.269 51.2041 102.909 51.4441C103.549 51.6041 104.149 51.9241 104.709 52.4041C105.269 52.8841 105.669 53.4441 105.909 54.0841C106.229 54.7241 106.229 55.2841 105.909 55.7641C105.269 56.5641 104.429 58.1641 103.389 60.5641C102.429 62.8841 101.469 65.4041 100.509 68.1241C99.6288 70.7641 98.9488 73.3241 98.4688 75.8041C97.9887 78.2841 97.9487 80.0841 98.3487 81.2041C99.3887 81.3641 100.549 81.0441 101.829 80.2441C103.189 79.4441 104.509 78.4441 105.789 77.2441C107.069 76.0441 108.269 74.7641 109.389 73.4041C110.509 71.9641 111.389 70.7241 112.029 69.6841C112.669 68.7241 113.269 67.6841 113.829 66.5641C114.469 65.3641 115.189 64.2841 115.989 63.3241C116.869 62.6841 117.629 62.6841 118.269 63.3241C118.909 63.9641 118.909 64.7241 118.269 65.6041C118.269 65.7641 118.109 66.2041 117.789 66.9241C117.469 67.5641 117.069 68.3241 116.589 69.2041C116.189 70.0041 115.789 70.8441 115.389 71.7241C114.989 72.5241 114.669 73.0841 114.429 73.4041C113.789 74.6041 112.789 76.0841 111.429 77.8441C110.069 79.6041 108.549 81.2041 106.869 82.6441C105.189 84.0041 103.389 84.9641 101.469 85.5241C99.6288 86.0841 97.8288 85.7241 96.0687 84.4441C95.0287 83.7241 94.2688 82.7241 93.7887 81.4441C93.3087 80.1641 92.9888 78.7241 92.8288 77.1241C91.5488 78.8841 90.0288 80.5641 88.2688 82.1641C86.5888 83.7641 84.8288 84.8841 82.9888 85.5241C82.1087 85.9241 81.3088 86.1641 80.5887 86.2441C79.9487 86.3241 79.3088 86.3241 78.6688 86.2441C77.1488 86.0841 76.0288 85.3641 75.3088 84.0841C74.5887 82.8041 74.1888 81.2041 74.1087 79.2841C73.9487 77.2841 74.0687 75.1641 74.4688 72.9241C74.8688 70.6041 75.4688 68.3641 76.2687 66.2041C76.9888 64.0441 77.8288 62.1241 78.7887 60.4441C79.7487 58.7641 80.7887 57.5641 81.9087 56.8441C82.3887 56.5241 82.9487 56.3641 83.5887 56.3641C84.2288 56.2841 84.7887 56.3241 85.2688 56.4841C85.8288 56.6441 86.2288 56.9241 86.4688 57.3241C86.7087 57.6441 86.6687 58.0441 86.3487 58.5241C85.6287 59.3241 84.7487 60.9241 83.7088 63.3241C82.6688 65.6441 81.7487 68.0841 80.9487 70.6441C80.2287 73.2041 79.7887 75.5241 79.6287 77.6041C79.4688 79.6841 79.9487 80.8041 81.0687 80.9641C81.9487 81.1241 82.9487 80.8441 84.0687 80.1241C85.1888 79.4041 86.3488 78.4041 87.5488 77.1241C88.7487 75.7641 89.9087 74.1641 91.0287 72.3241C92.2287 70.4841 93.3088 68.4841 94.2688 66.3241C95.1488 62.8041 96.2288 59.8041 97.5088 57.3241C98.8688 54.7641 100.149 52.8841 101.349 51.6841Z" fill="#FFE4E4"/>
<path d="M120.843 49.6441C121.323 49.4841 121.843 49.5641 122.403 49.8841C123.043 50.1241 123.603 50.4841 124.083 50.9641C124.563 51.3641 124.963 51.8441 125.283 52.4041C125.603 52.9641 125.763 53.4041 125.763 53.7241C125.843 53.9641 125.723 54.3641 125.403 54.9241C125.163 55.4041 124.923 55.8441 124.683 56.2441C124.123 57.3641 123.603 58.4441 123.123 59.4841C122.643 60.5241 122.203 61.5641 121.803 62.6041C122.443 61.7241 123.203 60.7641 124.083 59.7241C124.963 58.6041 125.923 57.6041 126.963 56.7241C128.083 55.8441 129.203 55.1241 130.323 54.5641C131.523 53.9241 132.763 53.6441 134.043 53.7241C135.483 53.8041 136.643 54.2441 137.523 55.0441C138.403 55.8441 138.843 57.2041 138.843 59.1241C138.843 61.6841 138.283 63.9641 137.163 65.9641C136.043 67.9641 133.803 69.6441 130.443 71.0041C128.763 71.8041 126.683 72.4041 124.203 72.8041C123.163 72.4041 122.683 71.9641 122.763 71.4841C122.923 71.0041 123.083 70.6841 123.243 70.5241L125.883 69.0841C127.723 68.1241 129.003 67.0841 129.723 65.9641C130.523 64.7641 131.083 63.7241 131.403 62.8441C131.723 61.8841 131.843 60.9641 131.763 60.0841C131.603 59.6041 131.323 59.3241 130.923 59.2441C130.603 59.1641 130.363 59.1641 130.203 59.2441C129.723 59.4841 129.123 59.8441 128.403 60.3241C127.683 60.8041 126.803 61.6041 125.763 62.7241C124.803 63.8441 123.643 65.3641 122.283 67.2841C120.923 69.1241 119.403 71.5241 117.723 74.4841C117.323 75.9241 116.963 77.3641 116.643 78.8041C116.323 80.2441 116.043 81.6841 115.803 83.1241C115.483 84.8041 115.603 86.6441 116.163 88.6441C116.243 89.1241 116.163 89.4841 115.923 89.7241C115.603 89.9641 115.243 90.0841 114.843 90.0841C114.363 90.0841 113.883 89.9641 113.403 89.7241C112.843 89.4841 112.403 89.1641 112.083 88.7641C111.843 88.1241 111.643 87.6041 111.483 87.2041C111.323 86.8041 111.203 86.4441 111.123 86.1241C111.043 85.8041 111.043 85.4841 111.123 85.1641C111.123 84.7641 111.123 84.2841 111.123 83.7241C111.443 77.8841 112.563 72.0041 114.483 66.0841C116.403 60.0841 118.523 54.6041 120.843 49.6441Z" fill="#FFE4E4"/>
</g>
<g filter="url(#filter1_dd_5694_12788)">
<path d="M185.555 38.03C185.075 36.91 185.235 36.11 186.035 35.63C186.835 35.15 187.675 35.35 188.555 36.23C189.195 36.87 190.115 37.35 191.315 37.67C192.515 37.99 193.755 38.23 195.035 38.39C196.315 38.47 197.515 38.51 198.635 38.51C199.755 38.51 200.635 38.51 201.275 38.51C201.435 38.43 201.955 38.35 202.835 38.27C203.795 38.11 204.315 37.99 204.395 37.91C204.475 37.91 204.835 37.83 205.475 37.67C206.195 35.75 207.075 33.71 208.115 31.55C209.155 29.39 210.275 27.43 211.475 25.67C212.675 23.91 213.955 22.51 215.315 21.47C216.675 20.35 218.115 19.87 219.635 20.03C221.235 20.19 222.315 21.11 222.875 22.79C223.515 24.47 223.875 26.23 223.955 28.07C224.115 31.11 223.075 33.67 220.835 35.75C218.595 37.83 215.475 39.59 211.475 41.03V41.15C208.835 47.55 205.755 54.03 202.235 60.59C198.795 67.15 194.915 73.19 190.595 78.71C190.115 79.27 189.635 79.83 189.155 80.39C188.675 80.87 188.115 81.39 187.475 81.95C191.555 83.63 195.515 85.55 199.355 87.71C203.195 89.87 207.075 91.87 210.995 93.71C214.115 95.15 217.675 96.63 221.675 98.15C225.755 99.67 229.875 100.83 234.035 101.63C238.195 102.51 242.195 102.91 246.035 102.83C249.955 102.75 253.315 101.79 256.115 99.95C256.515 99.55 256.915 99.39 257.315 99.47C257.795 99.55 258.155 99.75 258.395 100.07C258.635 100.47 258.755 100.91 258.755 101.39C258.755 101.87 258.515 102.35 258.035 102.83C256.035 104.19 253.635 105.11 250.835 105.59C248.115 106.15 245.115 106.35 241.835 106.19C238.635 106.03 235.315 105.59 231.875 104.87C228.435 104.23 225.035 103.43 221.675 102.47C218.395 101.51 215.275 100.43 212.315 99.23C209.435 98.11 206.915 97.03 204.755 95.99C201.955 94.63 198.635 92.99 194.795 91.07C191.035 89.15 186.995 87.39 182.675 85.79C179.875 87.63 176.875 89.11 173.675 90.23C170.475 91.35 167.315 91.99 164.195 92.15C162.995 92.15 161.515 91.95 159.755 91.55C157.995 91.15 156.355 90.51 154.835 89.63C153.395 88.83 152.275 87.79 151.475 86.51C150.675 85.15 150.635 83.55 151.355 81.71C152.075 79.95 153.435 78.71 155.435 77.99C157.515 77.19 159.755 76.75 162.155 76.67C164.555 76.51 166.915 76.59 169.235 76.91C171.555 77.15 173.435 77.43 174.875 77.75C175.755 77.91 176.595 78.15 177.395 78.47C178.275 78.71 179.155 78.95 180.035 79.19C182.755 77.27 185.235 74.91 187.475 72.11C189.715 69.31 191.755 66.35 193.595 63.23C195.515 60.03 197.235 56.79 198.755 53.51C200.275 50.23 201.635 47.15 202.835 44.27C202.915 44.11 202.995 43.91 203.075 43.67C203.155 43.43 203.235 43.15 203.315 42.83C202.275 42.91 201.275 42.91 200.315 42.83C198.795 42.67 197.275 42.55 195.755 42.47C194.315 42.31 192.835 42.03 191.315 41.63C190.195 41.23 189.115 40.79 188.075 40.31C187.035 39.75 186.195 38.99 185.555 38.03ZM161.195 86.39C163.435 86.71 165.595 86.55 167.675 85.91C169.755 85.19 171.795 84.27 173.795 83.15C170.595 82.35 167.475 81.95 164.435 81.95C161.395 81.95 158.515 82.51 155.795 83.63C156.035 84.11 156.435 84.51 156.995 84.83C157.635 85.15 158.235 85.43 158.795 85.67C159.435 85.91 159.995 86.11 160.475 86.27C160.955 86.35 161.195 86.39 161.195 86.39ZM219.395 25.55C217.875 26.27 216.715 27.31 215.915 28.67C215.195 29.95 214.595 31.39 214.115 32.99C215.235 32.11 216.315 31.15 217.355 30.11C218.395 29.07 219.235 27.95 219.875 26.75C219.875 26.59 219.875 26.35 219.875 26.03C219.875 25.63 219.715 25.47 219.395 25.55Z" fill="#FFE4E4"/>
<path d="M230.239 68.75C230.159 69.63 230.079 70.39 229.999 71.03C229.919 71.67 229.799 72.27 229.639 72.83C229.479 73.31 229.279 73.83 229.039 74.39C228.879 74.95 228.679 75.63 228.439 76.43C227.319 78.43 226.159 80.07 224.959 81.35C223.759 82.55 222.559 83.51 221.359 84.23C220.239 84.95 219.159 85.47 218.119 85.79C217.159 86.03 216.399 86.19 215.839 86.27C215.679 86.27 215.279 86.35 214.639 86.51C213.999 86.59 213.239 86.59 212.359 86.51C211.559 86.35 210.719 85.99 209.839 85.43C208.879 84.87 207.999 83.91 207.199 82.55C206.719 81.75 206.559 80.27 206.719 78.11C206.799 75.87 207.239 73.35 208.039 70.55C208.359 69.27 208.919 67.67 209.719 65.75C210.279 64.39 211.039 62.87 211.999 61.19C213.039 59.51 214.199 57.95 215.479 56.51C216.839 55.07 218.359 53.87 220.039 52.91C221.719 51.87 223.599 51.35 225.679 51.35C226.479 51.35 227.159 51.63 227.719 52.19C228.279 52.75 228.639 53.43 228.799 54.23C228.879 54.39 228.879 54.71 228.799 55.19C228.719 55.59 228.639 55.95 228.559 56.27C228.159 57.63 227.679 58.27 227.119 58.19C226.559 58.03 226.199 57.79 226.039 57.47C226.039 56.99 225.959 56.59 225.799 56.27C225.719 55.87 225.599 55.67 225.439 55.67C225.199 55.75 224.319 56.63 222.799 58.31C221.279 59.91 219.719 62.11 218.119 64.91C216.759 67.31 215.599 69.75 214.639 72.23C213.679 74.63 213.199 76.99 213.199 79.31C213.199 80.27 213.359 81.19 213.679 82.07C213.999 82.95 214.639 83.39 215.599 83.39H216.199C218.199 82.83 219.839 81.99 221.119 80.87C222.399 79.67 223.399 78.43 224.119 77.15C224.839 75.79 225.359 74.47 225.679 73.19C225.999 71.83 226.199 70.71 226.279 69.83C224.199 69.99 222.799 69.75 222.079 69.11C221.359 68.39 221.039 67.55 221.119 66.59C221.199 65.55 221.519 64.55 222.079 63.59C222.639 62.63 223.199 61.91 223.759 61.43C224.159 61.03 224.719 60.63 225.439 60.23C226.239 59.75 226.879 59.51 227.359 59.51C228.399 59.35 229.159 59.59 229.639 60.23C230.199 60.87 230.359 61.99 230.119 63.59C231.159 63.27 232.359 62.75 233.719 62.03C235.159 61.31 235.999 60.87 236.239 60.71C237.599 59.91 238.719 59.19 239.599 58.55C240.479 57.83 241.479 57.15 242.599 56.51C243.719 56.11 244.279 56.55 244.279 57.83C244.279 58.39 244.119 58.87 243.799 59.27C241.719 61.59 239.519 63.43 237.199 64.79C234.879 66.15 232.559 67.47 230.239 68.75ZM226.879 63.35C226.639 63.11 226.279 63.23 225.799 63.71C225.399 64.11 225.199 64.43 225.199 64.67C225.119 65.07 225.119 65.35 225.199 65.51C225.359 65.67 225.519 65.75 225.679 65.75C225.919 65.75 226.119 65.71 226.279 65.63C226.519 65.55 226.679 65.47 226.759 65.39C226.999 64.91 227.039 64.23 226.879 63.35Z" fill="#FFE4E4"/>
<path d="M242.192 51.35C242.592 51.11 243.112 51.11 243.752 51.35C244.392 51.59 244.952 51.95 245.432 52.43C245.992 52.91 246.432 53.47 246.752 54.11C247.072 54.67 247.112 55.19 246.872 55.67C245.032 58.95 243.232 62.71 241.472 66.95C239.792 71.19 238.752 75.91 238.352 81.11C240.192 78.07 242.152 74.91 244.232 71.63C246.392 68.27 248.472 64.95 250.472 61.67C252.552 58.31 254.472 55.07 256.232 51.95C257.992 48.83 259.432 45.99 260.552 43.43C260.632 42.95 260.672 42.55 260.672 42.23C260.752 41.91 260.872 41.55 261.032 41.15C261.512 40.27 262.152 39.99 262.952 40.31C263.832 40.63 264.192 41.23 264.032 42.11C264.192 42.51 264.152 43.11 263.912 43.91C263.672 44.71 263.392 45.55 263.072 46.43C262.752 47.31 262.392 48.15 261.992 48.95C261.672 49.67 261.472 50.11 261.392 50.27C260.912 51.15 260.152 52.63 259.112 54.71C258.072 56.79 256.872 59.15 255.512 61.79C254.152 64.43 252.672 67.19 251.072 70.07C249.552 72.95 247.992 75.59 246.392 77.99C244.872 80.39 243.392 82.35 241.952 83.87C240.592 85.39 239.392 86.15 238.352 86.15C237.472 86.23 236.512 85.91 235.472 85.19C234.432 84.47 233.752 83.39 233.432 81.95C233.512 79.23 233.752 76.47 234.152 73.67C234.552 70.87 235.112 68.11 235.832 65.39C236.552 62.67 237.432 60.11 238.472 57.71C239.512 55.31 240.752 53.19 242.192 51.35Z" fill="#FFE4E4"/>
<path d="M266.213 77.15C265.653 77.31 265.013 77.51 264.293 77.75C263.653 77.91 263.013 78.03 262.373 78.11C262.133 79.07 262.173 80.11 262.493 81.23C262.733 82.27 263.453 82.91 264.653 83.15C266.653 83.15 268.653 82.79 270.653 82.07C272.733 81.35 274.733 80.35 276.653 79.07C278.573 77.79 280.413 76.31 282.173 74.63C283.933 72.95 285.493 71.15 286.853 69.23C287.813 68.59 288.613 68.59 289.253 69.23C289.893 69.79 289.893 70.55 289.253 71.51C287.973 73.27 286.373 75.15 284.453 77.15C282.533 79.07 280.453 80.87 278.213 82.55C275.973 84.15 273.613 85.47 271.133 86.51C268.733 87.55 266.413 87.99 264.173 87.83C262.093 87.83 260.373 87.15 259.013 85.79C257.653 84.35 256.933 82.47 256.853 80.15C256.773 78.39 256.973 76.47 257.453 74.39C257.933 72.23 258.653 70.11 259.613 68.03C260.493 65.87 261.533 63.83 262.733 61.91C263.933 59.91 265.173 58.19 266.453 56.75C267.813 55.23 269.173 54.07 270.533 53.27C271.893 52.39 273.213 52.03 274.493 52.19C275.693 52.35 276.653 52.75 277.373 53.39C278.173 53.95 278.773 54.67 279.173 55.55C279.653 56.43 279.933 57.39 280.013 58.43C280.173 59.39 280.213 60.27 280.133 61.07C279.493 65.07 278.013 68.51 275.693 71.39C273.453 74.27 270.293 76.19 266.213 77.15ZM275.213 59.99C275.213 59.83 275.173 59.39 275.093 58.67C275.093 57.87 274.853 57.47 274.373 57.47C273.973 57.47 273.333 57.83 272.453 58.55C271.653 59.27 270.773 60.47 269.813 62.15C268.293 64.55 267.013 66.75 265.973 68.75C265.013 70.67 264.253 72.43 263.693 74.03C264.813 73.79 265.813 73.47 266.693 73.07C267.573 72.67 268.613 72.03 269.813 71.15C271.093 70.27 272.173 69.03 273.053 67.43C273.693 66.31 274.213 65.11 274.613 63.83C275.013 62.55 275.213 61.27 275.213 59.99Z" fill="#FFE4E4"/>
</g>
<defs>
<filter id="filter0_dd_5694_12788" x="0" y="0" width="158.843" height="112.724" filterUnits="userSpaceOnUse" color-interpolation-filters="sRGB">
<feFlood flood-opacity="0" result="BackgroundImageFix"/>
<feColorMatrix in="SourceAlpha" type="matrix" values="0 0 0 0 0 0 0 0 0 0 0 0 0 0 0 0 0 0 127 0" result="hardAlpha"/>
<feOffset dy="2"/>
<feGaussianBlur stdDeviation="6"/>
<feComposite in2="hardAlpha" operator="out"/>
<feColorMatrix type="matrix" values="0 0 0 0 0 0 0 0 0 0 0 0 0 0 0 0 0 0 0.12 0"/>
<feBlend mode="normal" in2="BackgroundImageFix" result="effect1_dropShadow_5694_12788"/>
<feColorMatrix in="SourceAlpha" type="matrix" values="0 0 0 0 0 0 0 0 0 0 0 0 0 0 0 0 0 0 127 0" result="hardAlpha"/>
<feOffset/>
<feGaussianBlur stdDeviation="10"/>
<feComposite in2="hardAlpha" operator="out"/>
<feColorMatrix type="matrix" values="0 0 0 0 0 0 0 0 0 0 0 0 0 0 0 0 0 0 0.04 0"/>
<feBlend mode="normal" in2="effect1_dropShadow_5694_12788" result="effect2_dropShadow_5694_12788"/>
<feBlend mode="normal" in="SourceGraphic" in2="effect2_dropShadow_5694_12788" result="shape"/>
</filter>
<filter id="filter1_dd_5694_12788" x="130.843" y="0" width="178.889" height="126.243" filterUnits="userSpaceOnUse" color-interpolation-filters="sRGB">
<feFlood flood-opacity="0" result="BackgroundImageFix"/>
<feColorMatrix in="SourceAlpha" type="matrix" values="0 0 0 0 0 0 0 0 0 0 0 0 0 0 0 0 0 0 127 0" result="hardAlpha"/>
<feOffset dy="2"/>
<feGaussianBlur stdDeviation="6"/>
<feComposite in2="hardAlpha" operator="out"/>
<feColorMatrix type="matrix" values="0 0 0 0 0 0 0 0 0 0 0 0 0 0 0 0 0 0 0.12 0"/>
<feBlend mode="normal" in2="BackgroundImageFix" result="effect1_dropShadow_5694_12788"/>
<feColorMatrix in="SourceAlpha" type="matrix" values="0 0 0 0 0 0 0 0 0 0 0 0 0 0 0 0 0 0 127 0" result="hardAlpha"/>
<feOffset/>
<feGaussianBlur stdDeviation="10"/>
<feComposite in2="hardAlpha" operator="out"/>
<feColorMatrix type="matrix" values="0 0 0 0 0 0 0 0 0 0 0 0 0 0 0 0 0 0 0.04 0"/>
<feBlend mode="normal" in2="effect1_dropShadow_5694_12788" result="effect2_dropShadow_5694_12788"/>
<feBlend mode="normal" in="SourceGraphic" in2="effect2_dropShadow_5694_12788" result="shape"/>
</filter>
</defs>
</svg>
