<svg width="20" height="20" viewBox="0 0 20 20" fill="none" xmlns="http://www.w3.org/2000/svg">
<g clip-path="url(#clip0_5664_12046)">
<path d="M10.0718 4.0083C10.3113 3.27129 11.354 3.27129 11.5935 4.0083L12.7113 7.44802C12.8184 7.77761 13.1255 8.00076 13.4721 8.00077L17.0889 8.00091C17.8638 8.00094 18.186 8.99258 17.5591 9.44811L14.6331 11.5741C14.3528 11.7778 14.2355 12.1389 14.3425 12.4685L15.4601 15.9083C15.6995 16.6453 14.856 17.2582 14.229 16.8027L11.3029 14.6769C11.0225 14.4732 10.6429 14.4732 10.3625 14.6769L7.43637 16.8027C6.8094 17.2582 5.96587 16.6453 6.20531 15.9083L7.32282 12.4685C7.4299 12.1389 7.31259 11.7778 7.03222 11.5741L4.10627 9.44811C3.47934 8.99258 3.80155 8.00094 4.57649 8.00091L8.19327 8.00077C8.53983 8.00076 8.84697 7.77761 8.95407 7.44802L10.0718 4.0083Z" fill="#FFBDC6" stroke="#FFBDC6" stroke-width="2" stroke-linecap="round" stroke-linejoin="round"/>
</g>
<defs>
<clipPath id="clip0_5664_12046">
<rect width="20" height="20" fill="white"/>
</clipPath>
</defs>
</svg>
