<svg width="18" height="18" viewBox="0 0 18 18" fill="none" xmlns="http://www.w3.org/2000/svg">
<path d="M8.98916 3.84131C9.22866 3.1043 10.2713 3.1043 10.5108 3.84131L11.4228 6.64765C11.5299 6.97724 11.837 7.20039 12.1836 7.20041L15.1344 7.20052C15.9093 7.20055 16.2315 8.19219 15.6046 8.64771L13.2174 10.3822C12.9371 10.5859 12.8198 10.947 12.9268 11.2766L13.8386 14.083C14.078 14.82 13.2345 15.4329 12.6075 14.9774L10.2202 13.2431C9.93982 13.0394 9.56018 13.0394 9.2798 13.2431L6.89249 14.9774C6.26553 15.4329 5.42199 14.8201 5.66143 14.083L6.57317 11.2766C6.68025 10.947 6.56293 10.5859 6.28257 10.3822L3.89539 8.64771C3.26846 8.19219 3.59067 7.20055 4.36561 7.20052L7.31641 7.20041C7.66297 7.20039 7.97011 6.97724 8.07721 6.64765L8.98916 3.84131Z" fill="#FFE2E6" stroke="#FFE2E6" stroke-width="2" stroke-linecap="round" stroke-linejoin="round"/>
</svg>
